M48
; DRILL file {KiCad 5.1.9-73d0e3b20d~88~ubuntu20.04.1} date Wed Apr 21 09:56:10 2021
; FORMAT={-:-/ absolute / inch / decimal}
; #@! TF.CreationDate,2021-04-21T09:56:10-07:00
; #@! TF.GenerationSoftware,Kicad,Pcbnew,5.1.9-73d0e3b20d~88~ubuntu20.04.1
; #@! TF.FileFunction,Plated,1,2,PTH
FMAT,2
INCH
T1C0.0157
T2C0.0236
T3C0.0394
T4C0.0591
%
G90
G05
T1
X4.625Y-3.415
X4.625Y-3.585
X5.305Y-3.265
X5.375Y-4.06
X5.4Y-2.825
X5.45Y-2.13
X5.46Y-4.35
X5.46Y-4.395
X5.46Y-4.445
X5.46Y-4.495
X5.505Y-4.3
X5.525Y-3.48
X5.5561Y-3.44
X5.7056Y-1.5806
X5.725Y-1.955
X5.8Y-3.505
X5.935Y-1.955
X5.935Y-4.265
X5.945Y-2.13
X5.945Y-2.83
X5.95Y-3.565
X5.9526Y-1.5803
X6.0Y-3.11
X6.18Y-4.31
X6.19Y-3.11
X6.21Y-3.84
X6.215Y-3.6
X6.2481Y-3.4169
X6.26Y-3.155
X6.61Y-3.795
X6.61Y-3.915
X6.87Y-3.315
X6.87Y-3.62
X8.955Y-4.16
T3
X6.02Y-2.935
X6.02Y-3.035
X6.12Y-2.935
X6.12Y-3.035
X6.22Y-2.935
X6.22Y-3.035
T4
X1.1238Y-1.4537
X1.1238Y-2.2037
X1.1238Y-2.9537
X1.1238Y-3.7037
X1.3738Y-1.3538
X1.3738Y-2.1037
X1.3738Y-2.8537
X1.3738Y-3.6037
X1.9113Y-2.9725
X1.9637Y-2.2243
X2.016Y-1.4762
X2.1677Y-2.8902
X2.22Y-2.142
X2.2723Y-1.3939
X2.5894Y-3.7846
X2.6938Y-3.0419
X2.7982Y-2.2992
X2.8509Y-3.7203
X2.9026Y-1.5565
X2.9553Y-2.9776
X3.0597Y-2.2349
X3.1641Y-1.4922
X3.3321Y-3.8889
X3.4365Y-3.1462
X3.5409Y-2.4035
X3.5936Y-3.8247
X3.6453Y-1.6608
X3.698Y-3.082
X3.8024Y-2.3393
X3.9068Y-1.5966
X4.0749Y-3.9933
X4.1792Y-3.2506
X4.2836Y-2.5079
X4.3363Y-3.9291
X4.388Y-1.7652
X4.4407Y-3.1864
X4.5451Y-2.4437
X4.6495Y-1.701
X4.8185Y-4.098
X4.9219Y-3.355
X5.0263Y-2.6123
X5.08Y-4.0337
X5.1307Y-1.8696
X5.1834Y-3.2908
X5.2878Y-2.5481
X5.3922Y-1.8054
X6.2033Y-1.9103
X6.3077Y-2.653
X6.4121Y-3.3957
X6.437Y-1.7765
X6.5165Y-4.1384
X6.5414Y-2.5192
X6.6457Y-3.2619
X6.7501Y-4.0046
X6.9466Y-1.8061
X7.0504Y-2.5486
X7.1548Y-3.2913
X7.1802Y-1.6723
X7.2592Y-4.034
X7.2841Y-2.4148
X7.3884Y-3.1575
X7.4928Y-3.9002
X7.6893Y-1.7017
X7.7936Y-2.4442
X7.898Y-3.1871
X7.9229Y-1.5679
X8.0019Y-3.9297
X8.0272Y-2.3104
X8.1317Y-3.0533
X8.2355Y-3.7958
X8.4314Y-1.5972
X8.5358Y-2.3399
X8.6402Y-3.0826
X8.6651Y-1.4634
X8.7447Y-3.8253
X8.7695Y-2.2061
X8.8738Y-2.9488
X8.9783Y-3.6915
X9.3182Y-1.4938
X9.3706Y-2.2419
X9.4229Y-2.9901
X9.5607Y-1.3766
X9.613Y-2.1247
X9.6653Y-2.8729
X10.2088Y-1.4537
X10.2088Y-2.2037
X10.2088Y-2.9537
X10.21Y-3.7037
X10.4588Y-1.3538
X10.4588Y-2.1037
X10.4588Y-2.8537
X10.46Y-3.6037
T2
G00X5.6449Y-1.2706
M15
G01X5.6449Y-1.2942
M16
G05
G00X5.6449Y-1.4253
M15
G01X5.6449Y-1.4686
M16
G05
G00X5.985Y-1.2706
M15
G01X5.985Y-1.2942
M16
G05
G00X5.985Y-1.4253
M15
G01X5.985Y-1.4686
M16
G05
T0
M30
