G04 #@! TF.GenerationSoftware,KiCad,Pcbnew,5.1.9-73d0e3b20d~88~ubuntu20.04.1*
G04 #@! TF.CreationDate,2021-04-21T09:56:19-07:00*
G04 #@! TF.ProjectId,test1,74657374-312e-46b6-9963-61645f706362,rev?*
G04 #@! TF.SameCoordinates,Original*
G04 #@! TF.FileFunction,Soldermask,Top*
G04 #@! TF.FilePolarity,Negative*
%FSLAX46Y46*%
G04 Gerber Fmt 4.6, Leading zero omitted, Abs format (unit mm)*
G04 Created by KiCad (PCBNEW 5.1.9-73d0e3b20d~88~ubuntu20.04.1) date 2021-04-21 09:56:19*
%MOMM*%
%LPD*%
G01*
G04 APERTURE LIST*
%ADD10C,4.000000*%
%ADD11C,2.200000*%
%ADD12C,0.650000*%
%ADD13O,1.000000X2.100000*%
%ADD14O,1.000000X1.600000*%
G04 APERTURE END LIST*
D10*
X226240646Y-99148087D03*
D11*
X222114225Y-97163056D03*
X228048928Y-93764026D03*
D10*
X69190152Y-99173197D03*
D11*
X65770730Y-96127667D03*
X72412432Y-94496135D03*
D10*
X161690949Y-50507304D03*
D11*
X157564528Y-48522273D03*
X163499231Y-45123243D03*
D10*
X32353250Y-96615250D03*
D11*
X28543250Y-94075250D03*
X34893250Y-91535250D03*
D10*
X32353250Y-39465250D03*
D11*
X28543250Y-36925250D03*
X34893250Y-34385250D03*
D12*
X150590000Y-36222000D03*
X144810000Y-36222000D03*
D13*
X143380000Y-36752000D03*
X152020000Y-36752000D03*
D14*
X143380000Y-32572000D03*
X152020000Y-32572000D03*
D10*
X54829279Y-40294388D03*
D11*
X51205742Y-37494803D03*
X57717455Y-35403944D03*
D10*
X32353250Y-58515250D03*
D11*
X28543250Y-55975250D03*
X34893250Y-53435250D03*
D10*
X263144000Y-96615250D03*
D11*
X259334000Y-94075250D03*
X265684000Y-91535250D03*
D10*
X207373904Y-101798629D03*
D11*
X203247483Y-99813598D03*
X209182186Y-96414568D03*
D10*
X188509299Y-104449876D03*
D11*
X184382878Y-102464845D03*
X190317581Y-99065815D03*
D10*
X169644692Y-107101124D03*
D11*
X165518271Y-105116093D03*
X171452974Y-101717063D03*
D10*
X125809720Y-107134312D03*
D11*
X122390298Y-104088782D03*
X129032000Y-102457250D03*
D10*
X106920617Y-104475799D03*
D11*
X103501195Y-101430269D03*
X110142897Y-99798737D03*
D10*
X88056011Y-101824551D03*
D11*
X84636589Y-98779021D03*
X91278291Y-97147489D03*
D10*
X263112250Y-77565250D03*
D11*
X259302250Y-75025250D03*
X265652250Y-72485250D03*
D10*
X243318797Y-78216576D03*
D11*
X239340897Y-75948535D03*
X245498247Y-72971769D03*
D10*
X223587263Y-80282774D03*
D11*
X219460842Y-78297743D03*
X225395545Y-74898713D03*
D10*
X204735906Y-82938471D03*
D11*
X200609485Y-80953440D03*
X206544188Y-77554410D03*
D10*
X185858051Y-85585269D03*
D11*
X181731630Y-83600238D03*
X187666333Y-80201208D03*
D10*
X166993444Y-88236517D03*
D11*
X162867023Y-86251486D03*
X168801726Y-82852456D03*
D10*
X128436472Y-88262439D03*
D11*
X125017050Y-85216909D03*
X131658752Y-83585377D03*
D10*
X109571865Y-85611192D03*
D11*
X106152443Y-82565662D03*
X112794145Y-80934130D03*
D10*
X90707258Y-82959944D03*
D11*
X87287836Y-79914414D03*
X93929538Y-78282882D03*
D10*
X71842652Y-80308697D03*
D11*
X68423230Y-77263167D03*
X75064932Y-75631635D03*
D10*
X52171558Y-78301578D03*
D11*
X48548021Y-75501993D03*
X55059734Y-73411134D03*
D10*
X32353250Y-77565250D03*
D11*
X28543250Y-75025250D03*
X34893250Y-72485250D03*
D10*
X263112250Y-58515250D03*
D11*
X259302250Y-55975250D03*
X265652250Y-53435250D03*
D10*
X241989936Y-59212981D03*
D11*
X238012036Y-56944940D03*
X244169386Y-53968174D03*
D10*
X220936017Y-61418168D03*
D11*
X216809596Y-59433137D03*
X222744299Y-56034107D03*
D10*
X202083788Y-64067675D03*
D11*
X197957367Y-62082644D03*
X203892070Y-58683614D03*
D10*
X183206803Y-66720662D03*
D11*
X179080382Y-64735631D03*
X185015085Y-61336601D03*
D10*
X164342198Y-69371910D03*
D11*
X160215777Y-67386879D03*
X166150480Y-63987849D03*
D10*
X131087719Y-69397833D03*
D11*
X127668297Y-66352303D03*
X134309999Y-64720771D03*
D10*
X112223113Y-66746585D03*
D11*
X108803691Y-63701055D03*
X115445393Y-62069523D03*
D10*
X93358506Y-64095338D03*
D11*
X89939084Y-61049808D03*
X96580786Y-59418276D03*
D10*
X74493899Y-61444090D03*
D11*
X71074477Y-58398560D03*
X77716179Y-56767028D03*
D10*
X53500418Y-59297983D03*
D11*
X49876881Y-56498398D03*
X56388594Y-54407539D03*
D10*
X263112250Y-39465250D03*
D11*
X259302250Y-36925250D03*
X265652250Y-34385250D03*
D10*
X240661075Y-40209386D03*
D11*
X236683175Y-37941345D03*
X242840525Y-34964579D03*
D10*
X218284770Y-42553561D03*
D11*
X214158349Y-40568530D03*
X220093052Y-37169500D03*
D10*
X199433411Y-45209258D03*
D11*
X195306990Y-43224227D03*
X201241693Y-39825197D03*
D10*
X180568804Y-47860505D03*
D11*
X176442383Y-45875474D03*
X182377086Y-42476444D03*
D10*
X133738967Y-50533226D03*
D11*
X130319545Y-47487696D03*
X136961247Y-45856164D03*
D10*
X114874360Y-47881978D03*
D11*
X111454938Y-44836448D03*
X118096640Y-43204916D03*
D10*
X96009753Y-45230731D03*
D11*
X92590331Y-42185201D03*
X99232033Y-40553669D03*
D10*
X77145147Y-42579483D03*
D11*
X73725725Y-39533953D03*
X80367427Y-37902421D03*
M02*
