  0
SECTION
  2
HEADER
  9
$ACADVER
  1
AC1014
  9
$HANDSEED
  5
FFFF
  9
$MEASUREMENT
 70
     1
  0
ENDSEC
  0
SECTION
  2
TABLES
  0
TABLE
  2
VPORT
  5
8
330
0
100
AcDbSymbolTable
 70
     4
  0
VPORT
  5
2E
330
8
100
AcDbSymbolTableRecord
100
AcDbViewportTableRecord
  2
*ACTIVE
 70
     0
 10
0.0
 20
0.0
 11
1.0
 21
1.0
 12
210.0
 22
148.5
 13
0.0
 23
0.0
 14
10.0
 24
10.0
 15
10.0
 25
10.0
 16
0.0
 26
0.0
 36
1.0
 17
0.0
 27
0.0
 37
0.0
 40
341.0
 41
1.24
 42
50.0
 43
0.0
 44
0.0
 50
0.0
 51
0.0
 71
     0
 72
   100
 73
     1
 74
     3
 75
     0
 76
     0
 77
     0
 78
     0
  0
ENDTAB
  0
TABLE
  2
LTYPE
  5
5
330
0
100
AcDbSymbolTable
 70
     1
  0
LTYPE
  5
14
330
5
100
AcDbSymbolTableRecord
100
AcDbLinetypeTableRecord
  2
BYBLOCK
 70
     0
  3

 72
    65
 73
     0
 40
0.0
  0
LTYPE
  5
15
330
5
100
AcDbSymbolTableRecord
100
AcDbLinetypeTableRecord
  2
BYLAYER
 70
     0
  3

 72
    65
 73
     0
 40
0.0
  0
LTYPE
  5
16
330
5
100
AcDbSymbolTableRecord
100
AcDbLinetypeTableRecord
  2
CONTINUOUS
 70
     0
  3
Solid line
 72
    65
 73
     0
 40
0.0
  0
ENDTAB
  0
TABLE
  2
LAYER
  5
2
100
AcDbSymbolTable
 70
1
  0
LAYER
  5
50
100
AcDbSymbolTableRecord
100
AcDbLayerTableRecord
  2
0
 70
0
  6
CONTINUOUS
  0
ENDTAB
  0
TABLE
  2
STYLE
  5
3
330
0
100
AcDbSymbolTable
 70
     1
  0
STYLE
  5
11
330
3
100
AcDbSymbolTableRecord
100
AcDbTextStyleTableRecord
  2
STANDARD
 70
     0
 40
0.0
 41
1.0
 50
0.0
 71
     0
 42
2.5
  3
txt
  4

  0
ENDTAB
  0
TABLE
  2
VIEW
  5
6
330
0
100
AcDbSymbolTable
 70
     0
  0
ENDTAB
  0
TABLE
  2
UCS
  5
7
330
0
100
AcDbSymbolTable
 70
     0
  0
ENDTAB
  0
TABLE
  2
APPID
  5
9
330
0
100
AcDbSymbolTable
 70
     2
  0
APPID
  5
12
330
9
100
AcDbSymbolTableRecord
100
AcDbRegAppTableRecord
  2
ACAD
 70
     0
  0
ENDTAB
  0
TABLE
  2
DIMSTYLE
  5
A
330
0
100
AcDbSymbolTable
 70
     1
  0
DIMSTYLE
105
27
330
A
100
AcDbSymbolTableRecord
100
AcDbDimStyleTableRecord
  2
ISO-25
 70
     0
  3

  4

  5

  6

  7

 40
1.0
 41
2.5
 42
0.625
 43
3.75
 44
1.25
 45
0.0
 46
0.0
 47
0.0
 48
0.0
140
2.5
141
2.5
142
0.0
143
0.03937007874016
144
1.0
145
0.0
146
1.0
147
0.625
 71
     0
 72
     0
 73
     0
 74
     0
 75
     0
 76
     0
 77
     1
 78
     8
170
     0
171
     3
172
     1
173
     0
174
     0
175
     0
176
     0
177
     0
178
     0
270
     2
271
     2
272
     2
273
     2
274
     3
340
11
275
     0
280
     0
281
     0
282
     0
283
     0
284
     8
285
     0
286
     0
287
     3
288
     0
  0
ENDTAB
  0
TABLE
  2
BLOCK_RECORD
  5
1
330
0
100
AcDbSymbolTable
 70
     1
  0
BLOCK_RECORD
  5
1F
330
1
100
AcDbSymbolTableRecord
100
AcDbBlockTableRecord
  2
*MODEL_SPACE
  0
BLOCK_RECORD
  5
1B
330
1
100
AcDbSymbolTableRecord
100
AcDbBlockTableRecord
  2
*PAPER_SPACE
  0
ENDTAB
  0
ENDSEC
  0
SECTION
  2
BLOCKS
  0
BLOCK
  5
20
330
1F
100
AcDbEntity
  8
0
100
AcDbBlockBegin
  2
*MODEL_SPACE
 70
     0
 10
0.0
 20
0.0
 30
0.0
  3
*MODEL_SPACE
  1

  0
ENDBLK
  5
21
330
1F
100
AcDbEntity
  8
0
100
AcDbBlockEnd
  0
BLOCK
  5
1C
330
1B
100
AcDbEntity
 67
     1
  8
0
100
AcDbBlockBegin
  2
*PAPER_SPACE
  1

  0
ENDBLK
  5
1D
330
1B
100
AcDbEntity
 67
     1
  8
0
100
AcDbBlockEnd
  0
ENDSEC
  0
SECTION
  2
ENTITIES
  0
SPLINE
  5
100
100
AcDbEntity
  8
0
 62
7
100
AcDbSpline
 70
8
 71
3
 72
8
 73
4
 74
0
 40
0
 40
0
 40
0
 40
0
 40
1
 40
1
 40
1
 40
1
 10
264.963485
 20
-10.640054
 30
0.0
 10
264.963495
 20
-6.967006
 30
0.0
 10
261.986052
 20
-3.989328
 30
0.0
 10
258.313004
 20
-3.989047
 30
0.0
  0
SPLINE
  5
101
100
AcDbEntity
  8
0
 62
7
100
AcDbSpline
 70
8
 71
3
 72
8
 73
4
 74
0
 40
0
 40
0
 40
0
 40
0
 40
1
 40
1
 40
1
 40
1
 10
260.980740
 20
-6.719054
 30
0.0
 10
260.495385
 20
-6.719054
 30
0.0
 10
260.057822
 20
-7.011425
 30
0.0
 10
259.872085
 20
-7.459834
 30
0.0
  0
SPLINE
  5
102
100
AcDbEntity
  8
0
 62
7
100
AcDbSpline
 70
8
 71
3
 72
8
 73
4
 74
0
 40
0
 40
0
 40
0
 40
0
 40
1
 40
1
 40
1
 40
1
 10
259.872085
 20
-7.459834
 30
0.0
 10
259.686348
 20
-7.908243
 30
0.0
 10
259.789014
 20
-8.424385
 30
0.0
 10
260.132212
 20
-8.767582
 30
0.0
  0
SPLINE
  5
103
100
AcDbEntity
  8
0
 62
7
100
AcDbSpline
 70
8
 71
3
 72
8
 73
4
 74
0
 40
0
 40
0
 40
0
 40
0
 40
1
 40
1
 40
1
 40
1
 10
260.132212
 20
-8.767582
 30
0.0
 10
260.475410
 20
-9.110780
 30
0.0
 10
260.991551
 20
-9.213447
 30
0.0
 10
261.439960
 20
-9.027710
 30
0.0
  0
SPLINE
  5
104
100
AcDbEntity
  8
0
 62
7
100
AcDbSpline
 70
8
 71
3
 72
8
 73
4
 74
0
 40
0
 40
0
 40
0
 40
0
 40
1
 40
1
 40
1
 40
1
 10
261.439960
 20
-9.027710
 30
0.0
 10
261.888370
 20
-8.841973
 30
0.0
 10
262.180740
 20
-8.404409
 30
0.0
 10
262.180740
 20
-7.919054
 30
0.0
  0
SPLINE
  5
105
100
AcDbEntity
  8
0
 62
7
100
AcDbSpline
 70
8
 71
3
 72
8
 73
4
 74
0
 40
0
 40
0
 40
0
 40
0
 40
1
 40
1
 40
1
 40
1
 10
262.180740
 20
-7.919054
 30
0.0
 10
262.180740
 20
-7.256313
 30
0.0
 10
261.643482
 20
-6.719054
 30
0.0
 10
260.980740
 20
-6.719054
 30
0.0
  0
LWPOLYLINE
  5
106
100
AcDbEntity
  8
0
 62
7
100
AcDbPolyline
 90
1
 70
1
 10
260.980740
 20
-6.719054
 30
0.0
  0
LWPOLYLINE
  5
107
100
AcDbEntity
  8
0
 62
7
100
AcDbPolyline
 90
2
 70
0
 10
258.311226
 20
-3.986906
 30
0.0
 10
11.677258
 20
-3.986906
 30
0.0
  0
LWPOLYLINE
  5
108
100
AcDbEntity
  8
0
 62
7
100
AcDbPolyline
 90
2
 70
0
 10
264.963485
 20
-83.610812
 30
0.0
 10
264.963485
 20
-10.639165
 30
0.0
  0
SPLINE
  5
109
100
AcDbEntity
  8
0
 62
7
100
AcDbSpline
 70
8
 71
3
 72
8
 73
4
 74
0
 40
0
 40
0
 40
0
 40
0
 40
1
 40
1
 40
1
 40
1
 10
258.313004
 20
-90.262055
 30
0.0
 10
261.986045
 20
-90.261775
 30
0.0
 10
264.963485
 20
-87.284108
 30
0.0
 10
264.963485
 20
-83.611066
 30
0.0
  0
SPLINE
  5
10a
100
AcDbEntity
  8
0
 62
7
100
AcDbSpline
 70
8
 71
3
 72
8
 73
4
 74
0
 40
0
 40
0
 40
0
 40
0
 40
1
 40
1
 40
1
 40
1
 10
260.980740
 20
-85.134967
 30
0.0
 10
260.495385
 20
-85.134967
 30
0.0
 10
260.057822
 20
-85.427338
 30
0.0
 10
259.872085
 20
-85.875747
 30
0.0
  0
SPLINE
  5
10b
100
AcDbEntity
  8
0
 62
7
100
AcDbSpline
 70
8
 71
3
 72
8
 73
4
 74
0
 40
0
 40
0
 40
0
 40
0
 40
1
 40
1
 40
1
 40
1
 10
259.872085
 20
-85.875747
 30
0.0
 10
259.686348
 20
-86.324156
 30
0.0
 10
259.789014
 20
-86.840298
 30
0.0
 10
260.132212
 20
-87.183495
 30
0.0
  0
SPLINE
  5
10c
100
AcDbEntity
  8
0
 62
7
100
AcDbSpline
 70
8
 71
3
 72
8
 73
4
 74
0
 40
0
 40
0
 40
0
 40
0
 40
1
 40
1
 40
1
 40
1
 10
260.132212
 20
-87.183495
 30
0.0
 10
260.475410
 20
-87.526693
 30
0.0
 10
260.991551
 20
-87.629360
 30
0.0
 10
261.439960
 20
-87.443622
 30
0.0
  0
SPLINE
  5
10d
100
AcDbEntity
  8
0
 62
7
100
AcDbSpline
 70
8
 71
3
 72
8
 73
4
 74
0
 40
0
 40
0
 40
0
 40
0
 40
1
 40
1
 40
1
 40
1
 10
261.439960
 20
-87.443622
 30
0.0
 10
261.888370
 20
-87.257885
 30
0.0
 10
262.180740
 20
-86.820322
 30
0.0
 10
262.180740
 20
-86.334967
 30
0.0
  0
SPLINE
  5
10e
100
AcDbEntity
  8
0
 62
7
100
AcDbSpline
 70
8
 71
3
 72
8
 73
4
 74
0
 40
0
 40
0
 40
0
 40
0
 40
1
 40
1
 40
1
 40
1
 10
262.180740
 20
-86.334967
 30
0.0
 10
262.180740
 20
-85.672225
 30
0.0
 10
261.643482
 20
-85.134967
 30
0.0
 10
260.980740
 20
-85.134967
 30
0.0
  0
LWPOLYLINE
  5
10f
100
AcDbEntity
  8
0
 62
7
100
AcDbPolyline
 90
2
 70
0
 10
258.311226
 20
-90.260531
 30
0.0
 10
232.657220
 20
-90.260531
 30
0.0
  0
LWPOLYLINE
  5
110
100
AcDbEntity
  8
0
 62
7
100
AcDbPolyline
 90
1
 70
1
 10
260.980740
 20
-85.134967
 30
0.0
  0
SPLINE
  5
111
100
AcDbEntity
  8
0
 62
7
100
AcDbSpline
 70
8
 71
3
 72
8
 73
4
 74
0
 40
0
 40
0
 40
0
 40
0
 40
1
 40
1
 40
1
 40
1
 10
148.839015
 20
-98.032071
 30
0.0
 10
148.176273
 20
-98.032071
 30
0.0
 10
147.639015
 20
-98.569330
 30
0.0
 10
147.639015
 20
-99.232071
 30
0.0
  0
SPLINE
  5
112
100
AcDbEntity
  8
0
 62
7
100
AcDbSpline
 70
8
 71
3
 72
8
 73
4
 74
0
 40
0
 40
0
 40
0
 40
0
 40
1
 40
1
 40
1
 40
1
 10
147.639015
 20
-99.232071
 30
0.0
 10
147.639015
 20
-99.894813
 30
0.0
 10
148.176273
 20
-100.432071
 30
0.0
 10
148.839015
 20
-100.432071
 30
0.0
  0
SPLINE
  5
113
100
AcDbEntity
  8
0
 62
7
100
AcDbSpline
 70
8
 71
3
 72
8
 73
4
 74
0
 40
0
 40
0
 40
0
 40
0
 40
1
 40
1
 40
1
 40
1
 10
148.839015
 20
-100.432071
 30
0.0
 10
149.501756
 20
-100.432071
 30
0.0
 10
150.039015
 20
-99.894813
 30
0.0
 10
150.039015
 20
-99.232071
 30
0.0
  0
SPLINE
  5
114
100
AcDbEntity
  8
0
 62
7
100
AcDbSpline
 70
8
 71
3
 72
8
 73
4
 74
0
 40
0
 40
0
 40
0
 40
0
 40
1
 40
1
 40
1
 40
1
 10
150.039015
 20
-99.232071
 30
0.0
 10
150.039015
 20
-98.913812
 30
0.0
 10
149.912586
 20
-98.608587
 30
0.0
 10
149.687543
 20
-98.383543
 30
0.0
  0
SPLINE
  5
115
100
AcDbEntity
  8
0
 62
7
100
AcDbSpline
 70
8
 71
3
 72
8
 73
4
 74
0
 40
0
 40
0
 40
0
 40
0
 40
1
 40
1
 40
1
 40
1
 10
149.687543
 20
-98.383543
 30
0.0
 10
149.462499
 20
-98.158500
 30
0.0
 10
149.157274
 20
-98.032071
 30
0.0
 10
148.839015
 20
-98.032071
 30
0.0
  0
LWPOLYLINE
  5
116
100
AcDbEntity
  8
0
 62
7
100
AcDbPolyline
 90
2
 70
0
 10
148.837234
 20
-102.071529
 30
0.0
 10
232.657220
 20
-90.260531
 30
0.0
  0
SPLINE
  5
117
100
AcDbEntity
  8
0
 62
7
100
AcDbSpline
 70
8
 71
3
 72
8
 73
4
 74
0
 40
0
 40
0
 40
0
 40
0
 40
1
 40
1
 40
1
 40
1
 10
121.153019
 20
-98.032071
 30
0.0
 10
120.667665
 20
-98.032071
 30
0.0
 10
120.230101
 20
-98.324442
 30
0.0
 10
120.044364
 20
-98.772851
 30
0.0
  0
SPLINE
  5
118
100
AcDbEntity
  8
0
 62
7
100
AcDbSpline
 70
8
 71
3
 72
8
 73
4
 74
0
 40
0
 40
0
 40
0
 40
0
 40
1
 40
1
 40
1
 40
1
 10
120.044364
 20
-98.772851
 30
0.0
 10
119.858627
 20
-99.221261
 30
0.0
 10
119.961294
 20
-99.737402
 30
0.0
 10
120.304491
 20
-100.080600
 30
0.0
  0
SPLINE
  5
119
100
AcDbEntity
  8
0
 62
7
100
AcDbSpline
 70
8
 71
3
 72
8
 73
4
 74
0
 40
0
 40
0
 40
0
 40
0
 40
1
 40
1
 40
1
 40
1
 10
120.304491
 20
-100.080600
 30
0.0
 10
120.647689
 20
-100.423797
 30
0.0
 10
121.163830
 20
-100.526464
 30
0.0
 10
121.612239
 20
-100.340727
 30
0.0
  0
SPLINE
  5
11a
100
AcDbEntity
  8
0
 62
7
100
AcDbSpline
 70
8
 71
3
 72
8
 73
4
 74
0
 40
0
 40
0
 40
0
 40
0
 40
1
 40
1
 40
1
 40
1
 10
121.612239
 20
-100.340727
 30
0.0
 10
122.060649
 20
-100.154990
 30
0.0
 10
122.353019
 20
-99.717426
 30
0.0
 10
122.353019
 20
-99.232071
 30
0.0
  0
SPLINE
  5
11b
100
AcDbEntity
  8
0
 62
7
100
AcDbSpline
 70
8
 71
3
 72
8
 73
4
 74
0
 40
0
 40
0
 40
0
 40
0
 40
1
 40
1
 40
1
 40
1
 10
122.353019
 20
-99.232071
 30
0.0
 10
122.353019
 20
-98.569330
 30
0.0
 10
121.815761
 20
-98.032071
 30
0.0
 10
121.153019
 20
-98.032071
 30
0.0
  0
LWPOLYLINE
  5
11c
100
AcDbEntity
  8
0
 62
7
100
AcDbPolyline
 90
1
 70
1
 10
148.839015
 20
-98.032071
 30
0.0
  0
LWPOLYLINE
  5
11d
100
AcDbEntity
  8
0
 62
7
100
AcDbPolyline
 90
1
 70
1
 10
121.153019
 20
-98.032071
 30
0.0
  0
LWPOLYLINE
  5
11e
100
AcDbEntity
  8
0
 62
7
100
AcDbPolyline
 90
2
 70
0
 10
121.278239
 20
-102.071529
 30
0.0
 10
148.837234
 20
-102.071529
 30
0.0
  0
LWPOLYLINE
  5
11f
100
AcDbEntity
  8
0
 62
7
100
AcDbPolyline
 90
2
 70
0
 10
121.278239
 20
-102.071529
 30
0.0
 10
37.458253
 20
-90.260531
 30
0.0
  0
SPLINE
  5
120
100
AcDbEntity
  8
0
 62
7
100
AcDbSpline
 70
8
 71
3
 72
8
 73
4
 74
0
 40
0
 40
0
 40
0
 40
0
 40
1
 40
1
 40
1
 40
1
 10
5.027140
 20
-83.611066
 30
0.0
 10
5.027140
 20
-85.375021
 30
0.0
 10
5.727869
 20
-87.066729
 30
0.0
 10
6.975176
 20
-88.314032
 30
0.0
  0
SPLINE
  5
121
100
AcDbEntity
  8
0
 62
7
100
AcDbSpline
 70
8
 71
3
 72
8
 73
4
 74
0
 40
0
 40
0
 40
0
 40
0
 40
1
 40
1
 40
1
 40
1
 10
6.975176
 20
-88.314032
 30
0.0
 10
8.222482
 20
-89.561335
 30
0.0
 10
9.914192
 20
-90.262060
 30
0.0
 10
11.678147
 20
-90.262055
 30
0.0
  0
SPLINE
  5
122
100
AcDbEntity
  8
0
 62
7
100
AcDbSpline
 70
8
 71
3
 72
8
 73
4
 74
0
 40
0
 40
0
 40
0
 40
0
 40
1
 40
1
 40
1
 40
1
 10
9.082140
 20
-85.078063
 30
0.0
 10
8.596785
 20
-85.078063
 30
0.0
 10
8.159222
 20
-85.370434
 30
0.0
 10
7.973484
 20
-85.818843
 30
0.0
  0
SPLINE
  5
123
100
AcDbEntity
  8
0
 62
7
100
AcDbSpline
 70
8
 71
3
 72
8
 73
4
 74
0
 40
0
 40
0
 40
0
 40
0
 40
1
 40
1
 40
1
 40
1
 10
7.973484
 20
-85.818843
 30
0.0
 10
7.787747
 20
-86.267253
 30
0.0
 10
7.890414
 20
-86.783394
 30
0.0
 10
8.233612
 20
-87.126592
 30
0.0
  0
SPLINE
  5
124
100
AcDbEntity
  8
0
 62
7
100
AcDbSpline
 70
8
 71
3
 72
8
 73
4
 74
0
 40
0
 40
0
 40
0
 40
0
 40
1
 40
1
 40
1
 40
1
 10
8.233612
 20
-87.126592
 30
0.0
 10
8.576809
 20
-87.469789
 30
0.0
 10
9.092951
 20
-87.572456
 30
0.0
 10
9.541360
 20
-87.386719
 30
0.0
  0
SPLINE
  5
125
100
AcDbEntity
  8
0
 62
7
100
AcDbSpline
 70
8
 71
3
 72
8
 73
4
 74
0
 40
0
 40
0
 40
0
 40
0
 40
1
 40
1
 40
1
 40
1
 10
9.541360
 20
-87.386719
 30
0.0
 10
9.989769
 20
-87.200982
 30
0.0
 10
10.282140
 20
-86.763418
 30
0.0
 10
10.282140
 20
-86.278063
 30
0.0
  0
SPLINE
  5
126
100
AcDbEntity
  8
0
 62
7
100
AcDbSpline
 70
8
 71
3
 72
8
 73
4
 74
0
 40
0
 40
0
 40
0
 40
0
 40
1
 40
1
 40
1
 40
1
 10
10.282140
 20
-86.278063
 30
0.0
 10
10.282140
 20
-85.615322
 30
0.0
 10
9.744882
 20
-85.078063
 30
0.0
 10
9.082140
 20
-85.078063
 30
0.0
  0
LWPOLYLINE
  5
127
100
AcDbEntity
  8
0
 62
7
100
AcDbPolyline
 90
2
 70
0
 10
11.677258
 20
-90.260531
 30
0.0
 10
37.458253
 20
-90.260531
 30
0.0
  0
LWPOLYLINE
  5
128
100
AcDbEntity
  8
0
 62
7
100
AcDbPolyline
 90
1
 70
1
 10
9.082140
 20
-85.078063
 30
0.0
  0
SPLINE
  5
129
100
AcDbEntity
  8
0
 62
7
100
AcDbSpline
 70
8
 71
3
 72
8
 73
4
 74
0
 40
0
 40
0
 40
0
 40
0
 40
1
 40
1
 40
1
 40
1
 10
9.082140
 20
-6.719054
 30
0.0
 10
8.596785
 20
-6.719054
 30
0.0
 10
8.159222
 20
-7.011425
 30
0.0
 10
7.973484
 20
-7.459834
 30
0.0
  0
SPLINE
  5
12a
100
AcDbEntity
  8
0
 62
7
100
AcDbSpline
 70
8
 71
3
 72
8
 73
4
 74
0
 40
0
 40
0
 40
0
 40
0
 40
1
 40
1
 40
1
 40
1
 10
7.973484
 20
-7.459834
 30
0.0
 10
7.787747
 20
-7.908243
 30
0.0
 10
7.890414
 20
-8.424385
 30
0.0
 10
8.233612
 20
-8.767582
 30
0.0
  0
SPLINE
  5
12b
100
AcDbEntity
  8
0
 62
7
100
AcDbSpline
 70
8
 71
3
 72
8
 73
4
 74
0
 40
0
 40
0
 40
0
 40
0
 40
1
 40
1
 40
1
 40
1
 10
8.233612
 20
-8.767582
 30
0.0
 10
8.576809
 20
-9.110780
 30
0.0
 10
9.092951
 20
-9.213447
 30
0.0
 10
9.541360
 20
-9.027710
 30
0.0
  0
SPLINE
  5
12c
100
AcDbEntity
  8
0
 62
7
100
AcDbSpline
 70
8
 71
3
 72
8
 73
4
 74
0
 40
0
 40
0
 40
0
 40
0
 40
1
 40
1
 40
1
 40
1
 10
9.541360
 20
-9.027710
 30
0.0
 10
9.989769
 20
-8.841973
 30
0.0
 10
10.282140
 20
-8.404409
 30
0.0
 10
10.282140
 20
-7.919054
 30
0.0
  0
SPLINE
  5
12d
100
AcDbEntity
  8
0
 62
7
100
AcDbSpline
 70
8
 71
3
 72
8
 73
4
 74
0
 40
0
 40
0
 40
0
 40
0
 40
1
 40
1
 40
1
 40
1
 10
10.282140
 20
-7.919054
 30
0.0
 10
10.282140
 20
-7.256313
 30
0.0
 10
9.744882
 20
-6.719054
 30
0.0
 10
9.082140
 20
-6.719054
 30
0.0
  0
LWPOLYLINE
  5
12e
100
AcDbEntity
  8
0
 62
7
100
AcDbPolyline
 90
2
 70
0
 10
5.024999
 20
-10.639165
 30
0.0
 10
5.024999
 20
-83.610812
 30
0.0
  0
SPLINE
  5
12f
100
AcDbEntity
  8
0
 62
7
100
AcDbSpline
 70
8
 71
3
 72
8
 73
4
 74
0
 40
0
 40
0
 40
0
 40
0
 40
1
 40
1
 40
1
 40
1
 10
11.678147
 20
-3.989047
 30
0.0
 10
9.914188
 20
-3.989043
 30
0.0
 10
8.222476
 20
-4.689770
 30
0.0
 10
6.975169
 20
-5.937077
 30
0.0
  0
SPLINE
  5
130
100
AcDbEntity
  8
0
 62
7
100
AcDbSpline
 70
8
 71
3
 72
8
 73
4
 74
0
 40
0
 40
0
 40
0
 40
0
 40
1
 40
1
 40
1
 40
1
 10
6.975169
 20
-5.937077
 30
0.0
 10
5.727862
 20
-7.184384
 30
0.0
 10
5.027135
 20
-8.876096
 30
0.0
 10
5.027140
 20
-10.640054
 30
0.0
  0
SPLINE
  5
131
100
AcDbEntity
  8
0
 62
7
100
AcDbSpline
 70
8
 71
3
 72
8
 73
4
 74
0
 40
0
 40
0
 40
0
 40
0
 40
1
 40
1
 40
1
 40
1
 10
148.839015
 20
-5.322055
 30
0.0
 10
148.176273
 20
-5.322055
 30
0.0
 10
147.639015
 20
-5.859313
 30
0.0
 10
147.639015
 20
-6.522055
 30
0.0
  0
SPLINE
  5
132
100
AcDbEntity
  8
0
 62
7
100
AcDbSpline
 70
8
 71
3
 72
8
 73
4
 74
0
 40
0
 40
0
 40
0
 40
0
 40
1
 40
1
 40
1
 40
1
 10
147.639015
 20
-6.522055
 30
0.0
 10
147.639015
 20
-7.184796
 30
0.0
 10
148.176273
 20
-7.722055
 30
0.0
 10
148.839015
 20
-7.722055
 30
0.0
  0
SPLINE
  5
133
100
AcDbEntity
  8
0
 62
7
100
AcDbSpline
 70
8
 71
3
 72
8
 73
4
 74
0
 40
0
 40
0
 40
0
 40
0
 40
1
 40
1
 40
1
 40
1
 10
148.839015
 20
-7.722055
 30
0.0
 10
149.501756
 20
-7.722055
 30
0.0
 10
150.039015
 20
-7.184796
 30
0.0
 10
150.039015
 20
-6.522055
 30
0.0
  0
SPLINE
  5
134
100
AcDbEntity
  8
0
 62
7
100
AcDbSpline
 70
8
 71
3
 72
8
 73
4
 74
0
 40
0
 40
0
 40
0
 40
0
 40
1
 40
1
 40
1
 40
1
 10
150.039015
 20
-6.522055
 30
0.0
 10
150.039015
 20
-6.203795
 30
0.0
 10
149.912586
 20
-5.898570
 30
0.0
 10
149.687543
 20
-5.673526
 30
0.0
  0
SPLINE
  5
135
100
AcDbEntity
  8
0
 62
7
100
AcDbSpline
 70
8
 71
3
 72
8
 73
4
 74
0
 40
0
 40
0
 40
0
 40
0
 40
1
 40
1
 40
1
 40
1
 10
149.687543
 20
-5.673526
 30
0.0
 10
149.462499
 20
-5.448483
 30
0.0
 10
149.157274
 20
-5.322055
 30
0.0
 10
148.839015
 20
-5.322055
 30
0.0
  0
LWPOLYLINE
  5
136
100
AcDbEntity
  8
0
 62
7
100
AcDbPolyline
 90
1
 70
1
 10
9.082140
 20
-6.719054
 30
0.0
  0
SPLINE
  5
137
100
AcDbEntity
  8
0
 62
7
100
AcDbSpline
 70
8
 71
3
 72
8
 73
4
 74
0
 40
0
 40
0
 40
0
 40
0
 40
1
 40
1
 40
1
 40
1
 10
121.153019
 20
-5.322055
 30
0.0
 10
120.667665
 20
-5.322055
 30
0.0
 10
120.230101
 20
-5.614425
 30
0.0
 10
120.044364
 20
-6.062834
 30
0.0
  0
SPLINE
  5
138
100
AcDbEntity
  8
0
 62
7
100
AcDbSpline
 70
8
 71
3
 72
8
 73
4
 74
0
 40
0
 40
0
 40
0
 40
0
 40
1
 40
1
 40
1
 40
1
 10
120.044364
 20
-6.062834
 30
0.0
 10
119.858627
 20
-6.511244
 30
0.0
 10
119.961294
 20
-7.027385
 30
0.0
 10
120.304491
 20
-7.370583
 30
0.0
  0
SPLINE
  5
139
100
AcDbEntity
  8
0
 62
7
100
AcDbSpline
 70
8
 71
3
 72
8
 73
4
 74
0
 40
0
 40
0
 40
0
 40
0
 40
1
 40
1
 40
1
 40
1
 10
120.304491
 20
-7.370583
 30
0.0
 10
120.647689
 20
-7.713780
 30
0.0
 10
121.163830
 20
-7.816447
 30
0.0
 10
121.612239
 20
-7.630710
 30
0.0
  0
SPLINE
  5
13a
100
AcDbEntity
  8
0
 62
7
100
AcDbSpline
 70
8
 71
3
 72
8
 73
4
 74
0
 40
0
 40
0
 40
0
 40
0
 40
1
 40
1
 40
1
 40
1
 10
121.612239
 20
-7.630710
 30
0.0
 10
122.060649
 20
-7.444973
 30
0.0
 10
122.353019
 20
-7.007409
 30
0.0
 10
122.353019
 20
-6.522055
 30
0.0
  0
SPLINE
  5
13b
100
AcDbEntity
  8
0
 62
7
100
AcDbSpline
 70
8
 71
3
 72
8
 73
4
 74
0
 40
0
 40
0
 40
0
 40
0
 40
1
 40
1
 40
1
 40
1
 10
122.353019
 20
-6.522055
 30
0.0
 10
122.353019
 20
-5.859313
 30
0.0
 10
121.815761
 20
-5.322055
 30
0.0
 10
121.153019
 20
-5.322055
 30
0.0
  0
LWPOLYLINE
  5
13c
100
AcDbEntity
  8
0
 62
7
100
AcDbPolyline
 90
1
 70
1
 10
148.839015
 20
-5.322055
 30
0.0
  0
LWPOLYLINE
  5
13d
100
AcDbEntity
  8
0
 62
7
100
AcDbPolyline
 90
1
 70
1
 10
121.153019
 20
-5.322055
 30
0.0
  0
ENDSEC
  0
SECTION
  2
OBJECTS
  0
DICTIONARY
  5
C
330
0
100
AcDbDictionary
  3
ACAD_GROUP
350
D
  3
ACAD_MLINESTYLE
350
17
  0
DICTIONARY
  5
D
330
C
100
AcDbDictionary
  0
DICTIONARY
  5
1A
330
C
100
AcDbDictionary
  0
DICTIONARY
  5
17
330
C
100
AcDbDictionary
  3
STANDARD
350
18
  0
DICTIONARY
  5
19
330
C
100
AcDbDictionary
  0
ENDSEC
  0
EOF
