G04 #@! TF.GenerationSoftware,KiCad,Pcbnew,5.1.9-73d0e3b20d~88~ubuntu20.04.1*
G04 #@! TF.CreationDate,2021-04-21T09:56:19-07:00*
G04 #@! TF.ProjectId,test1,74657374-312e-46b6-9963-61645f706362,rev?*
G04 #@! TF.SameCoordinates,Original*
G04 #@! TF.FileFunction,Soldermask,Bot*
G04 #@! TF.FilePolarity,Negative*
%FSLAX46Y46*%
G04 Gerber Fmt 4.6, Leading zero omitted, Abs format (unit mm)*
G04 Created by KiCad (PCBNEW 5.1.9-73d0e3b20d~88~ubuntu20.04.1) date 2021-04-21 09:56:19*
%MOMM*%
%LPD*%
G01*
G04 APERTURE LIST*
%ADD10C,4.000000*%
%ADD11C,2.200000*%
%ADD12C,2.000000*%
%ADD13R,0.600000X2.450000*%
%ADD14R,0.300000X2.450000*%
%ADD15C,0.650000*%
%ADD16R,1.500000X0.550000*%
%ADD17R,0.550000X1.500000*%
%ADD18R,0.700000X1.000000*%
%ADD19R,0.700000X0.600000*%
%ADD20R,1.800000X2.100000*%
%ADD21R,1.800000X1.100000*%
%ADD22R,1.700000X1.700000*%
%ADD23C,1.700000*%
%ADD24R,1.200000X0.900000*%
G04 APERTURE END LIST*
D10*
X226240646Y-99148087D03*
D11*
X222114225Y-97163056D03*
X228048928Y-93764026D03*
D10*
X69190152Y-99173197D03*
D11*
X65770730Y-96127667D03*
X72412432Y-94496135D03*
D12*
G36*
X219077289Y-99049077D02*
G01*
X217888967Y-99216084D01*
X217763711Y-98324843D01*
X218952033Y-98157836D01*
X219077289Y-99049077D01*
G37*
G36*
X219536561Y-102316961D02*
G01*
X218348239Y-102483968D01*
X218222983Y-101592727D01*
X219411305Y-101425720D01*
X219536561Y-102316961D01*
G37*
G36*
X62483169Y-97193182D02*
G01*
X61294847Y-97026175D01*
X61420103Y-96134934D01*
X62608425Y-96301941D01*
X62483169Y-97193182D01*
G37*
G36*
X62023897Y-100461066D02*
G01*
X60835575Y-100294059D01*
X60960831Y-99402818D01*
X62149153Y-99569825D01*
X62023897Y-100461066D01*
G37*
G36*
G01*
X149769500Y-88703999D02*
X149769500Y-89604001D01*
G75*
G02*
X149519501Y-89854000I-249999J0D01*
G01*
X148869499Y-89854000D01*
G75*
G02*
X148619500Y-89604001I0J249999D01*
G01*
X148619500Y-88703999D01*
G75*
G02*
X148869499Y-88454000I249999J0D01*
G01*
X149519501Y-88454000D01*
G75*
G02*
X149769500Y-88703999I0J-249999D01*
G01*
G37*
G36*
G01*
X151819500Y-88703999D02*
X151819500Y-89604001D01*
G75*
G02*
X151569501Y-89854000I-249999J0D01*
G01*
X150919499Y-89854000D01*
G75*
G02*
X150669500Y-89604001I0J249999D01*
G01*
X150669500Y-88703999D01*
G75*
G02*
X150919499Y-88454000I249999J0D01*
G01*
X151569501Y-88454000D01*
G75*
G02*
X151819500Y-88703999I0J-249999D01*
G01*
G37*
D10*
X161690949Y-50507304D03*
D11*
X157564528Y-48522273D03*
X163499231Y-45123243D03*
D10*
X32353250Y-96615250D03*
D11*
X28543250Y-94075250D03*
X34893250Y-91535250D03*
D10*
X32353250Y-39465250D03*
D11*
X28543250Y-36925250D03*
X34893250Y-34385250D03*
D13*
X150925000Y-38167000D03*
X144475000Y-38167000D03*
X150150000Y-38167000D03*
X145250000Y-38167000D03*
D14*
X145950000Y-38167000D03*
X149450000Y-38167000D03*
X146450000Y-38167000D03*
X148950000Y-38167000D03*
X146950000Y-38167000D03*
X148450000Y-38167000D03*
X147950000Y-38167000D03*
X147450000Y-38167000D03*
D15*
X150590000Y-36222000D03*
X144810000Y-36222000D03*
D10*
X54829279Y-40294388D03*
D11*
X51205742Y-37494803D03*
X57717455Y-35403944D03*
G36*
G01*
X140139000Y-90711000D02*
X140139000Y-91661000D01*
G75*
G02*
X139889000Y-91911000I-250000J0D01*
G01*
X139214000Y-91911000D01*
G75*
G02*
X138964000Y-91661000I0J250000D01*
G01*
X138964000Y-90711000D01*
G75*
G02*
X139214000Y-90461000I250000J0D01*
G01*
X139889000Y-90461000D01*
G75*
G02*
X140139000Y-90711000I0J-250000D01*
G01*
G37*
G36*
G01*
X142214000Y-90711000D02*
X142214000Y-91661000D01*
G75*
G02*
X141964000Y-91911000I-250000J0D01*
G01*
X141289000Y-91911000D01*
G75*
G02*
X141039000Y-91661000I0J250000D01*
G01*
X141039000Y-90711000D01*
G75*
G02*
X141289000Y-90461000I250000J0D01*
G01*
X141964000Y-90461000D01*
G75*
G02*
X142214000Y-90711000I0J-250000D01*
G01*
G37*
G36*
G01*
X152236500Y-107536000D02*
X152236500Y-106586000D01*
G75*
G02*
X152486500Y-106336000I250000J0D01*
G01*
X153161500Y-106336000D01*
G75*
G02*
X153411500Y-106586000I0J-250000D01*
G01*
X153411500Y-107536000D01*
G75*
G02*
X153161500Y-107786000I-250000J0D01*
G01*
X152486500Y-107786000D01*
G75*
G02*
X152236500Y-107536000I0J250000D01*
G01*
G37*
G36*
G01*
X150161500Y-107536000D02*
X150161500Y-106586000D01*
G75*
G02*
X150411500Y-106336000I250000J0D01*
G01*
X151086500Y-106336000D01*
G75*
G02*
X151336500Y-106586000I0J-250000D01*
G01*
X151336500Y-107536000D01*
G75*
G02*
X151086500Y-107786000I-250000J0D01*
G01*
X150411500Y-107786000D01*
G75*
G02*
X150161500Y-107536000I0J250000D01*
G01*
G37*
D16*
X141732000Y-95187000D03*
X141732000Y-95987000D03*
X141732000Y-96787000D03*
X141732000Y-97587000D03*
X141732000Y-98387000D03*
X141732000Y-99187000D03*
X141732000Y-99987000D03*
X141732000Y-100787000D03*
X141732000Y-101587000D03*
X141732000Y-102387000D03*
X141732000Y-103187000D03*
D17*
X143432000Y-104887000D03*
X144232000Y-104887000D03*
X145032000Y-104887000D03*
X145832000Y-104887000D03*
X146632000Y-104887000D03*
X147432000Y-104887000D03*
X148232000Y-104887000D03*
X149032000Y-104887000D03*
X149832000Y-104887000D03*
X150632000Y-104887000D03*
X151432000Y-104887000D03*
D16*
X153132000Y-103187000D03*
X153132000Y-102387000D03*
X153132000Y-101587000D03*
X153132000Y-100787000D03*
X153132000Y-99987000D03*
X153132000Y-99187000D03*
X153132000Y-98387000D03*
X153132000Y-97587000D03*
X153132000Y-96787000D03*
X153132000Y-95987000D03*
X153132000Y-95187000D03*
D17*
X151432000Y-93487000D03*
X150632000Y-93487000D03*
X149832000Y-93487000D03*
X149032000Y-93487000D03*
X148232000Y-93487000D03*
X147432000Y-93487000D03*
X146632000Y-93487000D03*
X145832000Y-93487000D03*
X145032000Y-93487000D03*
X144232000Y-93487000D03*
X143432000Y-93487000D03*
G36*
G01*
X143545000Y-107511001D02*
X143545000Y-106610999D01*
G75*
G02*
X143794999Y-106361000I249999J0D01*
G01*
X144495001Y-106361000D01*
G75*
G02*
X144745000Y-106610999I0J-249999D01*
G01*
X144745000Y-107511001D01*
G75*
G02*
X144495001Y-107761000I-249999J0D01*
G01*
X143794999Y-107761000D01*
G75*
G02*
X143545000Y-107511001I0J249999D01*
G01*
G37*
G36*
G01*
X141545000Y-107511001D02*
X141545000Y-106610999D01*
G75*
G02*
X141794999Y-106361000I249999J0D01*
G01*
X142495001Y-106361000D01*
G75*
G02*
X142745000Y-106610999I0J-249999D01*
G01*
X142745000Y-107511001D01*
G75*
G02*
X142495001Y-107761000I-249999J0D01*
G01*
X141794999Y-107761000D01*
G75*
G02*
X141545000Y-107511001I0J249999D01*
G01*
G37*
D10*
X32353250Y-58515250D03*
D11*
X28543250Y-55975250D03*
X34893250Y-53435250D03*
D18*
X149209000Y-42557000D03*
D19*
X147209000Y-42357000D03*
X149209000Y-44257000D03*
X147209000Y-44257000D03*
D20*
X162383500Y-99324750D03*
X162383500Y-96424750D03*
X160083500Y-96424750D03*
X160083500Y-99324750D03*
D21*
X176899500Y-90225000D03*
X170699500Y-90225000D03*
X176899500Y-93925000D03*
X170699500Y-93925000D03*
G36*
G01*
X141602000Y-42094999D02*
X141602000Y-42995001D01*
G75*
G02*
X141352001Y-43245000I-249999J0D01*
G01*
X140651999Y-43245000D01*
G75*
G02*
X140402000Y-42995001I0J249999D01*
G01*
X140402000Y-42094999D01*
G75*
G02*
X140651999Y-41845000I249999J0D01*
G01*
X141352001Y-41845000D01*
G75*
G02*
X141602000Y-42094999I0J-249999D01*
G01*
G37*
G36*
G01*
X143602000Y-42094999D02*
X143602000Y-42995001D01*
G75*
G02*
X143352001Y-43245000I-249999J0D01*
G01*
X142651999Y-43245000D01*
G75*
G02*
X142402000Y-42995001I0J249999D01*
G01*
X142402000Y-42094999D01*
G75*
G02*
X142651999Y-41845000I249999J0D01*
G01*
X143352001Y-41845000D01*
G75*
G02*
X143602000Y-42094999I0J-249999D01*
G01*
G37*
G36*
G01*
X155213000Y-42995001D02*
X155213000Y-42094999D01*
G75*
G02*
X155462999Y-41845000I249999J0D01*
G01*
X156163001Y-41845000D01*
G75*
G02*
X156413000Y-42094999I0J-249999D01*
G01*
X156413000Y-42995001D01*
G75*
G02*
X156163001Y-43245000I-249999J0D01*
G01*
X155462999Y-43245000D01*
G75*
G02*
X155213000Y-42995001I0J249999D01*
G01*
G37*
G36*
G01*
X153213000Y-42995001D02*
X153213000Y-42094999D01*
G75*
G02*
X153462999Y-41845000I249999J0D01*
G01*
X154163001Y-41845000D01*
G75*
G02*
X154413000Y-42094999I0J-249999D01*
G01*
X154413000Y-42995001D01*
G75*
G02*
X154163001Y-43245000I-249999J0D01*
G01*
X153462999Y-43245000D01*
G75*
G02*
X153213000Y-42995001I0J249999D01*
G01*
G37*
G36*
G01*
X146754001Y-85594750D02*
X145853999Y-85594750D01*
G75*
G02*
X145604000Y-85344751I0J249999D01*
G01*
X145604000Y-84644749D01*
G75*
G02*
X145853999Y-84394750I249999J0D01*
G01*
X146754001Y-84394750D01*
G75*
G02*
X147004000Y-84644749I0J-249999D01*
G01*
X147004000Y-85344751D01*
G75*
G02*
X146754001Y-85594750I-249999J0D01*
G01*
G37*
G36*
G01*
X146754001Y-87594750D02*
X145853999Y-87594750D01*
G75*
G02*
X145604000Y-87344751I0J249999D01*
G01*
X145604000Y-86644749D01*
G75*
G02*
X145853999Y-86394750I249999J0D01*
G01*
X146754001Y-86394750D01*
G75*
G02*
X147004000Y-86644749I0J-249999D01*
G01*
X147004000Y-87344751D01*
G75*
G02*
X146754001Y-87594750I-249999J0D01*
G01*
G37*
G36*
G01*
X144849001Y-85594750D02*
X143948999Y-85594750D01*
G75*
G02*
X143699000Y-85344751I0J249999D01*
G01*
X143699000Y-84644749D01*
G75*
G02*
X143948999Y-84394750I249999J0D01*
G01*
X144849001Y-84394750D01*
G75*
G02*
X145099000Y-84644749I0J-249999D01*
G01*
X145099000Y-85344751D01*
G75*
G02*
X144849001Y-85594750I-249999J0D01*
G01*
G37*
G36*
G01*
X144849001Y-87594750D02*
X143948999Y-87594750D01*
G75*
G02*
X143699000Y-87344751I0J249999D01*
G01*
X143699000Y-86644749D01*
G75*
G02*
X143948999Y-86394750I249999J0D01*
G01*
X144849001Y-86394750D01*
G75*
G02*
X145099000Y-86644749I0J-249999D01*
G01*
X145099000Y-87344751D01*
G75*
G02*
X144849001Y-87594750I-249999J0D01*
G01*
G37*
G36*
G01*
X160343001Y-87611000D02*
X159442999Y-87611000D01*
G75*
G02*
X159193000Y-87361001I0J249999D01*
G01*
X159193000Y-86660999D01*
G75*
G02*
X159442999Y-86411000I249999J0D01*
G01*
X160343001Y-86411000D01*
G75*
G02*
X160593000Y-86660999I0J-249999D01*
G01*
X160593000Y-87361001D01*
G75*
G02*
X160343001Y-87611000I-249999J0D01*
G01*
G37*
G36*
G01*
X160343001Y-89611000D02*
X159442999Y-89611000D01*
G75*
G02*
X159193000Y-89361001I0J249999D01*
G01*
X159193000Y-88660999D01*
G75*
G02*
X159442999Y-88411000I249999J0D01*
G01*
X160343001Y-88411000D01*
G75*
G02*
X160593000Y-88660999I0J-249999D01*
G01*
X160593000Y-89361001D01*
G75*
G02*
X160343001Y-89611000I-249999J0D01*
G01*
G37*
D10*
X263144000Y-96615250D03*
D11*
X259334000Y-94075250D03*
X265684000Y-91535250D03*
D10*
X207373904Y-101798629D03*
D11*
X203247483Y-99813598D03*
X209182186Y-96414568D03*
D10*
X188509299Y-104449876D03*
D11*
X184382878Y-102464845D03*
X190317581Y-99065815D03*
D10*
X169644692Y-107101124D03*
D11*
X165518271Y-105116093D03*
X171452974Y-101717063D03*
D10*
X125809720Y-107134312D03*
D11*
X122390298Y-104088782D03*
X129032000Y-102457250D03*
D10*
X106920617Y-104475799D03*
D11*
X103501195Y-101430269D03*
X110142897Y-99798737D03*
D10*
X88056011Y-101824551D03*
D11*
X84636589Y-98779021D03*
X91278291Y-97147489D03*
D10*
X263112250Y-77565250D03*
D11*
X259302250Y-75025250D03*
X265652250Y-72485250D03*
D10*
X243318797Y-78216576D03*
D11*
X239340897Y-75948535D03*
X245498247Y-72971769D03*
D10*
X223587263Y-80282774D03*
D11*
X219460842Y-78297743D03*
X225395545Y-74898713D03*
D10*
X204735906Y-82938471D03*
D11*
X200609485Y-80953440D03*
X206544188Y-77554410D03*
D10*
X185858051Y-85585269D03*
D11*
X181731630Y-83600238D03*
X187666333Y-80201208D03*
D10*
X166993444Y-88236517D03*
D11*
X162867023Y-86251486D03*
X168801726Y-82852456D03*
D10*
X128436472Y-88262439D03*
D11*
X125017050Y-85216909D03*
X131658752Y-83585377D03*
D10*
X109571865Y-85611192D03*
D11*
X106152443Y-82565662D03*
X112794145Y-80934130D03*
D10*
X90707258Y-82959944D03*
D11*
X87287836Y-79914414D03*
X93929538Y-78282882D03*
D10*
X71842652Y-80308697D03*
D11*
X68423230Y-77263167D03*
X75064932Y-75631635D03*
D10*
X52171558Y-78301578D03*
D11*
X48548021Y-75501993D03*
X55059734Y-73411134D03*
D10*
X32353250Y-77565250D03*
D11*
X28543250Y-75025250D03*
X34893250Y-72485250D03*
D10*
X263112250Y-58515250D03*
D11*
X259302250Y-55975250D03*
X265652250Y-53435250D03*
D10*
X241989936Y-59212981D03*
D11*
X238012036Y-56944940D03*
X244169386Y-53968174D03*
D10*
X220936017Y-61418168D03*
D11*
X216809596Y-59433137D03*
X222744299Y-56034107D03*
D10*
X202083788Y-64067675D03*
D11*
X197957367Y-62082644D03*
X203892070Y-58683614D03*
D10*
X183206803Y-66720662D03*
D11*
X179080382Y-64735631D03*
X185015085Y-61336601D03*
D10*
X164342198Y-69371910D03*
D11*
X160215777Y-67386879D03*
X166150480Y-63987849D03*
D10*
X131087719Y-69397833D03*
D11*
X127668297Y-66352303D03*
X134309999Y-64720771D03*
D10*
X112223113Y-66746585D03*
D11*
X108803691Y-63701055D03*
X115445393Y-62069523D03*
D10*
X93358506Y-64095338D03*
D11*
X89939084Y-61049808D03*
X96580786Y-59418276D03*
D10*
X74493899Y-61444090D03*
D11*
X71074477Y-58398560D03*
X77716179Y-56767028D03*
D10*
X53500418Y-59297983D03*
D11*
X49876881Y-56498398D03*
X56388594Y-54407539D03*
D10*
X263112250Y-39465250D03*
D11*
X259302250Y-36925250D03*
X265652250Y-34385250D03*
D10*
X240661075Y-40209386D03*
D11*
X236683175Y-37941345D03*
X242840525Y-34964579D03*
D10*
X218284770Y-42553561D03*
D11*
X214158349Y-40568530D03*
X220093052Y-37169500D03*
D10*
X199433411Y-45209258D03*
D11*
X195306990Y-43224227D03*
X201241693Y-39825197D03*
D10*
X180568804Y-47860505D03*
D11*
X176442383Y-45875474D03*
X182377086Y-42476444D03*
D10*
X133738967Y-50533226D03*
D11*
X130319545Y-47487696D03*
X136961247Y-45856164D03*
D10*
X114874360Y-47881978D03*
D11*
X111454938Y-44836448D03*
X118096640Y-43204916D03*
D10*
X96009753Y-45230731D03*
D11*
X92590331Y-42185201D03*
X99232033Y-40553669D03*
D10*
X77145147Y-42579483D03*
D11*
X73725725Y-39533953D03*
X80367427Y-37902421D03*
D22*
X152908000Y-74549000D03*
D23*
X152908000Y-77089000D03*
X155448000Y-74549000D03*
X155448000Y-77089000D03*
X157988000Y-74549000D03*
X157988000Y-77089000D03*
G36*
G01*
X140960000Y-48120000D02*
X139710000Y-48120000D01*
G75*
G02*
X139460000Y-47870000I0J250000D01*
G01*
X139460000Y-46945000D01*
G75*
G02*
X139710000Y-46695000I250000J0D01*
G01*
X140960000Y-46695000D01*
G75*
G02*
X141210000Y-46945000I0J-250000D01*
G01*
X141210000Y-47870000D01*
G75*
G02*
X140960000Y-48120000I-250000J0D01*
G01*
G37*
G36*
G01*
X140960000Y-51095000D02*
X139710000Y-51095000D01*
G75*
G02*
X139460000Y-50845000I0J250000D01*
G01*
X139460000Y-49920000D01*
G75*
G02*
X139710000Y-49670000I250000J0D01*
G01*
X140960000Y-49670000D01*
G75*
G02*
X141210000Y-49920000I0J-250000D01*
G01*
X141210000Y-50845000D01*
G75*
G02*
X140960000Y-51095000I-250000J0D01*
G01*
G37*
G36*
G01*
X164117000Y-93668000D02*
X165067000Y-93668000D01*
G75*
G02*
X165317000Y-93918000I0J-250000D01*
G01*
X165317000Y-94593000D01*
G75*
G02*
X165067000Y-94843000I-250000J0D01*
G01*
X164117000Y-94843000D01*
G75*
G02*
X163867000Y-94593000I0J250000D01*
G01*
X163867000Y-93918000D01*
G75*
G02*
X164117000Y-93668000I250000J0D01*
G01*
G37*
G36*
G01*
X164117000Y-91593000D02*
X165067000Y-91593000D01*
G75*
G02*
X165317000Y-91843000I0J-250000D01*
G01*
X165317000Y-92518000D01*
G75*
G02*
X165067000Y-92768000I-250000J0D01*
G01*
X164117000Y-92768000D01*
G75*
G02*
X163867000Y-92518000I0J250000D01*
G01*
X163867000Y-91843000D01*
G75*
G02*
X164117000Y-91593000I250000J0D01*
G01*
G37*
G36*
G01*
X139286000Y-101636500D02*
X138336000Y-101636500D01*
G75*
G02*
X138086000Y-101386500I0J250000D01*
G01*
X138086000Y-100711500D01*
G75*
G02*
X138336000Y-100461500I250000J0D01*
G01*
X139286000Y-100461500D01*
G75*
G02*
X139536000Y-100711500I0J-250000D01*
G01*
X139536000Y-101386500D01*
G75*
G02*
X139286000Y-101636500I-250000J0D01*
G01*
G37*
G36*
G01*
X139286000Y-103711500D02*
X138336000Y-103711500D01*
G75*
G02*
X138086000Y-103461500I0J250000D01*
G01*
X138086000Y-102786500D01*
G75*
G02*
X138336000Y-102536500I250000J0D01*
G01*
X139286000Y-102536500D01*
G75*
G02*
X139536000Y-102786500I0J-250000D01*
G01*
X139536000Y-103461500D01*
G75*
G02*
X139286000Y-103711500I-250000J0D01*
G01*
G37*
G36*
G01*
X165909500Y-96899750D02*
X165909500Y-95949750D01*
G75*
G02*
X166159500Y-95699750I250000J0D01*
G01*
X166834500Y-95699750D01*
G75*
G02*
X167084500Y-95949750I0J-250000D01*
G01*
X167084500Y-96899750D01*
G75*
G02*
X166834500Y-97149750I-250000J0D01*
G01*
X166159500Y-97149750D01*
G75*
G02*
X165909500Y-96899750I0J250000D01*
G01*
G37*
G36*
G01*
X163834500Y-96899750D02*
X163834500Y-95949750D01*
G75*
G02*
X164084500Y-95699750I250000J0D01*
G01*
X164759500Y-95699750D01*
G75*
G02*
X165009500Y-95949750I0J-250000D01*
G01*
X165009500Y-96899750D01*
G75*
G02*
X164759500Y-97149750I-250000J0D01*
G01*
X164084500Y-97149750D01*
G75*
G02*
X163834500Y-96899750I0J250000D01*
G01*
G37*
G36*
G01*
X165889000Y-99884250D02*
X165889000Y-98934250D01*
G75*
G02*
X166139000Y-98684250I250000J0D01*
G01*
X166814000Y-98684250D01*
G75*
G02*
X167064000Y-98934250I0J-250000D01*
G01*
X167064000Y-99884250D01*
G75*
G02*
X166814000Y-100134250I-250000J0D01*
G01*
X166139000Y-100134250D01*
G75*
G02*
X165889000Y-99884250I0J250000D01*
G01*
G37*
G36*
G01*
X163814000Y-99884250D02*
X163814000Y-98934250D01*
G75*
G02*
X164064000Y-98684250I250000J0D01*
G01*
X164739000Y-98684250D01*
G75*
G02*
X164989000Y-98934250I0J-250000D01*
G01*
X164989000Y-99884250D01*
G75*
G02*
X164739000Y-100134250I-250000J0D01*
G01*
X164064000Y-100134250D01*
G75*
G02*
X163814000Y-99884250I0J250000D01*
G01*
G37*
D24*
X255397000Y-94965250D03*
X255397000Y-98265250D03*
D12*
G36*
X200053823Y-101294987D02*
G01*
X198865501Y-101461994D01*
X198740245Y-100570753D01*
X199928567Y-100403746D01*
X200053823Y-101294987D01*
G37*
G36*
X200513095Y-104562871D02*
G01*
X199324773Y-104729878D01*
X199199517Y-103838637D01*
X200387839Y-103671630D01*
X200513095Y-104562871D01*
G37*
G36*
X181189217Y-103946234D02*
G01*
X180000895Y-104113241D01*
X179875639Y-103222000D01*
X181063961Y-103054993D01*
X181189217Y-103946234D01*
G37*
G36*
X181648489Y-107214118D02*
G01*
X180460167Y-107381125D01*
X180334911Y-106489884D01*
X181523233Y-106322877D01*
X181648489Y-107214118D01*
G37*
G36*
X162324610Y-106597482D02*
G01*
X161136288Y-106764489D01*
X161011032Y-105873248D01*
X162199354Y-105706241D01*
X162324610Y-106597482D01*
G37*
G36*
X162783882Y-109865366D02*
G01*
X161595560Y-110032373D01*
X161470304Y-109141132D01*
X162658626Y-108974125D01*
X162783882Y-109865366D01*
G37*
G36*
X118998169Y-104527432D02*
G01*
X117809847Y-104360425D01*
X117935103Y-103469184D01*
X119123425Y-103636191D01*
X118998169Y-104527432D01*
G37*
G36*
X118538897Y-107795316D02*
G01*
X117350575Y-107628309D01*
X117475831Y-106737068D01*
X118664153Y-106904075D01*
X118538897Y-107795316D01*
G37*
G36*
X100022926Y-101973978D02*
G01*
X98834604Y-101806971D01*
X98959860Y-100915730D01*
X100148182Y-101082737D01*
X100022926Y-101973978D01*
G37*
G36*
X99563654Y-105241862D02*
G01*
X98375332Y-105074855D01*
X98500588Y-104183614D01*
X99688910Y-104350621D01*
X99563654Y-105241862D01*
G37*
G36*
X81158319Y-99322730D02*
G01*
X79969997Y-99155723D01*
X80095253Y-98264482D01*
X81283575Y-98431489D01*
X81158319Y-99322730D01*
G37*
G36*
X80699047Y-102590614D02*
G01*
X79510725Y-102423607D01*
X79635981Y-101532366D01*
X80824303Y-101699373D01*
X80699047Y-102590614D01*
G37*
D24*
X24574500Y-94647750D03*
X24574500Y-97947750D03*
X255333500Y-75597750D03*
X255333500Y-78897750D03*
D12*
G36*
X236051679Y-77203536D02*
G01*
X234854602Y-77287244D01*
X234791821Y-76389436D01*
X235988898Y-76305728D01*
X236051679Y-77203536D01*
G37*
G36*
X236281875Y-80495498D02*
G01*
X235084798Y-80579206D01*
X235022017Y-79681398D01*
X236219094Y-79597690D01*
X236281875Y-80495498D01*
G37*
G36*
X216315767Y-79705757D02*
G01*
X215127445Y-79872764D01*
X215002189Y-78981523D01*
X216190511Y-78814516D01*
X216315767Y-79705757D01*
G37*
G36*
X216775039Y-82973641D02*
G01*
X215586717Y-83140648D01*
X215461461Y-82249407D01*
X216649783Y-82082400D01*
X216775039Y-82973641D01*
G37*
G36*
X197402577Y-82430380D02*
G01*
X196214255Y-82597387D01*
X196088999Y-81706146D01*
X197277321Y-81539139D01*
X197402577Y-82430380D01*
G37*
G36*
X197861849Y-85698264D02*
G01*
X196673527Y-85865271D01*
X196548271Y-84974030D01*
X197736593Y-84807023D01*
X197861849Y-85698264D01*
G37*
G36*
X178537969Y-85081627D02*
G01*
X177349647Y-85248634D01*
X177224391Y-84357393D01*
X178412713Y-84190386D01*
X178537969Y-85081627D01*
G37*
G36*
X178997241Y-88349511D02*
G01*
X177808919Y-88516518D01*
X177683663Y-87625277D01*
X178871985Y-87458270D01*
X178997241Y-88349511D01*
G37*
G36*
X160506211Y-83076883D02*
G01*
X161694533Y-82909876D01*
X161819789Y-83801117D01*
X160631467Y-83968124D01*
X160506211Y-83076883D01*
G37*
G36*
X160046939Y-79808999D02*
G01*
X161235261Y-79641992D01*
X161360517Y-80533233D01*
X160172195Y-80700240D01*
X160046939Y-79808999D01*
G37*
G36*
X121538780Y-85760619D02*
G01*
X120350458Y-85593612D01*
X120475714Y-84702371D01*
X121664036Y-84869378D01*
X121538780Y-85760619D01*
G37*
G36*
X121079508Y-89028503D02*
G01*
X119891186Y-88861496D01*
X120016442Y-87970255D01*
X121204764Y-88137262D01*
X121079508Y-89028503D01*
G37*
G36*
X102674174Y-83109371D02*
G01*
X101485852Y-82942364D01*
X101611108Y-82051123D01*
X102799430Y-82218130D01*
X102674174Y-83109371D01*
G37*
G36*
X102214902Y-86377255D02*
G01*
X101026580Y-86210248D01*
X101151836Y-85319007D01*
X102340158Y-85486014D01*
X102214902Y-86377255D01*
G37*
G36*
X83809567Y-80458124D02*
G01*
X82621245Y-80291117D01*
X82746501Y-79399876D01*
X83934823Y-79566883D01*
X83809567Y-80458124D01*
G37*
G36*
X83350295Y-83726008D02*
G01*
X82161973Y-83559001D01*
X82287229Y-82667760D01*
X83475551Y-82834767D01*
X83350295Y-83726008D01*
G37*
G36*
X65023169Y-77603432D02*
G01*
X63834847Y-77436425D01*
X63960103Y-76545184D01*
X65148425Y-76712191D01*
X65023169Y-77603432D01*
G37*
G36*
X64563897Y-80871316D02*
G01*
X63375575Y-80704309D01*
X63500831Y-79813068D01*
X64689153Y-79980075D01*
X64563897Y-80871316D01*
G37*
G36*
X45144148Y-76436758D02*
G01*
X43947071Y-76353050D01*
X44009852Y-75455242D01*
X45206929Y-75538950D01*
X45144148Y-76436758D01*
G37*
G36*
X44913952Y-79728720D02*
G01*
X43716875Y-79645012D01*
X43779656Y-78747204D01*
X44976733Y-78830912D01*
X44913952Y-79728720D01*
G37*
D24*
X24574500Y-75597750D03*
X24574500Y-78897750D03*
X255333500Y-56547750D03*
X255333500Y-59847750D03*
D12*
G36*
X234722818Y-58199941D02*
G01*
X233525741Y-58283649D01*
X233462960Y-57385841D01*
X234660037Y-57302133D01*
X234722818Y-58199941D01*
G37*
G36*
X234953014Y-61491903D02*
G01*
X233755937Y-61575611D01*
X233693156Y-60677803D01*
X234890233Y-60594095D01*
X234953014Y-61491903D01*
G37*
G36*
X213791518Y-60968150D02*
G01*
X212603196Y-61135157D01*
X212477940Y-60243916D01*
X213666262Y-60076909D01*
X213791518Y-60968150D01*
G37*
G36*
X214250790Y-64236034D02*
G01*
X213062468Y-64403041D01*
X212937212Y-63511800D01*
X214125534Y-63344793D01*
X214250790Y-64236034D01*
G37*
G36*
X194751329Y-63565773D02*
G01*
X193563007Y-63732780D01*
X193437751Y-62841539D01*
X194626073Y-62674532D01*
X194751329Y-63565773D01*
G37*
G36*
X195210601Y-66833657D02*
G01*
X194022279Y-67000664D01*
X193897023Y-66109423D01*
X195085345Y-65942416D01*
X195210601Y-66833657D01*
G37*
G36*
X175886723Y-66217021D02*
G01*
X174698401Y-66384028D01*
X174573145Y-65492787D01*
X175761467Y-65325780D01*
X175886723Y-66217021D01*
G37*
G36*
X176345995Y-69484905D02*
G01*
X175157673Y-69651912D01*
X175032417Y-68760671D01*
X176220739Y-68593664D01*
X176345995Y-69484905D01*
G37*
G36*
X157022115Y-68868268D02*
G01*
X155833793Y-69035275D01*
X155708537Y-68144034D01*
X156896859Y-67977027D01*
X157022115Y-68868268D01*
G37*
G36*
X157481387Y-72136152D02*
G01*
X156293065Y-72303159D01*
X156167809Y-71411918D01*
X157356131Y-71244911D01*
X157481387Y-72136152D01*
G37*
G36*
X124190028Y-66896012D02*
G01*
X123001706Y-66729005D01*
X123126962Y-65837764D01*
X124315284Y-66004771D01*
X124190028Y-66896012D01*
G37*
G36*
X123730756Y-70163896D02*
G01*
X122542434Y-69996889D01*
X122667690Y-69105648D01*
X123856012Y-69272655D01*
X123730756Y-70163896D01*
G37*
G36*
X105325421Y-64244764D02*
G01*
X104137099Y-64077757D01*
X104262355Y-63186516D01*
X105450677Y-63353523D01*
X105325421Y-64244764D01*
G37*
G36*
X104866149Y-67512648D02*
G01*
X103677827Y-67345641D01*
X103803083Y-66454400D01*
X104991405Y-66621407D01*
X104866149Y-67512648D01*
G37*
G36*
X86460814Y-61593517D02*
G01*
X85272492Y-61426510D01*
X85397748Y-60535269D01*
X86586070Y-60702276D01*
X86460814Y-61593517D01*
G37*
G36*
X86001542Y-64861401D02*
G01*
X84813220Y-64694394D01*
X84938476Y-63803153D01*
X86126798Y-63970160D01*
X86001542Y-64861401D01*
G37*
G36*
X67563169Y-58934432D02*
G01*
X66374847Y-58767425D01*
X66500103Y-57876184D01*
X67688425Y-58043191D01*
X67563169Y-58934432D01*
G37*
G36*
X67103897Y-62202316D02*
G01*
X65915575Y-62035309D01*
X66040831Y-61144068D01*
X67229153Y-61311075D01*
X67103897Y-62202316D01*
G37*
G36*
X46517344Y-57269796D02*
G01*
X45320267Y-57186088D01*
X45383048Y-56288280D01*
X46580125Y-56371988D01*
X46517344Y-57269796D01*
G37*
G36*
X46287148Y-60561758D02*
G01*
X45090071Y-60478050D01*
X45152852Y-59580242D01*
X46349929Y-59663950D01*
X46287148Y-60561758D01*
G37*
D24*
X24638000Y-56897000D03*
X24638000Y-60197000D03*
X255365250Y-37496750D03*
X255365250Y-40796750D03*
D12*
G36*
X233393957Y-39196346D02*
G01*
X232196880Y-39280054D01*
X232134099Y-38382246D01*
X233331176Y-38298538D01*
X233393957Y-39196346D01*
G37*
G36*
X233624153Y-42488308D02*
G01*
X232427076Y-42572016D01*
X232364295Y-41674208D01*
X233561372Y-41590500D01*
X233624153Y-42488308D01*
G37*
G36*
X211013271Y-41976543D02*
G01*
X209824949Y-42143550D01*
X209699693Y-41252309D01*
X210888015Y-41085302D01*
X211013271Y-41976543D01*
G37*
G36*
X211472543Y-45244427D02*
G01*
X210284221Y-45411434D01*
X210158965Y-44520193D01*
X211347287Y-44353186D01*
X211472543Y-45244427D01*
G37*
G36*
X192100082Y-44701166D02*
G01*
X190911760Y-44868173D01*
X190786504Y-43976932D01*
X191974826Y-43809925D01*
X192100082Y-44701166D01*
G37*
G36*
X192559354Y-47969050D02*
G01*
X191371032Y-48136057D01*
X191245776Y-47244816D01*
X192434098Y-47077809D01*
X192559354Y-47969050D01*
G37*
G36*
X173248722Y-47356864D02*
G01*
X172060400Y-47523871D01*
X171935144Y-46632630D01*
X173123466Y-46465623D01*
X173248722Y-47356864D01*
G37*
G36*
X173707994Y-50624748D02*
G01*
X172519672Y-50791755D01*
X172394416Y-49900514D01*
X173582738Y-49733507D01*
X173707994Y-50624748D01*
G37*
G36*
X154384116Y-50008111D02*
G01*
X153195794Y-50175118D01*
X153070538Y-49283877D01*
X154258860Y-49116870D01*
X154384116Y-50008111D01*
G37*
G36*
X154843388Y-53275995D02*
G01*
X153655066Y-53443002D01*
X153529810Y-52551761D01*
X154718132Y-52384754D01*
X154843388Y-53275995D01*
G37*
G36*
X126841275Y-48031405D02*
G01*
X125652953Y-47864398D01*
X125778209Y-46973157D01*
X126966531Y-47140164D01*
X126841275Y-48031405D01*
G37*
G36*
X126382003Y-51299289D02*
G01*
X125193681Y-51132282D01*
X125318937Y-50241041D01*
X126507259Y-50408048D01*
X126382003Y-51299289D01*
G37*
G36*
X107976669Y-45380158D02*
G01*
X106788347Y-45213151D01*
X106913603Y-44321910D01*
X108101925Y-44488917D01*
X107976669Y-45380158D01*
G37*
G36*
X107517397Y-48648042D02*
G01*
X106329075Y-48481035D01*
X106454331Y-47589794D01*
X107642653Y-47756801D01*
X107517397Y-48648042D01*
G37*
G36*
X89112062Y-42728910D02*
G01*
X87923740Y-42561903D01*
X88048996Y-41670662D01*
X89237318Y-41837669D01*
X89112062Y-42728910D01*
G37*
G36*
X88652790Y-45996794D02*
G01*
X87464468Y-45829787D01*
X87589724Y-44938546D01*
X88778046Y-45105553D01*
X88652790Y-45996794D01*
G37*
G36*
X70230169Y-40011432D02*
G01*
X69041847Y-39844425D01*
X69167103Y-38953184D01*
X70355425Y-39120191D01*
X70230169Y-40011432D01*
G37*
G36*
X69770897Y-43279316D02*
G01*
X68582575Y-43112309D01*
X68707831Y-42221068D01*
X69896153Y-42388075D01*
X69770897Y-43279316D01*
G37*
G36*
X47799246Y-38341777D02*
G01*
X46602169Y-38258069D01*
X46664950Y-37360261D01*
X47862027Y-37443969D01*
X47799246Y-38341777D01*
G37*
G36*
X47569050Y-41633739D02*
G01*
X46371973Y-41550031D01*
X46434754Y-40652223D01*
X47631831Y-40735931D01*
X47569050Y-41633739D01*
G37*
D24*
X24574500Y-37497750D03*
X24574500Y-40797750D03*
M02*
