M48
; DRILL file {KiCad 5.1.9-73d0e3b20d~88~ubuntu20.04.1} date Wed Apr 21 09:56:10 2021
; FORMAT={-:-/ absolute / inch / decimal}
; #@! TF.CreationDate,2021-04-21T09:56:10-07:00
; #@! TF.GenerationSoftware,Kicad,Pcbnew,5.1.9-73d0e3b20d~88~ubuntu20.04.1
; #@! TF.FileFunction,NonPlated,1,2,NPTH
FMAT,2
INCH
T1C0.0256
T2C0.1575
%
G90
G05
T1
X5.7012Y-1.4261
X5.9287Y-1.4261
T2
X1.2737Y-1.5537
X1.2737Y-2.3037
X1.2737Y-3.0537
X1.2737Y-3.8037
X2.054Y-3.0827
X2.1063Y-2.3346
X2.1586Y-1.5864
X2.724Y-3.9045
X2.8285Y-3.1618
X2.9328Y-2.4191
X3.0372Y-1.6764
X3.4668Y-4.0088
X3.5712Y-3.2661
X3.6755Y-2.5234
X3.7799Y-1.7807
X4.2095Y-4.1132
X4.3139Y-3.3705
X4.4182Y-2.6278
X4.5226Y-1.8851
X4.9531Y-4.2179
X5.0566Y-3.4749
X5.1609Y-2.7322
X5.2653Y-1.9895
X6.3658Y-1.9885
X6.4702Y-2.7312
X6.5745Y-3.4739
X6.6789Y-4.2166
X7.109Y-1.8843
X7.2129Y-2.6268
X7.3172Y-3.3695
X7.4216Y-4.1122
X7.8517Y-1.7799
X7.9561Y-2.5223
X8.0605Y-3.2653
X8.1643Y-4.0078
X8.5939Y-1.6753
X8.6983Y-2.418
X8.8026Y-3.1607
X8.9071Y-3.9035
X9.4748Y-1.583
X9.5272Y-2.3312
X9.5795Y-3.0794
X10.3588Y-1.5537
X10.3588Y-2.3037
X10.3588Y-3.0537
X10.36Y-3.8037
T0
M30
