G04 #@! TF.GenerationSoftware,KiCad,Pcbnew,5.1.9-73d0e3b20d~88~ubuntu20.04.1*
G04 #@! TF.CreationDate,2021-04-21T09:56:19-07:00*
G04 #@! TF.ProjectId,test1,74657374-312e-46b6-9963-61645f706362,rev?*
G04 #@! TF.SameCoordinates,Original*
G04 #@! TF.FileFunction,Copper,L2,Bot*
G04 #@! TF.FilePolarity,Positive*
%FSLAX46Y46*%
G04 Gerber Fmt 4.6, Leading zero omitted, Abs format (unit mm)*
G04 Created by KiCad (PCBNEW 5.1.9-73d0e3b20d~88~ubuntu20.04.1) date 2021-04-21 09:56:19*
%MOMM*%
%LPD*%
G01*
G04 APERTURE LIST*
G04 #@! TA.AperFunction,ComponentPad*
%ADD10C,2.200000*%
G04 #@! TD*
G04 #@! TA.AperFunction,SMDPad,CuDef*
%ADD11C,2.000000*%
G04 #@! TD*
G04 #@! TA.AperFunction,SMDPad,CuDef*
%ADD12R,0.600000X2.450000*%
G04 #@! TD*
G04 #@! TA.AperFunction,SMDPad,CuDef*
%ADD13R,0.300000X2.450000*%
G04 #@! TD*
G04 #@! TA.AperFunction,ComponentPad*
%ADD14O,1.000000X2.100000*%
G04 #@! TD*
G04 #@! TA.AperFunction,ComponentPad*
%ADD15O,1.000000X1.600000*%
G04 #@! TD*
G04 #@! TA.AperFunction,SMDPad,CuDef*
%ADD16R,1.500000X0.550000*%
G04 #@! TD*
G04 #@! TA.AperFunction,SMDPad,CuDef*
%ADD17R,0.550000X1.500000*%
G04 #@! TD*
G04 #@! TA.AperFunction,SMDPad,CuDef*
%ADD18R,0.700000X1.000000*%
G04 #@! TD*
G04 #@! TA.AperFunction,SMDPad,CuDef*
%ADD19R,0.700000X0.600000*%
G04 #@! TD*
G04 #@! TA.AperFunction,SMDPad,CuDef*
%ADD20R,1.800000X2.100000*%
G04 #@! TD*
G04 #@! TA.AperFunction,SMDPad,CuDef*
%ADD21R,1.800000X1.100000*%
G04 #@! TD*
G04 #@! TA.AperFunction,ComponentPad*
%ADD22R,1.700000X1.700000*%
G04 #@! TD*
G04 #@! TA.AperFunction,ComponentPad*
%ADD23C,1.700000*%
G04 #@! TD*
G04 #@! TA.AperFunction,SMDPad,CuDef*
%ADD24R,1.200000X0.900000*%
G04 #@! TD*
G04 #@! TA.AperFunction,ViaPad*
%ADD25C,0.800000*%
G04 #@! TD*
G04 #@! TA.AperFunction,Conductor*
%ADD26C,0.381000*%
G04 #@! TD*
G04 #@! TA.AperFunction,Conductor*
%ADD27C,0.254000*%
G04 #@! TD*
G04 #@! TA.AperFunction,Conductor*
%ADD28C,0.200000*%
G04 #@! TD*
G04 #@! TA.AperFunction,Conductor*
%ADD29C,2.000000*%
G04 #@! TD*
G04 APERTURE END LIST*
D10*
X222114225Y-97163056D03*
X228048928Y-93764026D03*
X65770730Y-96127667D03*
X72412432Y-94496135D03*
G04 #@! TA.AperFunction,SMDPad,CuDef*
D11*
G36*
X219077289Y-99049077D02*
G01*
X217888967Y-99216084D01*
X217763711Y-98324843D01*
X218952033Y-98157836D01*
X219077289Y-99049077D01*
G37*
G04 #@! TD.AperFunction*
G04 #@! TA.AperFunction,SMDPad,CuDef*
G36*
X219536561Y-102316961D02*
G01*
X218348239Y-102483968D01*
X218222983Y-101592727D01*
X219411305Y-101425720D01*
X219536561Y-102316961D01*
G37*
G04 #@! TD.AperFunction*
G04 #@! TA.AperFunction,SMDPad,CuDef*
G36*
X62483169Y-97193182D02*
G01*
X61294847Y-97026175D01*
X61420103Y-96134934D01*
X62608425Y-96301941D01*
X62483169Y-97193182D01*
G37*
G04 #@! TD.AperFunction*
G04 #@! TA.AperFunction,SMDPad,CuDef*
G36*
X62023897Y-100461066D02*
G01*
X60835575Y-100294059D01*
X60960831Y-99402818D01*
X62149153Y-99569825D01*
X62023897Y-100461066D01*
G37*
G04 #@! TD.AperFunction*
G04 #@! TA.AperFunction,SMDPad,CuDef*
G36*
G01*
X149769500Y-88703999D02*
X149769500Y-89604001D01*
G75*
G02*
X149519501Y-89854000I-249999J0D01*
G01*
X148869499Y-89854000D01*
G75*
G02*
X148619500Y-89604001I0J249999D01*
G01*
X148619500Y-88703999D01*
G75*
G02*
X148869499Y-88454000I249999J0D01*
G01*
X149519501Y-88454000D01*
G75*
G02*
X149769500Y-88703999I0J-249999D01*
G01*
G37*
G04 #@! TD.AperFunction*
G04 #@! TA.AperFunction,SMDPad,CuDef*
G36*
G01*
X151819500Y-88703999D02*
X151819500Y-89604001D01*
G75*
G02*
X151569501Y-89854000I-249999J0D01*
G01*
X150919499Y-89854000D01*
G75*
G02*
X150669500Y-89604001I0J249999D01*
G01*
X150669500Y-88703999D01*
G75*
G02*
X150919499Y-88454000I249999J0D01*
G01*
X151569501Y-88454000D01*
G75*
G02*
X151819500Y-88703999I0J-249999D01*
G01*
G37*
G04 #@! TD.AperFunction*
D10*
X157564528Y-48522273D03*
X163499231Y-45123243D03*
X28543250Y-94075250D03*
X34893250Y-91535250D03*
X28543250Y-36925250D03*
X34893250Y-34385250D03*
D12*
X150925000Y-38167000D03*
X144475000Y-38167000D03*
X150150000Y-38167000D03*
X145250000Y-38167000D03*
D13*
X145950000Y-38167000D03*
X149450000Y-38167000D03*
X146450000Y-38167000D03*
X148950000Y-38167000D03*
X146950000Y-38167000D03*
X148450000Y-38167000D03*
X147950000Y-38167000D03*
X147450000Y-38167000D03*
D14*
X143380000Y-36752000D03*
X152020000Y-36752000D03*
D15*
X143380000Y-32572000D03*
X152020000Y-32572000D03*
D10*
X51205742Y-37494803D03*
X57717455Y-35403944D03*
G04 #@! TA.AperFunction,SMDPad,CuDef*
G36*
G01*
X140139000Y-90711000D02*
X140139000Y-91661000D01*
G75*
G02*
X139889000Y-91911000I-250000J0D01*
G01*
X139214000Y-91911000D01*
G75*
G02*
X138964000Y-91661000I0J250000D01*
G01*
X138964000Y-90711000D01*
G75*
G02*
X139214000Y-90461000I250000J0D01*
G01*
X139889000Y-90461000D01*
G75*
G02*
X140139000Y-90711000I0J-250000D01*
G01*
G37*
G04 #@! TD.AperFunction*
G04 #@! TA.AperFunction,SMDPad,CuDef*
G36*
G01*
X142214000Y-90711000D02*
X142214000Y-91661000D01*
G75*
G02*
X141964000Y-91911000I-250000J0D01*
G01*
X141289000Y-91911000D01*
G75*
G02*
X141039000Y-91661000I0J250000D01*
G01*
X141039000Y-90711000D01*
G75*
G02*
X141289000Y-90461000I250000J0D01*
G01*
X141964000Y-90461000D01*
G75*
G02*
X142214000Y-90711000I0J-250000D01*
G01*
G37*
G04 #@! TD.AperFunction*
G04 #@! TA.AperFunction,SMDPad,CuDef*
G36*
G01*
X152236500Y-107536000D02*
X152236500Y-106586000D01*
G75*
G02*
X152486500Y-106336000I250000J0D01*
G01*
X153161500Y-106336000D01*
G75*
G02*
X153411500Y-106586000I0J-250000D01*
G01*
X153411500Y-107536000D01*
G75*
G02*
X153161500Y-107786000I-250000J0D01*
G01*
X152486500Y-107786000D01*
G75*
G02*
X152236500Y-107536000I0J250000D01*
G01*
G37*
G04 #@! TD.AperFunction*
G04 #@! TA.AperFunction,SMDPad,CuDef*
G36*
G01*
X150161500Y-107536000D02*
X150161500Y-106586000D01*
G75*
G02*
X150411500Y-106336000I250000J0D01*
G01*
X151086500Y-106336000D01*
G75*
G02*
X151336500Y-106586000I0J-250000D01*
G01*
X151336500Y-107536000D01*
G75*
G02*
X151086500Y-107786000I-250000J0D01*
G01*
X150411500Y-107786000D01*
G75*
G02*
X150161500Y-107536000I0J250000D01*
G01*
G37*
G04 #@! TD.AperFunction*
D16*
X141732000Y-95187000D03*
X141732000Y-95987000D03*
X141732000Y-96787000D03*
X141732000Y-97587000D03*
X141732000Y-98387000D03*
X141732000Y-99187000D03*
X141732000Y-99987000D03*
X141732000Y-100787000D03*
X141732000Y-101587000D03*
X141732000Y-102387000D03*
X141732000Y-103187000D03*
D17*
X143432000Y-104887000D03*
X144232000Y-104887000D03*
X145032000Y-104887000D03*
X145832000Y-104887000D03*
X146632000Y-104887000D03*
X147432000Y-104887000D03*
X148232000Y-104887000D03*
X149032000Y-104887000D03*
X149832000Y-104887000D03*
X150632000Y-104887000D03*
X151432000Y-104887000D03*
D16*
X153132000Y-103187000D03*
X153132000Y-102387000D03*
X153132000Y-101587000D03*
X153132000Y-100787000D03*
X153132000Y-99987000D03*
X153132000Y-99187000D03*
X153132000Y-98387000D03*
X153132000Y-97587000D03*
X153132000Y-96787000D03*
X153132000Y-95987000D03*
X153132000Y-95187000D03*
D17*
X151432000Y-93487000D03*
X150632000Y-93487000D03*
X149832000Y-93487000D03*
X149032000Y-93487000D03*
X148232000Y-93487000D03*
X147432000Y-93487000D03*
X146632000Y-93487000D03*
X145832000Y-93487000D03*
X145032000Y-93487000D03*
X144232000Y-93487000D03*
X143432000Y-93487000D03*
G04 #@! TA.AperFunction,SMDPad,CuDef*
G36*
G01*
X143545000Y-107511001D02*
X143545000Y-106610999D01*
G75*
G02*
X143794999Y-106361000I249999J0D01*
G01*
X144495001Y-106361000D01*
G75*
G02*
X144745000Y-106610999I0J-249999D01*
G01*
X144745000Y-107511001D01*
G75*
G02*
X144495001Y-107761000I-249999J0D01*
G01*
X143794999Y-107761000D01*
G75*
G02*
X143545000Y-107511001I0J249999D01*
G01*
G37*
G04 #@! TD.AperFunction*
G04 #@! TA.AperFunction,SMDPad,CuDef*
G36*
G01*
X141545000Y-107511001D02*
X141545000Y-106610999D01*
G75*
G02*
X141794999Y-106361000I249999J0D01*
G01*
X142495001Y-106361000D01*
G75*
G02*
X142745000Y-106610999I0J-249999D01*
G01*
X142745000Y-107511001D01*
G75*
G02*
X142495001Y-107761000I-249999J0D01*
G01*
X141794999Y-107761000D01*
G75*
G02*
X141545000Y-107511001I0J249999D01*
G01*
G37*
G04 #@! TD.AperFunction*
D10*
X28543250Y-55975250D03*
X34893250Y-53435250D03*
D18*
X149209000Y-42557000D03*
D19*
X147209000Y-42357000D03*
X149209000Y-44257000D03*
X147209000Y-44257000D03*
D20*
X162383500Y-99324750D03*
X162383500Y-96424750D03*
X160083500Y-96424750D03*
X160083500Y-99324750D03*
D21*
X176899500Y-90225000D03*
X170699500Y-90225000D03*
X176899500Y-93925000D03*
X170699500Y-93925000D03*
G04 #@! TA.AperFunction,SMDPad,CuDef*
G36*
G01*
X141602000Y-42094999D02*
X141602000Y-42995001D01*
G75*
G02*
X141352001Y-43245000I-249999J0D01*
G01*
X140651999Y-43245000D01*
G75*
G02*
X140402000Y-42995001I0J249999D01*
G01*
X140402000Y-42094999D01*
G75*
G02*
X140651999Y-41845000I249999J0D01*
G01*
X141352001Y-41845000D01*
G75*
G02*
X141602000Y-42094999I0J-249999D01*
G01*
G37*
G04 #@! TD.AperFunction*
G04 #@! TA.AperFunction,SMDPad,CuDef*
G36*
G01*
X143602000Y-42094999D02*
X143602000Y-42995001D01*
G75*
G02*
X143352001Y-43245000I-249999J0D01*
G01*
X142651999Y-43245000D01*
G75*
G02*
X142402000Y-42995001I0J249999D01*
G01*
X142402000Y-42094999D01*
G75*
G02*
X142651999Y-41845000I249999J0D01*
G01*
X143352001Y-41845000D01*
G75*
G02*
X143602000Y-42094999I0J-249999D01*
G01*
G37*
G04 #@! TD.AperFunction*
G04 #@! TA.AperFunction,SMDPad,CuDef*
G36*
G01*
X155213000Y-42995001D02*
X155213000Y-42094999D01*
G75*
G02*
X155462999Y-41845000I249999J0D01*
G01*
X156163001Y-41845000D01*
G75*
G02*
X156413000Y-42094999I0J-249999D01*
G01*
X156413000Y-42995001D01*
G75*
G02*
X156163001Y-43245000I-249999J0D01*
G01*
X155462999Y-43245000D01*
G75*
G02*
X155213000Y-42995001I0J249999D01*
G01*
G37*
G04 #@! TD.AperFunction*
G04 #@! TA.AperFunction,SMDPad,CuDef*
G36*
G01*
X153213000Y-42995001D02*
X153213000Y-42094999D01*
G75*
G02*
X153462999Y-41845000I249999J0D01*
G01*
X154163001Y-41845000D01*
G75*
G02*
X154413000Y-42094999I0J-249999D01*
G01*
X154413000Y-42995001D01*
G75*
G02*
X154163001Y-43245000I-249999J0D01*
G01*
X153462999Y-43245000D01*
G75*
G02*
X153213000Y-42995001I0J249999D01*
G01*
G37*
G04 #@! TD.AperFunction*
G04 #@! TA.AperFunction,SMDPad,CuDef*
G36*
G01*
X146754001Y-85594750D02*
X145853999Y-85594750D01*
G75*
G02*
X145604000Y-85344751I0J249999D01*
G01*
X145604000Y-84644749D01*
G75*
G02*
X145853999Y-84394750I249999J0D01*
G01*
X146754001Y-84394750D01*
G75*
G02*
X147004000Y-84644749I0J-249999D01*
G01*
X147004000Y-85344751D01*
G75*
G02*
X146754001Y-85594750I-249999J0D01*
G01*
G37*
G04 #@! TD.AperFunction*
G04 #@! TA.AperFunction,SMDPad,CuDef*
G36*
G01*
X146754001Y-87594750D02*
X145853999Y-87594750D01*
G75*
G02*
X145604000Y-87344751I0J249999D01*
G01*
X145604000Y-86644749D01*
G75*
G02*
X145853999Y-86394750I249999J0D01*
G01*
X146754001Y-86394750D01*
G75*
G02*
X147004000Y-86644749I0J-249999D01*
G01*
X147004000Y-87344751D01*
G75*
G02*
X146754001Y-87594750I-249999J0D01*
G01*
G37*
G04 #@! TD.AperFunction*
G04 #@! TA.AperFunction,SMDPad,CuDef*
G36*
G01*
X144849001Y-85594750D02*
X143948999Y-85594750D01*
G75*
G02*
X143699000Y-85344751I0J249999D01*
G01*
X143699000Y-84644749D01*
G75*
G02*
X143948999Y-84394750I249999J0D01*
G01*
X144849001Y-84394750D01*
G75*
G02*
X145099000Y-84644749I0J-249999D01*
G01*
X145099000Y-85344751D01*
G75*
G02*
X144849001Y-85594750I-249999J0D01*
G01*
G37*
G04 #@! TD.AperFunction*
G04 #@! TA.AperFunction,SMDPad,CuDef*
G36*
G01*
X144849001Y-87594750D02*
X143948999Y-87594750D01*
G75*
G02*
X143699000Y-87344751I0J249999D01*
G01*
X143699000Y-86644749D01*
G75*
G02*
X143948999Y-86394750I249999J0D01*
G01*
X144849001Y-86394750D01*
G75*
G02*
X145099000Y-86644749I0J-249999D01*
G01*
X145099000Y-87344751D01*
G75*
G02*
X144849001Y-87594750I-249999J0D01*
G01*
G37*
G04 #@! TD.AperFunction*
G04 #@! TA.AperFunction,SMDPad,CuDef*
G36*
G01*
X160343001Y-87611000D02*
X159442999Y-87611000D01*
G75*
G02*
X159193000Y-87361001I0J249999D01*
G01*
X159193000Y-86660999D01*
G75*
G02*
X159442999Y-86411000I249999J0D01*
G01*
X160343001Y-86411000D01*
G75*
G02*
X160593000Y-86660999I0J-249999D01*
G01*
X160593000Y-87361001D01*
G75*
G02*
X160343001Y-87611000I-249999J0D01*
G01*
G37*
G04 #@! TD.AperFunction*
G04 #@! TA.AperFunction,SMDPad,CuDef*
G36*
G01*
X160343001Y-89611000D02*
X159442999Y-89611000D01*
G75*
G02*
X159193000Y-89361001I0J249999D01*
G01*
X159193000Y-88660999D01*
G75*
G02*
X159442999Y-88411000I249999J0D01*
G01*
X160343001Y-88411000D01*
G75*
G02*
X160593000Y-88660999I0J-249999D01*
G01*
X160593000Y-89361001D01*
G75*
G02*
X160343001Y-89611000I-249999J0D01*
G01*
G37*
G04 #@! TD.AperFunction*
D10*
X259334000Y-94075250D03*
X265684000Y-91535250D03*
X203247483Y-99813598D03*
X209182186Y-96414568D03*
X184382878Y-102464845D03*
X190317581Y-99065815D03*
X165518271Y-105116093D03*
X171452974Y-101717063D03*
X122390298Y-104088782D03*
X129032000Y-102457250D03*
X103501195Y-101430269D03*
X110142897Y-99798737D03*
X84636589Y-98779021D03*
X91278291Y-97147489D03*
X259302250Y-75025250D03*
X265652250Y-72485250D03*
X239340897Y-75948535D03*
X245498247Y-72971769D03*
X219460842Y-78297743D03*
X225395545Y-74898713D03*
X200609485Y-80953440D03*
X206544188Y-77554410D03*
X181731630Y-83600238D03*
X187666333Y-80201208D03*
X162867023Y-86251486D03*
X168801726Y-82852456D03*
X125017050Y-85216909D03*
X131658752Y-83585377D03*
X106152443Y-82565662D03*
X112794145Y-80934130D03*
X87287836Y-79914414D03*
X93929538Y-78282882D03*
X68423230Y-77263167D03*
X75064932Y-75631635D03*
X48548021Y-75501993D03*
X55059734Y-73411134D03*
X28543250Y-75025250D03*
X34893250Y-72485250D03*
X259302250Y-55975250D03*
X265652250Y-53435250D03*
X238012036Y-56944940D03*
X244169386Y-53968174D03*
X216809596Y-59433137D03*
X222744299Y-56034107D03*
X197957367Y-62082644D03*
X203892070Y-58683614D03*
X179080382Y-64735631D03*
X185015085Y-61336601D03*
X160215777Y-67386879D03*
X166150480Y-63987849D03*
X127668297Y-66352303D03*
X134309999Y-64720771D03*
X108803691Y-63701055D03*
X115445393Y-62069523D03*
X89939084Y-61049808D03*
X96580786Y-59418276D03*
X71074477Y-58398560D03*
X77716179Y-56767028D03*
X49876881Y-56498398D03*
X56388594Y-54407539D03*
X259302250Y-36925250D03*
X265652250Y-34385250D03*
X236683175Y-37941345D03*
X242840525Y-34964579D03*
X214158349Y-40568530D03*
X220093052Y-37169500D03*
X195306990Y-43224227D03*
X201241693Y-39825197D03*
X176442383Y-45875474D03*
X182377086Y-42476444D03*
X130319545Y-47487696D03*
X136961247Y-45856164D03*
X111454938Y-44836448D03*
X118096640Y-43204916D03*
X92590331Y-42185201D03*
X99232033Y-40553669D03*
X73725725Y-39533953D03*
X80367427Y-37902421D03*
D22*
X152908000Y-74549000D03*
D23*
X152908000Y-77089000D03*
X155448000Y-74549000D03*
X155448000Y-77089000D03*
X157988000Y-74549000D03*
X157988000Y-77089000D03*
G04 #@! TA.AperFunction,SMDPad,CuDef*
G36*
G01*
X140960000Y-48120000D02*
X139710000Y-48120000D01*
G75*
G02*
X139460000Y-47870000I0J250000D01*
G01*
X139460000Y-46945000D01*
G75*
G02*
X139710000Y-46695000I250000J0D01*
G01*
X140960000Y-46695000D01*
G75*
G02*
X141210000Y-46945000I0J-250000D01*
G01*
X141210000Y-47870000D01*
G75*
G02*
X140960000Y-48120000I-250000J0D01*
G01*
G37*
G04 #@! TD.AperFunction*
G04 #@! TA.AperFunction,SMDPad,CuDef*
G36*
G01*
X140960000Y-51095000D02*
X139710000Y-51095000D01*
G75*
G02*
X139460000Y-50845000I0J250000D01*
G01*
X139460000Y-49920000D01*
G75*
G02*
X139710000Y-49670000I250000J0D01*
G01*
X140960000Y-49670000D01*
G75*
G02*
X141210000Y-49920000I0J-250000D01*
G01*
X141210000Y-50845000D01*
G75*
G02*
X140960000Y-51095000I-250000J0D01*
G01*
G37*
G04 #@! TD.AperFunction*
G04 #@! TA.AperFunction,SMDPad,CuDef*
G36*
G01*
X164117000Y-93668000D02*
X165067000Y-93668000D01*
G75*
G02*
X165317000Y-93918000I0J-250000D01*
G01*
X165317000Y-94593000D01*
G75*
G02*
X165067000Y-94843000I-250000J0D01*
G01*
X164117000Y-94843000D01*
G75*
G02*
X163867000Y-94593000I0J250000D01*
G01*
X163867000Y-93918000D01*
G75*
G02*
X164117000Y-93668000I250000J0D01*
G01*
G37*
G04 #@! TD.AperFunction*
G04 #@! TA.AperFunction,SMDPad,CuDef*
G36*
G01*
X164117000Y-91593000D02*
X165067000Y-91593000D01*
G75*
G02*
X165317000Y-91843000I0J-250000D01*
G01*
X165317000Y-92518000D01*
G75*
G02*
X165067000Y-92768000I-250000J0D01*
G01*
X164117000Y-92768000D01*
G75*
G02*
X163867000Y-92518000I0J250000D01*
G01*
X163867000Y-91843000D01*
G75*
G02*
X164117000Y-91593000I250000J0D01*
G01*
G37*
G04 #@! TD.AperFunction*
G04 #@! TA.AperFunction,SMDPad,CuDef*
G36*
G01*
X139286000Y-101636500D02*
X138336000Y-101636500D01*
G75*
G02*
X138086000Y-101386500I0J250000D01*
G01*
X138086000Y-100711500D01*
G75*
G02*
X138336000Y-100461500I250000J0D01*
G01*
X139286000Y-100461500D01*
G75*
G02*
X139536000Y-100711500I0J-250000D01*
G01*
X139536000Y-101386500D01*
G75*
G02*
X139286000Y-101636500I-250000J0D01*
G01*
G37*
G04 #@! TD.AperFunction*
G04 #@! TA.AperFunction,SMDPad,CuDef*
G36*
G01*
X139286000Y-103711500D02*
X138336000Y-103711500D01*
G75*
G02*
X138086000Y-103461500I0J250000D01*
G01*
X138086000Y-102786500D01*
G75*
G02*
X138336000Y-102536500I250000J0D01*
G01*
X139286000Y-102536500D01*
G75*
G02*
X139536000Y-102786500I0J-250000D01*
G01*
X139536000Y-103461500D01*
G75*
G02*
X139286000Y-103711500I-250000J0D01*
G01*
G37*
G04 #@! TD.AperFunction*
G04 #@! TA.AperFunction,SMDPad,CuDef*
G36*
G01*
X165909500Y-96899750D02*
X165909500Y-95949750D01*
G75*
G02*
X166159500Y-95699750I250000J0D01*
G01*
X166834500Y-95699750D01*
G75*
G02*
X167084500Y-95949750I0J-250000D01*
G01*
X167084500Y-96899750D01*
G75*
G02*
X166834500Y-97149750I-250000J0D01*
G01*
X166159500Y-97149750D01*
G75*
G02*
X165909500Y-96899750I0J250000D01*
G01*
G37*
G04 #@! TD.AperFunction*
G04 #@! TA.AperFunction,SMDPad,CuDef*
G36*
G01*
X163834500Y-96899750D02*
X163834500Y-95949750D01*
G75*
G02*
X164084500Y-95699750I250000J0D01*
G01*
X164759500Y-95699750D01*
G75*
G02*
X165009500Y-95949750I0J-250000D01*
G01*
X165009500Y-96899750D01*
G75*
G02*
X164759500Y-97149750I-250000J0D01*
G01*
X164084500Y-97149750D01*
G75*
G02*
X163834500Y-96899750I0J250000D01*
G01*
G37*
G04 #@! TD.AperFunction*
G04 #@! TA.AperFunction,SMDPad,CuDef*
G36*
G01*
X165889000Y-99884250D02*
X165889000Y-98934250D01*
G75*
G02*
X166139000Y-98684250I250000J0D01*
G01*
X166814000Y-98684250D01*
G75*
G02*
X167064000Y-98934250I0J-250000D01*
G01*
X167064000Y-99884250D01*
G75*
G02*
X166814000Y-100134250I-250000J0D01*
G01*
X166139000Y-100134250D01*
G75*
G02*
X165889000Y-99884250I0J250000D01*
G01*
G37*
G04 #@! TD.AperFunction*
G04 #@! TA.AperFunction,SMDPad,CuDef*
G36*
G01*
X163814000Y-99884250D02*
X163814000Y-98934250D01*
G75*
G02*
X164064000Y-98684250I250000J0D01*
G01*
X164739000Y-98684250D01*
G75*
G02*
X164989000Y-98934250I0J-250000D01*
G01*
X164989000Y-99884250D01*
G75*
G02*
X164739000Y-100134250I-250000J0D01*
G01*
X164064000Y-100134250D01*
G75*
G02*
X163814000Y-99884250I0J250000D01*
G01*
G37*
G04 #@! TD.AperFunction*
D24*
X255397000Y-94965250D03*
X255397000Y-98265250D03*
G04 #@! TA.AperFunction,SMDPad,CuDef*
D11*
G36*
X200053823Y-101294987D02*
G01*
X198865501Y-101461994D01*
X198740245Y-100570753D01*
X199928567Y-100403746D01*
X200053823Y-101294987D01*
G37*
G04 #@! TD.AperFunction*
G04 #@! TA.AperFunction,SMDPad,CuDef*
G36*
X200513095Y-104562871D02*
G01*
X199324773Y-104729878D01*
X199199517Y-103838637D01*
X200387839Y-103671630D01*
X200513095Y-104562871D01*
G37*
G04 #@! TD.AperFunction*
G04 #@! TA.AperFunction,SMDPad,CuDef*
G36*
X181189217Y-103946234D02*
G01*
X180000895Y-104113241D01*
X179875639Y-103222000D01*
X181063961Y-103054993D01*
X181189217Y-103946234D01*
G37*
G04 #@! TD.AperFunction*
G04 #@! TA.AperFunction,SMDPad,CuDef*
G36*
X181648489Y-107214118D02*
G01*
X180460167Y-107381125D01*
X180334911Y-106489884D01*
X181523233Y-106322877D01*
X181648489Y-107214118D01*
G37*
G04 #@! TD.AperFunction*
G04 #@! TA.AperFunction,SMDPad,CuDef*
G36*
X162324610Y-106597482D02*
G01*
X161136288Y-106764489D01*
X161011032Y-105873248D01*
X162199354Y-105706241D01*
X162324610Y-106597482D01*
G37*
G04 #@! TD.AperFunction*
G04 #@! TA.AperFunction,SMDPad,CuDef*
G36*
X162783882Y-109865366D02*
G01*
X161595560Y-110032373D01*
X161470304Y-109141132D01*
X162658626Y-108974125D01*
X162783882Y-109865366D01*
G37*
G04 #@! TD.AperFunction*
G04 #@! TA.AperFunction,SMDPad,CuDef*
G36*
X118998169Y-104527432D02*
G01*
X117809847Y-104360425D01*
X117935103Y-103469184D01*
X119123425Y-103636191D01*
X118998169Y-104527432D01*
G37*
G04 #@! TD.AperFunction*
G04 #@! TA.AperFunction,SMDPad,CuDef*
G36*
X118538897Y-107795316D02*
G01*
X117350575Y-107628309D01*
X117475831Y-106737068D01*
X118664153Y-106904075D01*
X118538897Y-107795316D01*
G37*
G04 #@! TD.AperFunction*
G04 #@! TA.AperFunction,SMDPad,CuDef*
G36*
X100022926Y-101973978D02*
G01*
X98834604Y-101806971D01*
X98959860Y-100915730D01*
X100148182Y-101082737D01*
X100022926Y-101973978D01*
G37*
G04 #@! TD.AperFunction*
G04 #@! TA.AperFunction,SMDPad,CuDef*
G36*
X99563654Y-105241862D02*
G01*
X98375332Y-105074855D01*
X98500588Y-104183614D01*
X99688910Y-104350621D01*
X99563654Y-105241862D01*
G37*
G04 #@! TD.AperFunction*
G04 #@! TA.AperFunction,SMDPad,CuDef*
G36*
X81158319Y-99322730D02*
G01*
X79969997Y-99155723D01*
X80095253Y-98264482D01*
X81283575Y-98431489D01*
X81158319Y-99322730D01*
G37*
G04 #@! TD.AperFunction*
G04 #@! TA.AperFunction,SMDPad,CuDef*
G36*
X80699047Y-102590614D02*
G01*
X79510725Y-102423607D01*
X79635981Y-101532366D01*
X80824303Y-101699373D01*
X80699047Y-102590614D01*
G37*
G04 #@! TD.AperFunction*
D24*
X24574500Y-94647750D03*
X24574500Y-97947750D03*
X255333500Y-75597750D03*
X255333500Y-78897750D03*
G04 #@! TA.AperFunction,SMDPad,CuDef*
D11*
G36*
X236051679Y-77203536D02*
G01*
X234854602Y-77287244D01*
X234791821Y-76389436D01*
X235988898Y-76305728D01*
X236051679Y-77203536D01*
G37*
G04 #@! TD.AperFunction*
G04 #@! TA.AperFunction,SMDPad,CuDef*
G36*
X236281875Y-80495498D02*
G01*
X235084798Y-80579206D01*
X235022017Y-79681398D01*
X236219094Y-79597690D01*
X236281875Y-80495498D01*
G37*
G04 #@! TD.AperFunction*
G04 #@! TA.AperFunction,SMDPad,CuDef*
G36*
X216315767Y-79705757D02*
G01*
X215127445Y-79872764D01*
X215002189Y-78981523D01*
X216190511Y-78814516D01*
X216315767Y-79705757D01*
G37*
G04 #@! TD.AperFunction*
G04 #@! TA.AperFunction,SMDPad,CuDef*
G36*
X216775039Y-82973641D02*
G01*
X215586717Y-83140648D01*
X215461461Y-82249407D01*
X216649783Y-82082400D01*
X216775039Y-82973641D01*
G37*
G04 #@! TD.AperFunction*
G04 #@! TA.AperFunction,SMDPad,CuDef*
G36*
X197402577Y-82430380D02*
G01*
X196214255Y-82597387D01*
X196088999Y-81706146D01*
X197277321Y-81539139D01*
X197402577Y-82430380D01*
G37*
G04 #@! TD.AperFunction*
G04 #@! TA.AperFunction,SMDPad,CuDef*
G36*
X197861849Y-85698264D02*
G01*
X196673527Y-85865271D01*
X196548271Y-84974030D01*
X197736593Y-84807023D01*
X197861849Y-85698264D01*
G37*
G04 #@! TD.AperFunction*
G04 #@! TA.AperFunction,SMDPad,CuDef*
G36*
X178537969Y-85081627D02*
G01*
X177349647Y-85248634D01*
X177224391Y-84357393D01*
X178412713Y-84190386D01*
X178537969Y-85081627D01*
G37*
G04 #@! TD.AperFunction*
G04 #@! TA.AperFunction,SMDPad,CuDef*
G36*
X178997241Y-88349511D02*
G01*
X177808919Y-88516518D01*
X177683663Y-87625277D01*
X178871985Y-87458270D01*
X178997241Y-88349511D01*
G37*
G04 #@! TD.AperFunction*
G04 #@! TA.AperFunction,SMDPad,CuDef*
G36*
X160506211Y-83076883D02*
G01*
X161694533Y-82909876D01*
X161819789Y-83801117D01*
X160631467Y-83968124D01*
X160506211Y-83076883D01*
G37*
G04 #@! TD.AperFunction*
G04 #@! TA.AperFunction,SMDPad,CuDef*
G36*
X160046939Y-79808999D02*
G01*
X161235261Y-79641992D01*
X161360517Y-80533233D01*
X160172195Y-80700240D01*
X160046939Y-79808999D01*
G37*
G04 #@! TD.AperFunction*
G04 #@! TA.AperFunction,SMDPad,CuDef*
G36*
X121538780Y-85760619D02*
G01*
X120350458Y-85593612D01*
X120475714Y-84702371D01*
X121664036Y-84869378D01*
X121538780Y-85760619D01*
G37*
G04 #@! TD.AperFunction*
G04 #@! TA.AperFunction,SMDPad,CuDef*
G36*
X121079508Y-89028503D02*
G01*
X119891186Y-88861496D01*
X120016442Y-87970255D01*
X121204764Y-88137262D01*
X121079508Y-89028503D01*
G37*
G04 #@! TD.AperFunction*
G04 #@! TA.AperFunction,SMDPad,CuDef*
G36*
X102674174Y-83109371D02*
G01*
X101485852Y-82942364D01*
X101611108Y-82051123D01*
X102799430Y-82218130D01*
X102674174Y-83109371D01*
G37*
G04 #@! TD.AperFunction*
G04 #@! TA.AperFunction,SMDPad,CuDef*
G36*
X102214902Y-86377255D02*
G01*
X101026580Y-86210248D01*
X101151836Y-85319007D01*
X102340158Y-85486014D01*
X102214902Y-86377255D01*
G37*
G04 #@! TD.AperFunction*
G04 #@! TA.AperFunction,SMDPad,CuDef*
G36*
X83809567Y-80458124D02*
G01*
X82621245Y-80291117D01*
X82746501Y-79399876D01*
X83934823Y-79566883D01*
X83809567Y-80458124D01*
G37*
G04 #@! TD.AperFunction*
G04 #@! TA.AperFunction,SMDPad,CuDef*
G36*
X83350295Y-83726008D02*
G01*
X82161973Y-83559001D01*
X82287229Y-82667760D01*
X83475551Y-82834767D01*
X83350295Y-83726008D01*
G37*
G04 #@! TD.AperFunction*
G04 #@! TA.AperFunction,SMDPad,CuDef*
G36*
X65023169Y-77603432D02*
G01*
X63834847Y-77436425D01*
X63960103Y-76545184D01*
X65148425Y-76712191D01*
X65023169Y-77603432D01*
G37*
G04 #@! TD.AperFunction*
G04 #@! TA.AperFunction,SMDPad,CuDef*
G36*
X64563897Y-80871316D02*
G01*
X63375575Y-80704309D01*
X63500831Y-79813068D01*
X64689153Y-79980075D01*
X64563897Y-80871316D01*
G37*
G04 #@! TD.AperFunction*
G04 #@! TA.AperFunction,SMDPad,CuDef*
G36*
X45144148Y-76436758D02*
G01*
X43947071Y-76353050D01*
X44009852Y-75455242D01*
X45206929Y-75538950D01*
X45144148Y-76436758D01*
G37*
G04 #@! TD.AperFunction*
G04 #@! TA.AperFunction,SMDPad,CuDef*
G36*
X44913952Y-79728720D02*
G01*
X43716875Y-79645012D01*
X43779656Y-78747204D01*
X44976733Y-78830912D01*
X44913952Y-79728720D01*
G37*
G04 #@! TD.AperFunction*
D24*
X24574500Y-75597750D03*
X24574500Y-78897750D03*
X255333500Y-56547750D03*
X255333500Y-59847750D03*
G04 #@! TA.AperFunction,SMDPad,CuDef*
D11*
G36*
X234722818Y-58199941D02*
G01*
X233525741Y-58283649D01*
X233462960Y-57385841D01*
X234660037Y-57302133D01*
X234722818Y-58199941D01*
G37*
G04 #@! TD.AperFunction*
G04 #@! TA.AperFunction,SMDPad,CuDef*
G36*
X234953014Y-61491903D02*
G01*
X233755937Y-61575611D01*
X233693156Y-60677803D01*
X234890233Y-60594095D01*
X234953014Y-61491903D01*
G37*
G04 #@! TD.AperFunction*
G04 #@! TA.AperFunction,SMDPad,CuDef*
G36*
X213791518Y-60968150D02*
G01*
X212603196Y-61135157D01*
X212477940Y-60243916D01*
X213666262Y-60076909D01*
X213791518Y-60968150D01*
G37*
G04 #@! TD.AperFunction*
G04 #@! TA.AperFunction,SMDPad,CuDef*
G36*
X214250790Y-64236034D02*
G01*
X213062468Y-64403041D01*
X212937212Y-63511800D01*
X214125534Y-63344793D01*
X214250790Y-64236034D01*
G37*
G04 #@! TD.AperFunction*
G04 #@! TA.AperFunction,SMDPad,CuDef*
G36*
X194751329Y-63565773D02*
G01*
X193563007Y-63732780D01*
X193437751Y-62841539D01*
X194626073Y-62674532D01*
X194751329Y-63565773D01*
G37*
G04 #@! TD.AperFunction*
G04 #@! TA.AperFunction,SMDPad,CuDef*
G36*
X195210601Y-66833657D02*
G01*
X194022279Y-67000664D01*
X193897023Y-66109423D01*
X195085345Y-65942416D01*
X195210601Y-66833657D01*
G37*
G04 #@! TD.AperFunction*
G04 #@! TA.AperFunction,SMDPad,CuDef*
G36*
X175886723Y-66217021D02*
G01*
X174698401Y-66384028D01*
X174573145Y-65492787D01*
X175761467Y-65325780D01*
X175886723Y-66217021D01*
G37*
G04 #@! TD.AperFunction*
G04 #@! TA.AperFunction,SMDPad,CuDef*
G36*
X176345995Y-69484905D02*
G01*
X175157673Y-69651912D01*
X175032417Y-68760671D01*
X176220739Y-68593664D01*
X176345995Y-69484905D01*
G37*
G04 #@! TD.AperFunction*
G04 #@! TA.AperFunction,SMDPad,CuDef*
G36*
X157022115Y-68868268D02*
G01*
X155833793Y-69035275D01*
X155708537Y-68144034D01*
X156896859Y-67977027D01*
X157022115Y-68868268D01*
G37*
G04 #@! TD.AperFunction*
G04 #@! TA.AperFunction,SMDPad,CuDef*
G36*
X157481387Y-72136152D02*
G01*
X156293065Y-72303159D01*
X156167809Y-71411918D01*
X157356131Y-71244911D01*
X157481387Y-72136152D01*
G37*
G04 #@! TD.AperFunction*
G04 #@! TA.AperFunction,SMDPad,CuDef*
G36*
X124190028Y-66896012D02*
G01*
X123001706Y-66729005D01*
X123126962Y-65837764D01*
X124315284Y-66004771D01*
X124190028Y-66896012D01*
G37*
G04 #@! TD.AperFunction*
G04 #@! TA.AperFunction,SMDPad,CuDef*
G36*
X123730756Y-70163896D02*
G01*
X122542434Y-69996889D01*
X122667690Y-69105648D01*
X123856012Y-69272655D01*
X123730756Y-70163896D01*
G37*
G04 #@! TD.AperFunction*
G04 #@! TA.AperFunction,SMDPad,CuDef*
G36*
X105325421Y-64244764D02*
G01*
X104137099Y-64077757D01*
X104262355Y-63186516D01*
X105450677Y-63353523D01*
X105325421Y-64244764D01*
G37*
G04 #@! TD.AperFunction*
G04 #@! TA.AperFunction,SMDPad,CuDef*
G36*
X104866149Y-67512648D02*
G01*
X103677827Y-67345641D01*
X103803083Y-66454400D01*
X104991405Y-66621407D01*
X104866149Y-67512648D01*
G37*
G04 #@! TD.AperFunction*
G04 #@! TA.AperFunction,SMDPad,CuDef*
G36*
X86460814Y-61593517D02*
G01*
X85272492Y-61426510D01*
X85397748Y-60535269D01*
X86586070Y-60702276D01*
X86460814Y-61593517D01*
G37*
G04 #@! TD.AperFunction*
G04 #@! TA.AperFunction,SMDPad,CuDef*
G36*
X86001542Y-64861401D02*
G01*
X84813220Y-64694394D01*
X84938476Y-63803153D01*
X86126798Y-63970160D01*
X86001542Y-64861401D01*
G37*
G04 #@! TD.AperFunction*
G04 #@! TA.AperFunction,SMDPad,CuDef*
G36*
X67563169Y-58934432D02*
G01*
X66374847Y-58767425D01*
X66500103Y-57876184D01*
X67688425Y-58043191D01*
X67563169Y-58934432D01*
G37*
G04 #@! TD.AperFunction*
G04 #@! TA.AperFunction,SMDPad,CuDef*
G36*
X67103897Y-62202316D02*
G01*
X65915575Y-62035309D01*
X66040831Y-61144068D01*
X67229153Y-61311075D01*
X67103897Y-62202316D01*
G37*
G04 #@! TD.AperFunction*
G04 #@! TA.AperFunction,SMDPad,CuDef*
G36*
X46517344Y-57269796D02*
G01*
X45320267Y-57186088D01*
X45383048Y-56288280D01*
X46580125Y-56371988D01*
X46517344Y-57269796D01*
G37*
G04 #@! TD.AperFunction*
G04 #@! TA.AperFunction,SMDPad,CuDef*
G36*
X46287148Y-60561758D02*
G01*
X45090071Y-60478050D01*
X45152852Y-59580242D01*
X46349929Y-59663950D01*
X46287148Y-60561758D01*
G37*
G04 #@! TD.AperFunction*
D24*
X24638000Y-56897000D03*
X24638000Y-60197000D03*
X255365250Y-37496750D03*
X255365250Y-40796750D03*
G04 #@! TA.AperFunction,SMDPad,CuDef*
D11*
G36*
X233393957Y-39196346D02*
G01*
X232196880Y-39280054D01*
X232134099Y-38382246D01*
X233331176Y-38298538D01*
X233393957Y-39196346D01*
G37*
G04 #@! TD.AperFunction*
G04 #@! TA.AperFunction,SMDPad,CuDef*
G36*
X233624153Y-42488308D02*
G01*
X232427076Y-42572016D01*
X232364295Y-41674208D01*
X233561372Y-41590500D01*
X233624153Y-42488308D01*
G37*
G04 #@! TD.AperFunction*
G04 #@! TA.AperFunction,SMDPad,CuDef*
G36*
X211013271Y-41976543D02*
G01*
X209824949Y-42143550D01*
X209699693Y-41252309D01*
X210888015Y-41085302D01*
X211013271Y-41976543D01*
G37*
G04 #@! TD.AperFunction*
G04 #@! TA.AperFunction,SMDPad,CuDef*
G36*
X211472543Y-45244427D02*
G01*
X210284221Y-45411434D01*
X210158965Y-44520193D01*
X211347287Y-44353186D01*
X211472543Y-45244427D01*
G37*
G04 #@! TD.AperFunction*
G04 #@! TA.AperFunction,SMDPad,CuDef*
G36*
X192100082Y-44701166D02*
G01*
X190911760Y-44868173D01*
X190786504Y-43976932D01*
X191974826Y-43809925D01*
X192100082Y-44701166D01*
G37*
G04 #@! TD.AperFunction*
G04 #@! TA.AperFunction,SMDPad,CuDef*
G36*
X192559354Y-47969050D02*
G01*
X191371032Y-48136057D01*
X191245776Y-47244816D01*
X192434098Y-47077809D01*
X192559354Y-47969050D01*
G37*
G04 #@! TD.AperFunction*
G04 #@! TA.AperFunction,SMDPad,CuDef*
G36*
X173248722Y-47356864D02*
G01*
X172060400Y-47523871D01*
X171935144Y-46632630D01*
X173123466Y-46465623D01*
X173248722Y-47356864D01*
G37*
G04 #@! TD.AperFunction*
G04 #@! TA.AperFunction,SMDPad,CuDef*
G36*
X173707994Y-50624748D02*
G01*
X172519672Y-50791755D01*
X172394416Y-49900514D01*
X173582738Y-49733507D01*
X173707994Y-50624748D01*
G37*
G04 #@! TD.AperFunction*
G04 #@! TA.AperFunction,SMDPad,CuDef*
G36*
X154384116Y-50008111D02*
G01*
X153195794Y-50175118D01*
X153070538Y-49283877D01*
X154258860Y-49116870D01*
X154384116Y-50008111D01*
G37*
G04 #@! TD.AperFunction*
G04 #@! TA.AperFunction,SMDPad,CuDef*
G36*
X154843388Y-53275995D02*
G01*
X153655066Y-53443002D01*
X153529810Y-52551761D01*
X154718132Y-52384754D01*
X154843388Y-53275995D01*
G37*
G04 #@! TD.AperFunction*
G04 #@! TA.AperFunction,SMDPad,CuDef*
G36*
X126841275Y-48031405D02*
G01*
X125652953Y-47864398D01*
X125778209Y-46973157D01*
X126966531Y-47140164D01*
X126841275Y-48031405D01*
G37*
G04 #@! TD.AperFunction*
G04 #@! TA.AperFunction,SMDPad,CuDef*
G36*
X126382003Y-51299289D02*
G01*
X125193681Y-51132282D01*
X125318937Y-50241041D01*
X126507259Y-50408048D01*
X126382003Y-51299289D01*
G37*
G04 #@! TD.AperFunction*
G04 #@! TA.AperFunction,SMDPad,CuDef*
G36*
X107976669Y-45380158D02*
G01*
X106788347Y-45213151D01*
X106913603Y-44321910D01*
X108101925Y-44488917D01*
X107976669Y-45380158D01*
G37*
G04 #@! TD.AperFunction*
G04 #@! TA.AperFunction,SMDPad,CuDef*
G36*
X107517397Y-48648042D02*
G01*
X106329075Y-48481035D01*
X106454331Y-47589794D01*
X107642653Y-47756801D01*
X107517397Y-48648042D01*
G37*
G04 #@! TD.AperFunction*
G04 #@! TA.AperFunction,SMDPad,CuDef*
G36*
X89112062Y-42728910D02*
G01*
X87923740Y-42561903D01*
X88048996Y-41670662D01*
X89237318Y-41837669D01*
X89112062Y-42728910D01*
G37*
G04 #@! TD.AperFunction*
G04 #@! TA.AperFunction,SMDPad,CuDef*
G36*
X88652790Y-45996794D02*
G01*
X87464468Y-45829787D01*
X87589724Y-44938546D01*
X88778046Y-45105553D01*
X88652790Y-45996794D01*
G37*
G04 #@! TD.AperFunction*
G04 #@! TA.AperFunction,SMDPad,CuDef*
G36*
X70230169Y-40011432D02*
G01*
X69041847Y-39844425D01*
X69167103Y-38953184D01*
X70355425Y-39120191D01*
X70230169Y-40011432D01*
G37*
G04 #@! TD.AperFunction*
G04 #@! TA.AperFunction,SMDPad,CuDef*
G36*
X69770897Y-43279316D02*
G01*
X68582575Y-43112309D01*
X68707831Y-42221068D01*
X69896153Y-42388075D01*
X69770897Y-43279316D01*
G37*
G04 #@! TD.AperFunction*
G04 #@! TA.AperFunction,SMDPad,CuDef*
G36*
X47799246Y-38341777D02*
G01*
X46602169Y-38258069D01*
X46664950Y-37360261D01*
X47862027Y-37443969D01*
X47799246Y-38341777D01*
G37*
G04 #@! TD.AperFunction*
G04 #@! TA.AperFunction,SMDPad,CuDef*
G36*
X47569050Y-41633739D02*
G01*
X46371973Y-41550031D01*
X46434754Y-40652223D01*
X47631831Y-40735931D01*
X47569050Y-41633739D01*
G37*
G04 #@! TD.AperFunction*
D24*
X24574500Y-37497750D03*
X24574500Y-40797750D03*
D25*
X140335000Y-88392000D03*
X151130000Y-90551000D03*
X150749000Y-108331000D03*
X136525000Y-103124000D03*
X157861000Y-91440000D03*
X158700567Y-86790433D03*
X144921433Y-40146433D03*
X151195492Y-40139505D03*
X138430000Y-54102000D03*
X151003000Y-54102000D03*
X137160000Y-71755000D03*
X151003000Y-71882000D03*
X134747000Y-82931000D03*
X159004000Y-80137000D03*
X139827000Y-109220000D03*
X156972000Y-109474000D03*
X117475000Y-86741000D03*
X117475000Y-91059000D03*
X138684000Y-114173000D03*
X138684000Y-112903000D03*
X138684000Y-111633000D03*
X138684000Y-110490000D03*
X227457000Y-105664000D03*
X157734000Y-97536000D03*
X167894000Y-96393000D03*
X167894000Y-99441000D03*
X150749000Y-49657000D03*
X145415000Y-49657000D03*
X141125500Y-87376000D03*
X147320000Y-89027000D03*
X174498000Y-84201000D03*
X174498000Y-91948000D03*
X152400000Y-78994000D03*
X157226000Y-78994000D03*
D26*
X154038230Y-96787000D02*
X158644730Y-92180500D01*
X153132000Y-96787000D02*
X154038230Y-96787000D01*
X140335000Y-50382500D02*
X140335000Y-88392000D01*
X141626500Y-95081500D02*
X141732000Y-95187000D01*
X141626500Y-91186000D02*
X141626500Y-95081500D01*
X143062000Y-91186000D02*
X141626500Y-91186000D01*
X144232000Y-92356000D02*
X143062000Y-91186000D01*
X144232000Y-93487000D02*
X144232000Y-92356000D01*
X140335000Y-88392000D02*
X140335000Y-88392000D01*
X148366499Y-93352501D02*
X148232000Y-93487000D01*
X148366499Y-92424599D02*
X148366499Y-93352501D01*
X149840099Y-90950999D02*
X148366499Y-92424599D01*
X150730001Y-90950999D02*
X149840099Y-90950999D01*
X151130000Y-90551000D02*
X150730001Y-90950999D01*
X141669000Y-103124000D02*
X141732000Y-103187000D01*
X138811000Y-103124000D02*
X141669000Y-103124000D01*
X150749000Y-108331000D02*
X150749000Y-107061000D01*
X150632000Y-106944000D02*
X150749000Y-107061000D01*
X150632000Y-104887000D02*
X150632000Y-106944000D01*
X136525000Y-103124000D02*
X138811000Y-103124000D01*
X158213499Y-79757559D02*
X158213499Y-85331499D01*
X159228501Y-78742557D02*
X158213499Y-79757559D01*
X159228501Y-75789501D02*
X159228501Y-78742557D01*
X158213499Y-85331499D02*
X159893000Y-87011000D01*
X157988000Y-74549000D02*
X159228501Y-75789501D01*
X158601500Y-92180500D02*
X158644730Y-92180500D01*
X157861000Y-91440000D02*
X158601500Y-92180500D01*
X158921134Y-87011000D02*
X158700567Y-86790433D01*
X159893000Y-87011000D02*
X158921134Y-87011000D01*
X158644730Y-92180500D02*
X164592000Y-92180500D01*
X140335000Y-89894500D02*
X141626500Y-91186000D01*
X140335000Y-88392000D02*
X140335000Y-89894500D01*
X145250000Y-39817866D02*
X144921433Y-40146433D01*
X145250000Y-38167000D02*
X145250000Y-39817866D01*
X150675373Y-40139505D02*
X151195492Y-40139505D01*
X150150000Y-39614132D02*
X150675373Y-40139505D01*
X150150000Y-38167000D02*
X150150000Y-39614132D01*
X142386690Y-43635510D02*
X145930490Y-43635510D01*
X142011490Y-43260310D02*
X142386690Y-43635510D01*
X142011490Y-41829690D02*
X142011490Y-43260310D01*
X143694747Y-40146433D02*
X142011490Y-41829690D01*
X145930490Y-43635510D02*
X147209000Y-42357000D01*
X144921433Y-40146433D02*
X143694747Y-40146433D01*
X142386690Y-45355810D02*
X140335000Y-47407500D01*
X142386690Y-43635510D02*
X142386690Y-45355810D01*
D27*
X25147000Y-36925250D02*
X24574500Y-37497750D01*
X28543250Y-36925250D02*
X25147000Y-36925250D01*
X50849526Y-37851019D02*
X51205742Y-37494803D01*
X47232098Y-37851019D02*
X50849526Y-37851019D01*
X73674080Y-39482308D02*
X73725725Y-39533953D01*
X69698636Y-39482308D02*
X73674080Y-39482308D01*
X88595114Y-42185201D02*
X88580529Y-42199786D01*
X92590331Y-42185201D02*
X88595114Y-42185201D01*
X46352632Y-41792251D02*
X47001902Y-41142981D01*
X25569001Y-41792251D02*
X46352632Y-41792251D01*
X24574500Y-40797750D02*
X25569001Y-41792251D01*
X48609113Y-42750192D02*
X69239364Y-42750192D01*
X47001902Y-41142981D02*
X48609113Y-42750192D01*
X71956842Y-45467670D02*
X88121257Y-45467670D01*
X69239364Y-42750192D02*
X71956842Y-45467670D01*
X90772505Y-48118918D02*
X106985864Y-48118918D01*
X88121257Y-45467670D02*
X90772505Y-48118918D01*
X109637111Y-50770165D02*
X125850470Y-50770165D01*
X106985864Y-48118918D02*
X109637111Y-50770165D01*
X170399958Y-52913878D02*
X173051205Y-50262631D01*
X154186599Y-52913878D02*
X170399958Y-52913878D01*
X189246867Y-50262631D02*
X191902565Y-47606933D01*
X173051205Y-50262631D02*
X189246867Y-50262631D01*
X208091131Y-47606933D02*
X210815754Y-44882310D01*
X191902565Y-47606933D02*
X208091131Y-47606933D01*
X253625613Y-42536387D02*
X255365250Y-40796750D01*
X233449353Y-42536387D02*
X253625613Y-42536387D01*
X232994224Y-42081258D02*
X233449353Y-42536387D01*
X230193172Y-44882310D02*
X210815754Y-44882310D01*
X232994224Y-42081258D02*
X230193172Y-44882310D01*
X141732000Y-97587000D02*
X139575990Y-97587000D01*
X129182305Y-54102000D02*
X138430000Y-54102000D01*
X125850470Y-50770165D02*
X129182305Y-54102000D01*
X152998477Y-54102000D02*
X154186599Y-52913878D01*
X151003000Y-54102000D02*
X152998477Y-54102000D01*
X139127953Y-97587000D02*
X139575990Y-97587000D01*
X138430000Y-96889047D02*
X139127953Y-97587000D01*
X138430000Y-54102000D02*
X138430000Y-96889047D01*
X44948749Y-60842251D02*
X45720000Y-60071000D01*
X25283251Y-60842251D02*
X44948749Y-60842251D01*
X24638000Y-60197000D02*
X25283251Y-60842251D01*
X47322192Y-61673192D02*
X66572364Y-61673192D01*
X45720000Y-60071000D02*
X47322192Y-61673192D01*
X69231449Y-64332277D02*
X85470009Y-64332277D01*
X66572364Y-61673192D02*
X69231449Y-64332277D01*
X88121256Y-66983524D02*
X104334616Y-66983524D01*
X85470009Y-64332277D02*
X88121256Y-66983524D01*
X106985864Y-69634772D02*
X123199223Y-69634772D01*
X104334616Y-66983524D02*
X106985864Y-69634772D01*
X234778214Y-61539982D02*
X234323085Y-61084853D01*
X253641268Y-61539982D02*
X234778214Y-61539982D01*
X255333500Y-59847750D02*
X253641268Y-61539982D01*
X231534021Y-63873917D02*
X213594001Y-63873917D01*
X234323085Y-61084853D02*
X231534021Y-63873917D01*
X210996378Y-66471540D02*
X194553812Y-66471540D01*
X213594001Y-63873917D02*
X210996378Y-66471540D01*
X191902564Y-69122788D02*
X175689206Y-69122788D01*
X194553812Y-66471540D02*
X191902564Y-69122788D01*
X173037959Y-71774035D02*
X175689206Y-69122788D01*
X156824598Y-71774035D02*
X173037959Y-71774035D01*
X137129834Y-71724834D02*
X137160000Y-71755000D01*
X123199223Y-69634772D02*
X125289285Y-71724834D01*
X156716633Y-71882000D02*
X156824598Y-71774035D01*
X151003000Y-71882000D02*
X156716633Y-71882000D01*
X125289285Y-71724834D02*
X135666166Y-71724834D01*
X135666166Y-71724834D02*
X137129834Y-71724834D01*
X135666166Y-94767272D02*
X135666166Y-71724834D01*
X139217344Y-98318450D02*
X135666166Y-94767272D01*
X140345785Y-98387000D02*
X140277236Y-98318451D01*
X140277236Y-98318451D02*
X139217344Y-98318450D01*
X141732000Y-98387000D02*
X140345785Y-98387000D01*
X43692515Y-79892251D02*
X44346804Y-79237962D01*
X25569001Y-79892251D02*
X43692515Y-79892251D01*
X24574500Y-78897750D02*
X25569001Y-79892251D01*
X63745977Y-80628579D02*
X64032364Y-80342192D01*
X45737421Y-80628579D02*
X63745977Y-80628579D01*
X44346804Y-79237962D02*
X45737421Y-80628579D01*
X66887056Y-83196884D02*
X82818762Y-83196884D01*
X64032364Y-80342192D02*
X66887056Y-83196884D01*
X85470009Y-85848131D02*
X101683369Y-85848131D01*
X82818762Y-83196884D02*
X85470009Y-85848131D01*
X104334617Y-88499379D02*
X120547975Y-88499379D01*
X101683369Y-85848131D02*
X104334617Y-88499379D01*
X236107075Y-80543577D02*
X235651946Y-80088448D01*
X253687673Y-80543577D02*
X236107075Y-80543577D01*
X255333500Y-78897750D02*
X253687673Y-80543577D01*
X233128870Y-82611524D02*
X216118250Y-82611524D01*
X235651946Y-80088448D02*
X233128870Y-82611524D01*
X213393627Y-85336147D02*
X197205060Y-85336147D01*
X216118250Y-82611524D02*
X213393627Y-85336147D01*
X178415576Y-87912270D02*
X178340452Y-87987394D01*
X194628937Y-87912270D02*
X178415576Y-87912270D01*
X197205060Y-85336147D02*
X194628937Y-87912270D01*
X176262574Y-85909516D02*
X166442128Y-85909516D01*
X166442128Y-85909516D02*
X160703728Y-80171116D01*
X178340452Y-87987394D02*
X176262574Y-85909516D01*
X123846542Y-88499379D02*
X120547975Y-88499379D01*
X126410483Y-85935438D02*
X123846542Y-88499379D01*
X131742562Y-85935438D02*
X126410483Y-85935438D01*
X134747000Y-82931000D02*
X131742562Y-85935438D01*
X140503716Y-99187000D02*
X141732000Y-99187000D01*
X139029287Y-98772461D02*
X140089179Y-98772461D01*
X140089179Y-98772461D02*
X140503716Y-99187000D01*
X131742562Y-91485735D02*
X139029287Y-98772461D01*
X131742562Y-85935438D02*
X131742562Y-91485735D01*
X160669612Y-80137000D02*
X160703728Y-80171116D01*
X159004000Y-80137000D02*
X160669612Y-80137000D01*
X178340452Y-109503249D02*
X180991700Y-106852001D01*
X162127093Y-109503249D02*
X178340452Y-109503249D01*
X197205059Y-106852001D02*
X199856306Y-104200754D01*
X180991700Y-106852001D02*
X197205059Y-106852001D01*
X82818762Y-104712738D02*
X99032121Y-104712738D01*
X80167514Y-102061490D02*
X82818762Y-104712738D01*
X101585575Y-107266192D02*
X118007364Y-107266192D01*
X99032121Y-104712738D02*
X101585575Y-107266192D01*
X140977518Y-101587000D02*
X139525008Y-100134490D01*
X141732000Y-101587000D02*
X140977518Y-101587000D01*
X138096992Y-100134490D02*
X139525008Y-100134490D01*
X134347231Y-103884251D02*
X138096992Y-100134490D01*
X122233878Y-107266192D02*
X125615819Y-103884251D01*
X125615819Y-103884251D02*
X134347231Y-103884251D01*
X118007364Y-107266192D02*
X122233878Y-107266192D01*
X134491251Y-103884251D02*
X134347231Y-103884251D01*
X139827000Y-109220000D02*
X134491251Y-103884251D01*
X216633862Y-104200754D02*
X218879772Y-101954844D01*
X199856306Y-104200754D02*
X216633862Y-104200754D01*
X251707406Y-101954844D02*
X255397000Y-98265250D01*
X218879772Y-101954844D02*
X251707406Y-101954844D01*
X26558692Y-99931942D02*
X61492364Y-99931942D01*
X24574500Y-97947750D02*
X26558692Y-99931942D01*
X63621912Y-102061490D02*
X80167514Y-102061490D01*
X61492364Y-99931942D02*
X63621912Y-102061490D01*
X162127093Y-109503249D02*
X157001249Y-109503249D01*
X157001249Y-109503249D02*
X156972000Y-109474000D01*
X107459722Y-44836448D02*
X107445136Y-44851034D01*
X111454938Y-44836448D02*
X107459722Y-44836448D01*
X126324327Y-47487696D02*
X126309742Y-47502281D01*
X130319545Y-47487696D02*
X126324327Y-47487696D01*
X154851048Y-48522273D02*
X153727327Y-49645994D01*
X157564528Y-48522273D02*
X154851048Y-48522273D01*
X173711206Y-45875474D02*
X172591933Y-46994747D01*
X176442383Y-45875474D02*
X173711206Y-45875474D01*
X192558115Y-43224227D02*
X191443293Y-44339049D01*
X195306990Y-43224227D02*
X192558115Y-43224227D01*
X211402378Y-40568530D02*
X210356482Y-41614426D01*
X214158349Y-40568530D02*
X211402378Y-40568530D01*
X233611979Y-37941345D02*
X232764028Y-38789296D01*
X236683175Y-37941345D02*
X233611979Y-37941345D01*
X255936750Y-36925250D02*
X255365250Y-37496750D01*
X259302250Y-36925250D02*
X255936750Y-36925250D01*
X25559750Y-55975250D02*
X24638000Y-56897000D01*
X28543250Y-55975250D02*
X25559750Y-55975250D01*
X49596241Y-56779038D02*
X49876881Y-56498398D01*
X45950196Y-56779038D02*
X49596241Y-56779038D01*
X71067729Y-58405308D02*
X71074477Y-58398560D01*
X67031636Y-58405308D02*
X71067729Y-58405308D01*
X85943866Y-61049808D02*
X85929281Y-61064393D01*
X89939084Y-61049808D02*
X85943866Y-61049808D01*
X104808473Y-63701055D02*
X104793888Y-63715640D01*
X108803691Y-63701055D02*
X104808473Y-63701055D01*
X123673080Y-66352303D02*
X123658495Y-66366888D01*
X127668297Y-66352303D02*
X123673080Y-66352303D01*
X157484598Y-67386879D02*
X156365326Y-68506151D01*
X160215777Y-67386879D02*
X157484598Y-67386879D01*
X176349207Y-64735631D02*
X175229934Y-65854904D01*
X179080382Y-64735631D02*
X176349207Y-64735631D01*
X195215552Y-62082644D02*
X194094540Y-63203656D01*
X197957367Y-62082644D02*
X195215552Y-62082644D01*
X214307625Y-59433137D02*
X213134729Y-60606033D01*
X216809596Y-59433137D02*
X214307625Y-59433137D01*
X234940840Y-56944940D02*
X234092889Y-57792891D01*
X238012036Y-56944940D02*
X234940840Y-56944940D01*
X255906000Y-55975250D02*
X255333500Y-56547750D01*
X259302250Y-55975250D02*
X255906000Y-55975250D01*
X25147000Y-75025250D02*
X24574500Y-75597750D01*
X28543250Y-75025250D02*
X25147000Y-75025250D01*
X48104014Y-75946000D02*
X48548021Y-75501993D01*
X44577000Y-75946000D02*
X48104014Y-75946000D01*
X68234371Y-77074308D02*
X68423230Y-77263167D01*
X64491636Y-77074308D02*
X68234371Y-77074308D01*
X83292620Y-79914414D02*
X83278034Y-79929000D01*
X87287836Y-79914414D02*
X83292620Y-79914414D01*
X102157226Y-82565662D02*
X102142641Y-82580247D01*
X106152443Y-82565662D02*
X102157226Y-82565662D01*
X121021833Y-85216909D02*
X121007247Y-85231495D01*
X125017050Y-85216909D02*
X121021833Y-85216909D01*
X161163000Y-84547463D02*
X162867023Y-86251486D01*
X161163000Y-83439000D02*
X161163000Y-84547463D01*
X179000452Y-83600238D02*
X177881180Y-84719510D01*
X181731630Y-83600238D02*
X179000452Y-83600238D01*
X197860611Y-80953440D02*
X196745788Y-82068263D01*
X200609485Y-80953440D02*
X197860611Y-80953440D01*
X216704875Y-78297743D02*
X215658978Y-79343640D01*
X219460842Y-78297743D02*
X216704875Y-78297743D01*
X239340897Y-75948535D02*
X239340897Y-76145897D01*
X238690308Y-76796486D02*
X235421750Y-76796486D01*
X239340897Y-76145897D02*
X238690308Y-76796486D01*
X255906000Y-75025250D02*
X255333500Y-75597750D01*
X259302250Y-75025250D02*
X255906000Y-75025250D01*
X25147000Y-94075250D02*
X24574500Y-94647750D01*
X28543250Y-94075250D02*
X25147000Y-94075250D01*
X80641371Y-98779021D02*
X80626786Y-98793606D01*
X84636589Y-98779021D02*
X80641371Y-98779021D01*
X99505978Y-101430269D02*
X99491393Y-101444854D01*
X103501195Y-101430269D02*
X99505978Y-101430269D01*
X118557110Y-104088782D02*
X118466636Y-103998308D01*
X122390298Y-104088782D02*
X118557110Y-104088782D01*
X162787093Y-105116093D02*
X161667821Y-106235365D01*
X165518271Y-105116093D02*
X162787093Y-105116093D01*
X181651700Y-102464845D02*
X180532428Y-103584117D01*
X184382878Y-102464845D02*
X181651700Y-102464845D01*
X200516306Y-99813598D02*
X199397034Y-100932870D01*
X203247483Y-99813598D02*
X200516306Y-99813598D01*
X256287000Y-94075250D02*
X255397000Y-94965250D01*
X259334000Y-94075250D02*
X256287000Y-94075250D01*
D28*
X145832000Y-92361999D02*
X145657000Y-92186999D01*
X145832000Y-93487000D02*
X145832000Y-92361999D01*
X145657000Y-92186999D02*
X145657000Y-88315800D01*
X145576500Y-87722250D02*
X146304000Y-86994750D01*
X145576500Y-88235300D02*
X145576500Y-87722250D01*
X145657000Y-88315800D02*
X145576500Y-88235300D01*
X145032000Y-92361999D02*
X145207000Y-92186999D01*
X145032000Y-93487000D02*
X145032000Y-92361999D01*
X145207000Y-92186999D02*
X145207000Y-88502200D01*
X145126500Y-88421700D02*
X145126500Y-87722250D01*
X145207000Y-88502200D02*
X145126500Y-88421700D01*
X145126500Y-87722250D02*
X144399000Y-86994750D01*
D27*
X140819584Y-100787000D02*
X141732000Y-100787000D01*
X139713065Y-99680481D02*
X140819584Y-100787000D01*
X135240481Y-99680481D02*
X139713065Y-99680481D01*
X132334000Y-96774000D02*
X135240481Y-99680481D01*
X101092000Y-96774000D02*
X132334000Y-96774000D01*
X95853250Y-91535250D02*
X101092000Y-96774000D01*
X34893250Y-91535250D02*
X95853250Y-91535250D01*
X140661650Y-99987000D02*
X139901122Y-99226471D01*
X141732000Y-99987000D02*
X140661650Y-99987000D01*
X139901122Y-99226471D02*
X139192000Y-99226471D01*
X117475000Y-83503023D02*
X117475000Y-86741000D01*
X107383111Y-73411134D02*
X117475000Y-83503023D01*
X55059734Y-73411134D02*
X107383111Y-73411134D01*
X130673760Y-91059000D02*
X138841230Y-99226471D01*
X117475000Y-91059000D02*
X130673760Y-91059000D01*
X138841230Y-99226471D02*
X139065000Y-99226471D01*
X138684000Y-114173000D02*
X141245198Y-114173000D01*
X141245198Y-114173000D02*
X148232000Y-107186198D01*
X148232000Y-107186198D02*
X148232000Y-104887000D01*
X147432000Y-107344132D02*
X147432000Y-104887000D01*
X141873132Y-112903000D02*
X147432000Y-107344132D01*
X138684000Y-112903000D02*
X141873132Y-112903000D01*
X146632000Y-107502066D02*
X146632000Y-104887000D01*
X142501066Y-111633000D02*
X146632000Y-107502066D01*
X138684000Y-111633000D02*
X142501066Y-111633000D01*
X145832000Y-107660000D02*
X145832000Y-104887000D01*
X143002000Y-110490000D02*
X145832000Y-107660000D01*
X138684000Y-110490000D02*
X143002000Y-110490000D01*
X170173037Y-102997000D02*
X171452974Y-101717063D01*
X156346000Y-102997000D02*
X170173037Y-102997000D01*
X154136000Y-100787000D02*
X156346000Y-102997000D01*
X153132000Y-100787000D02*
X154136000Y-100787000D01*
X156157943Y-103451010D02*
X154293934Y-101587000D01*
X176216184Y-99065815D02*
X171830989Y-103451010D01*
X154293934Y-101587000D02*
X153132000Y-101587000D01*
X171830989Y-103451010D02*
X156157943Y-103451010D01*
X190317581Y-99065815D02*
X176216184Y-99065815D01*
X154451868Y-102387000D02*
X153132000Y-102387000D01*
X160473536Y-107091499D02*
X157287057Y-103905020D01*
X165654827Y-107091499D02*
X160473536Y-107091499D01*
X155969886Y-103905020D02*
X154451868Y-102387000D01*
X168841306Y-103905020D02*
X165654827Y-107091499D01*
X157287057Y-103905020D02*
X155969886Y-103905020D01*
X172019046Y-103905020D02*
X168841306Y-103905020D01*
X175431250Y-100492816D02*
X172019046Y-103905020D01*
X191002542Y-100492816D02*
X175431250Y-100492816D01*
X195080790Y-96414568D02*
X191002542Y-100492816D01*
X209182186Y-96414568D02*
X195080790Y-96414568D01*
X201006964Y-97841569D02*
X215340431Y-97841569D01*
X169029363Y-104359030D02*
X174405970Y-104359030D01*
X174405970Y-104359030D02*
X177727156Y-101037844D01*
X165842884Y-107545509D02*
X169029363Y-104359030D01*
X160285479Y-107545509D02*
X165842884Y-107545509D01*
X197810689Y-101037844D02*
X201006964Y-97841569D01*
X177727156Y-101037844D02*
X197810689Y-101037844D01*
X157099000Y-104359030D02*
X160285479Y-107545509D01*
X153775030Y-104359030D02*
X157099000Y-104359030D01*
X153132000Y-103716000D02*
X153775030Y-104359030D01*
X153132000Y-103187000D02*
X153132000Y-103716000D01*
X228048928Y-93764026D02*
X228048928Y-93809928D01*
X219372072Y-93809928D02*
X215340431Y-97841569D01*
X228048928Y-93809928D02*
X219372072Y-93809928D01*
X149832000Y-108684000D02*
X149832000Y-104887000D01*
X152146000Y-110998000D02*
X149832000Y-108684000D01*
X193701126Y-110998000D02*
X152146000Y-110998000D01*
X199035126Y-105664000D02*
X193701126Y-110998000D01*
X227457000Y-105664000D02*
X199035126Y-105664000D01*
X265684000Y-97519212D02*
X265684000Y-91535250D01*
X230879236Y-104654764D02*
X258548448Y-104654764D01*
X229108000Y-106426000D02*
X230879236Y-104654764D01*
X199517000Y-106426000D02*
X229108000Y-106426000D01*
X194437000Y-111506000D02*
X199517000Y-106426000D01*
X152011934Y-111506000D02*
X194437000Y-111506000D01*
X258548448Y-104654764D02*
X265684000Y-97519212D01*
X149032000Y-108526066D02*
X152011934Y-111506000D01*
X149032000Y-104887000D02*
X149032000Y-108526066D01*
D26*
X160083500Y-96777652D02*
X160083500Y-96424750D01*
X162383500Y-99077652D02*
X160083500Y-96777652D01*
X162383500Y-99324750D02*
X162383500Y-99077652D01*
X166497000Y-96424750D02*
X165004750Y-97917000D01*
X165004750Y-97937500D02*
X166476500Y-99409250D01*
X165004750Y-97917000D02*
X165004750Y-97937500D01*
X163791250Y-97917000D02*
X162383500Y-99324750D01*
X165004750Y-97917000D02*
X163791250Y-97917000D01*
X143380000Y-37072000D02*
X144475000Y-38167000D01*
X143380000Y-36752000D02*
X143380000Y-37072000D01*
X152020000Y-37072000D02*
X150925000Y-38167000D01*
X152020000Y-36752000D02*
X152020000Y-37072000D01*
X141002000Y-41640000D02*
X141002000Y-42545000D01*
X144475000Y-38167000D02*
X141002000Y-41640000D01*
X151435000Y-38167000D02*
X150925000Y-38167000D01*
X155813000Y-42545000D02*
X151435000Y-38167000D01*
X150287510Y-43635510D02*
X149209000Y-42557000D01*
X154722490Y-43635510D02*
X150287510Y-43635510D01*
X155813000Y-42545000D02*
X154722490Y-43635510D01*
X140804098Y-95987000D02*
X141732000Y-95987000D01*
X139551500Y-94734402D02*
X140804098Y-95987000D01*
X139551500Y-91186000D02*
X139551500Y-94734402D01*
X140149000Y-102387000D02*
X141732000Y-102387000D01*
X138811000Y-101049000D02*
X140149000Y-102387000D01*
X151432000Y-105669000D02*
X152824000Y-107061000D01*
X151432000Y-104887000D02*
X151432000Y-105669000D01*
X142659902Y-102387000D02*
X141732000Y-102387000D01*
X142872501Y-102599599D02*
X142659902Y-102387000D01*
X142872501Y-103774401D02*
X142872501Y-102599599D01*
X142145000Y-104501902D02*
X142872501Y-103774401D01*
X142145000Y-107061000D02*
X142145000Y-104501902D01*
X152204098Y-97587000D02*
X153132000Y-97587000D01*
X150604098Y-95987000D02*
X152204098Y-97587000D01*
X146632000Y-94618000D02*
X145263000Y-95987000D01*
X146632000Y-93487000D02*
X146632000Y-94618000D01*
X145263000Y-95987000D02*
X150604098Y-95987000D01*
X141732000Y-95987000D02*
X145263000Y-95987000D01*
X145263000Y-100209100D02*
X142872501Y-102599599D01*
X145263000Y-95987000D02*
X145263000Y-100209100D01*
X151432000Y-102156000D02*
X145263000Y-95987000D01*
X151432000Y-104887000D02*
X151432000Y-102156000D01*
X154722490Y-45683510D02*
X150749000Y-49657000D01*
X154722490Y-43635510D02*
X154722490Y-45683510D01*
X141125500Y-53946500D02*
X141125500Y-87376000D01*
X145415000Y-49657000D02*
X141125500Y-53946500D01*
X149055000Y-89027000D02*
X149182000Y-89154000D01*
X147320000Y-89027000D02*
X149055000Y-89027000D01*
X149182000Y-89154000D02*
X149182000Y-84752000D01*
X149182000Y-84752000D02*
X151130000Y-82804000D01*
X151130000Y-76327000D02*
X152908000Y-74549000D01*
X151130000Y-82804000D02*
X151130000Y-76327000D01*
X170699500Y-93925000D02*
X176899500Y-93925000D01*
X163605499Y-73308499D02*
X174498000Y-84201000D01*
X154148501Y-73308499D02*
X163605499Y-73308499D01*
X152908000Y-74549000D02*
X154148501Y-73308499D01*
X174922500Y-91948000D02*
X176899500Y-93925000D01*
X174498000Y-91948000D02*
X174922500Y-91948000D01*
X164592000Y-94519750D02*
X166497000Y-96424750D01*
X164592000Y-94255500D02*
X164592000Y-94519750D01*
X154059902Y-97587000D02*
X153132000Y-97587000D01*
X157391402Y-94255500D02*
X154059902Y-97587000D01*
X164592000Y-94255500D02*
X157391402Y-94255500D01*
X146632000Y-92170000D02*
X146632000Y-93487000D01*
X149182000Y-89620000D02*
X146632000Y-92170000D01*
X149182000Y-89154000D02*
X149182000Y-89620000D01*
D27*
X147432000Y-92598000D02*
X147432000Y-93487000D01*
X149823990Y-90206010D02*
X147432000Y-92598000D01*
X150204990Y-90206010D02*
X149823990Y-90206010D01*
X151257000Y-89154000D02*
X150204990Y-90206010D01*
X153269750Y-99324750D02*
X153132000Y-99187000D01*
X160083500Y-99324750D02*
X153269750Y-99324750D01*
X163833999Y-100701751D02*
X161280751Y-100701751D01*
X164401500Y-100134250D02*
X163833999Y-100701751D01*
X164401500Y-99409250D02*
X164401500Y-100134250D01*
X160083500Y-99504500D02*
X160083500Y-99324750D01*
X161280751Y-100701751D02*
X160083500Y-99504500D01*
X154136000Y-98387000D02*
X153132000Y-98387000D01*
X157475251Y-95047749D02*
X154136000Y-98387000D01*
X162310499Y-95047749D02*
X157475251Y-95047749D01*
X162383500Y-95120750D02*
X162310499Y-95047749D01*
X162383500Y-96424750D02*
X162383500Y-95120750D01*
X164422000Y-96424750D02*
X162383500Y-96424750D01*
X170699500Y-90225000D02*
X176899500Y-90225000D01*
X152908000Y-78486000D02*
X152400000Y-78994000D01*
X152908000Y-77089000D02*
X152908000Y-78486000D01*
X157226000Y-86344000D02*
X159893000Y-89011000D01*
X157226000Y-78994000D02*
X157226000Y-86344000D01*
X159193000Y-89011000D02*
X159893000Y-89011000D01*
X157133999Y-91070001D02*
X159193000Y-89011000D01*
X157133999Y-92798603D02*
X157133999Y-91070001D01*
X153945602Y-95987000D02*
X157133999Y-92798603D01*
X153132000Y-95987000D02*
X153945602Y-95987000D01*
X170360982Y-90563518D02*
X170699500Y-90225000D01*
X161445518Y-90563518D02*
X170360982Y-90563518D01*
X159893000Y-89011000D02*
X161445518Y-90563518D01*
X150632000Y-92767029D02*
X150632000Y-93487000D01*
X152727010Y-90672019D02*
X150632000Y-92767029D01*
X152727010Y-80571990D02*
X152727010Y-90672019D01*
X153162000Y-80137000D02*
X152727010Y-80571990D01*
X154178000Y-80137000D02*
X153162000Y-80137000D01*
X156625001Y-77689999D02*
X154178000Y-80137000D01*
X156625001Y-75726001D02*
X156625001Y-77689999D01*
X155448000Y-74549000D02*
X156625001Y-75726001D01*
X151288453Y-91468509D02*
X152273000Y-90483962D01*
X150846491Y-91468509D02*
X151288453Y-91468509D01*
X149832000Y-92483000D02*
X150846491Y-91468509D01*
X149832000Y-93487000D02*
X149832000Y-92483000D01*
X152273000Y-80264000D02*
X152273000Y-88138000D01*
X152273000Y-88138000D02*
X152273000Y-88011000D01*
X152273000Y-90483962D02*
X152273000Y-88138000D01*
X155448000Y-77089000D02*
X152273000Y-80264000D01*
X151432000Y-92609095D02*
X151432000Y-93487000D01*
X153181020Y-81260980D02*
X153181020Y-90860076D01*
X153539467Y-80902533D02*
X153181020Y-81260980D01*
X154174467Y-80902533D02*
X153539467Y-80902533D01*
X153181020Y-90860076D02*
X151432000Y-92609095D01*
X157988000Y-77089000D02*
X154174467Y-80902533D01*
X147450000Y-38167000D02*
X147472999Y-38167000D01*
X148450000Y-36703398D02*
X148450000Y-38167000D01*
X148361601Y-36614999D02*
X148450000Y-36703398D01*
X147538399Y-36614999D02*
X148361601Y-36614999D01*
X147450000Y-36703398D02*
X147538399Y-36614999D01*
X147450000Y-38167000D02*
X147450000Y-36703398D01*
D28*
X148450000Y-40004501D02*
X148425000Y-40029501D01*
X148450000Y-38167000D02*
X148450000Y-40004501D01*
X148425000Y-40029501D02*
X148425000Y-43077800D01*
X148434000Y-43086800D02*
X148425000Y-43077800D01*
X148434000Y-43432000D02*
X148434000Y-43086800D01*
X149209000Y-44207000D02*
X148434000Y-43432000D01*
X149209000Y-44257000D02*
X149209000Y-44207000D01*
X149209000Y-44782001D02*
X149209000Y-44257000D01*
X148434000Y-45557001D02*
X149209000Y-44782001D01*
X148434000Y-81596147D02*
X148434000Y-45557001D01*
X146304000Y-83726147D02*
X148434000Y-81596147D01*
X146304000Y-84994750D02*
X146304000Y-83726147D01*
D27*
X147950000Y-39630602D02*
X147950000Y-38167000D01*
X147861601Y-39719001D02*
X147950000Y-39630602D01*
X147038399Y-39719001D02*
X147861601Y-39719001D01*
X146950000Y-39630602D02*
X147038399Y-39719001D01*
X146950000Y-38167000D02*
X146950000Y-39630602D01*
D28*
X147950000Y-38167000D02*
X147950000Y-40004501D01*
X147950000Y-40004501D02*
X147975000Y-40029501D01*
X147975000Y-40029501D02*
X147975000Y-43264200D01*
X147984000Y-43273200D02*
X147975000Y-43264200D01*
X147209000Y-44257000D02*
X147209000Y-44207000D01*
X147984000Y-43432000D02*
X147984000Y-43273200D01*
X147209000Y-44207000D02*
X147984000Y-43432000D01*
X147209000Y-44782001D02*
X147209000Y-44257000D01*
X147984000Y-45557001D02*
X147209000Y-44782001D01*
X147984000Y-81409750D02*
X147984000Y-45557001D01*
X144399000Y-84994750D02*
X147984000Y-81409750D01*
D27*
X149450000Y-39646000D02*
X149450000Y-38167000D01*
X152349000Y-42545000D02*
X149450000Y-39646000D01*
X153813000Y-42545000D02*
X152349000Y-42545000D01*
X146450000Y-39697000D02*
X146450000Y-38167000D01*
X143602000Y-42545000D02*
X146450000Y-39697000D01*
X143002000Y-42545000D02*
X143602000Y-42545000D01*
X143432000Y-106348000D02*
X143432000Y-104887000D01*
X144145000Y-107061000D02*
X143432000Y-106348000D01*
X62488027Y-96127667D02*
X61951636Y-96664058D01*
X65770730Y-96127667D02*
X62488027Y-96127667D01*
X219944404Y-97163056D02*
X218420500Y-98686960D01*
X222114225Y-97163056D02*
X219944404Y-97163056D01*
X168148000Y-101981000D02*
X156718000Y-101981000D01*
X156718000Y-100086750D01*
X158545428Y-100086750D01*
X158545428Y-100374750D01*
X158557688Y-100499232D01*
X158593998Y-100618930D01*
X158652963Y-100729244D01*
X158732315Y-100825935D01*
X158829006Y-100905287D01*
X158939320Y-100964252D01*
X159059018Y-101000562D01*
X159183500Y-101012822D01*
X160514192Y-101012822D01*
X160715467Y-101214097D01*
X160739329Y-101243173D01*
X160801243Y-101293984D01*
X160855358Y-101338396D01*
X160926115Y-101376216D01*
X160987736Y-101409153D01*
X161131373Y-101452725D01*
X161243325Y-101463751D01*
X161243328Y-101463751D01*
X161280751Y-101467437D01*
X161318174Y-101463751D01*
X163796576Y-101463751D01*
X163833999Y-101467437D01*
X163871422Y-101463751D01*
X163871425Y-101463751D01*
X163983377Y-101452725D01*
X164127014Y-101409153D01*
X164259391Y-101338396D01*
X164375421Y-101243173D01*
X164399283Y-101214097D01*
X164852208Y-100761172D01*
X164912254Y-100755258D01*
X165078850Y-100704722D01*
X165232386Y-100622655D01*
X165366962Y-100512212D01*
X165372342Y-100505656D01*
X165437815Y-100585435D01*
X165534506Y-100664787D01*
X165644820Y-100723752D01*
X165764518Y-100760062D01*
X165889000Y-100772322D01*
X166190750Y-100769250D01*
X166349500Y-100610500D01*
X166349500Y-99536250D01*
X166603500Y-99536250D01*
X166603500Y-100610500D01*
X166762250Y-100769250D01*
X167064000Y-100772322D01*
X167188482Y-100760062D01*
X167308180Y-100723752D01*
X167418494Y-100664787D01*
X167515185Y-100585435D01*
X167594537Y-100488744D01*
X167653502Y-100378430D01*
X167689812Y-100258732D01*
X167702072Y-100134250D01*
X167699000Y-99695000D01*
X167540250Y-99536250D01*
X166603500Y-99536250D01*
X166349500Y-99536250D01*
X166329500Y-99536250D01*
X166329500Y-99282250D01*
X166349500Y-99282250D01*
X166349500Y-98208000D01*
X166603500Y-98208000D01*
X166603500Y-99282250D01*
X167540250Y-99282250D01*
X167699000Y-99123500D01*
X167702072Y-98684250D01*
X167689812Y-98559768D01*
X167653502Y-98440070D01*
X167594537Y-98329756D01*
X167515185Y-98233065D01*
X167418494Y-98153713D01*
X167308180Y-98094748D01*
X167188482Y-98058438D01*
X167064000Y-98046178D01*
X166762250Y-98049250D01*
X166603500Y-98208000D01*
X166349500Y-98208000D01*
X166190750Y-98049250D01*
X165889000Y-98046178D01*
X165764518Y-98058438D01*
X165644820Y-98094748D01*
X165534506Y-98153713D01*
X165437815Y-98233065D01*
X165372342Y-98312844D01*
X165366962Y-98306288D01*
X165232386Y-98195845D01*
X165078850Y-98113778D01*
X164912254Y-98063242D01*
X164739000Y-98046178D01*
X164064000Y-98046178D01*
X163890746Y-98063242D01*
X163883573Y-98065418D01*
X163873002Y-98030570D01*
X163814037Y-97920256D01*
X163776691Y-97874750D01*
X163814037Y-97829244D01*
X163854500Y-97753544D01*
X163911246Y-97770758D01*
X164084500Y-97787822D01*
X164759500Y-97787822D01*
X164932754Y-97770758D01*
X165099350Y-97720222D01*
X165252886Y-97638155D01*
X165387462Y-97527712D01*
X165392842Y-97521156D01*
X165458315Y-97600935D01*
X165555006Y-97680287D01*
X165665320Y-97739252D01*
X165785018Y-97775562D01*
X165909500Y-97787822D01*
X166211250Y-97784750D01*
X166370000Y-97626000D01*
X166370000Y-96551750D01*
X166624000Y-96551750D01*
X166624000Y-97626000D01*
X166782750Y-97784750D01*
X167084500Y-97787822D01*
X167208982Y-97775562D01*
X167328680Y-97739252D01*
X167438994Y-97680287D01*
X167535685Y-97600935D01*
X167615037Y-97504244D01*
X167674002Y-97393930D01*
X167710312Y-97274232D01*
X167722572Y-97149750D01*
X167719500Y-96710500D01*
X167560750Y-96551750D01*
X166624000Y-96551750D01*
X166370000Y-96551750D01*
X166350000Y-96551750D01*
X166350000Y-96297750D01*
X166370000Y-96297750D01*
X166370000Y-95223500D01*
X166624000Y-95223500D01*
X166624000Y-96297750D01*
X167560750Y-96297750D01*
X167719500Y-96139000D01*
X167722572Y-95699750D01*
X167710312Y-95575268D01*
X167674002Y-95455570D01*
X167615037Y-95345256D01*
X167535685Y-95248565D01*
X167438994Y-95169213D01*
X167328680Y-95110248D01*
X167208982Y-95073938D01*
X167084500Y-95061678D01*
X166782750Y-95064750D01*
X166624000Y-95223500D01*
X166370000Y-95223500D01*
X166211250Y-95064750D01*
X165914223Y-95061726D01*
X165942812Y-94967482D01*
X165955072Y-94843000D01*
X165952000Y-94541250D01*
X165793250Y-94382500D01*
X164719000Y-94382500D01*
X164719000Y-94402500D01*
X164465000Y-94402500D01*
X164465000Y-94382500D01*
X163390750Y-94382500D01*
X163232000Y-94541250D01*
X163230010Y-94736678D01*
X163042231Y-94736678D01*
X163020145Y-94695358D01*
X162924922Y-94579328D01*
X162895846Y-94555466D01*
X162875783Y-94535403D01*
X162851921Y-94506327D01*
X162735891Y-94411104D01*
X162603514Y-94340347D01*
X162459877Y-94296775D01*
X162347925Y-94285749D01*
X162347922Y-94285749D01*
X162310499Y-94282063D01*
X162273076Y-94285749D01*
X157706914Y-94285749D01*
X158986664Y-93006000D01*
X163375716Y-93006000D01*
X163378595Y-93011386D01*
X163489038Y-93145962D01*
X163495594Y-93151342D01*
X163415815Y-93216815D01*
X163336463Y-93313506D01*
X163277498Y-93423820D01*
X163241188Y-93543518D01*
X163228928Y-93668000D01*
X163232000Y-93969750D01*
X163390750Y-94128500D01*
X164465000Y-94128500D01*
X164465000Y-94108500D01*
X164719000Y-94108500D01*
X164719000Y-94128500D01*
X165793250Y-94128500D01*
X165952000Y-93969750D01*
X165955072Y-93668000D01*
X165942812Y-93543518D01*
X165906502Y-93423820D01*
X165847537Y-93313506D01*
X165768185Y-93216815D01*
X165688406Y-93151342D01*
X165694962Y-93145962D01*
X165805405Y-93011386D01*
X165887472Y-92857850D01*
X165938008Y-92691254D01*
X165955072Y-92518000D01*
X165955072Y-91843000D01*
X165938008Y-91669746D01*
X165887472Y-91503150D01*
X165853717Y-91440000D01*
X168148000Y-91440000D01*
X168148000Y-101981000D01*
G04 #@! TA.AperFunction,Conductor*
D29*
G36*
X168148000Y-101981000D02*
G01*
X156718000Y-101981000D01*
X156718000Y-100086750D01*
X158545428Y-100086750D01*
X158545428Y-100374750D01*
X158557688Y-100499232D01*
X158593998Y-100618930D01*
X158652963Y-100729244D01*
X158732315Y-100825935D01*
X158829006Y-100905287D01*
X158939320Y-100964252D01*
X159059018Y-101000562D01*
X159183500Y-101012822D01*
X160514192Y-101012822D01*
X160715467Y-101214097D01*
X160739329Y-101243173D01*
X160801243Y-101293984D01*
X160855358Y-101338396D01*
X160926115Y-101376216D01*
X160987736Y-101409153D01*
X161131373Y-101452725D01*
X161243325Y-101463751D01*
X161243328Y-101463751D01*
X161280751Y-101467437D01*
X161318174Y-101463751D01*
X163796576Y-101463751D01*
X163833999Y-101467437D01*
X163871422Y-101463751D01*
X163871425Y-101463751D01*
X163983377Y-101452725D01*
X164127014Y-101409153D01*
X164259391Y-101338396D01*
X164375421Y-101243173D01*
X164399283Y-101214097D01*
X164852208Y-100761172D01*
X164912254Y-100755258D01*
X165078850Y-100704722D01*
X165232386Y-100622655D01*
X165366962Y-100512212D01*
X165372342Y-100505656D01*
X165437815Y-100585435D01*
X165534506Y-100664787D01*
X165644820Y-100723752D01*
X165764518Y-100760062D01*
X165889000Y-100772322D01*
X166190750Y-100769250D01*
X166349500Y-100610500D01*
X166349500Y-99536250D01*
X166603500Y-99536250D01*
X166603500Y-100610500D01*
X166762250Y-100769250D01*
X167064000Y-100772322D01*
X167188482Y-100760062D01*
X167308180Y-100723752D01*
X167418494Y-100664787D01*
X167515185Y-100585435D01*
X167594537Y-100488744D01*
X167653502Y-100378430D01*
X167689812Y-100258732D01*
X167702072Y-100134250D01*
X167699000Y-99695000D01*
X167540250Y-99536250D01*
X166603500Y-99536250D01*
X166349500Y-99536250D01*
X166329500Y-99536250D01*
X166329500Y-99282250D01*
X166349500Y-99282250D01*
X166349500Y-98208000D01*
X166603500Y-98208000D01*
X166603500Y-99282250D01*
X167540250Y-99282250D01*
X167699000Y-99123500D01*
X167702072Y-98684250D01*
X167689812Y-98559768D01*
X167653502Y-98440070D01*
X167594537Y-98329756D01*
X167515185Y-98233065D01*
X167418494Y-98153713D01*
X167308180Y-98094748D01*
X167188482Y-98058438D01*
X167064000Y-98046178D01*
X166762250Y-98049250D01*
X166603500Y-98208000D01*
X166349500Y-98208000D01*
X166190750Y-98049250D01*
X165889000Y-98046178D01*
X165764518Y-98058438D01*
X165644820Y-98094748D01*
X165534506Y-98153713D01*
X165437815Y-98233065D01*
X165372342Y-98312844D01*
X165366962Y-98306288D01*
X165232386Y-98195845D01*
X165078850Y-98113778D01*
X164912254Y-98063242D01*
X164739000Y-98046178D01*
X164064000Y-98046178D01*
X163890746Y-98063242D01*
X163883573Y-98065418D01*
X163873002Y-98030570D01*
X163814037Y-97920256D01*
X163776691Y-97874750D01*
X163814037Y-97829244D01*
X163854500Y-97753544D01*
X163911246Y-97770758D01*
X164084500Y-97787822D01*
X164759500Y-97787822D01*
X164932754Y-97770758D01*
X165099350Y-97720222D01*
X165252886Y-97638155D01*
X165387462Y-97527712D01*
X165392842Y-97521156D01*
X165458315Y-97600935D01*
X165555006Y-97680287D01*
X165665320Y-97739252D01*
X165785018Y-97775562D01*
X165909500Y-97787822D01*
X166211250Y-97784750D01*
X166370000Y-97626000D01*
X166370000Y-96551750D01*
X166624000Y-96551750D01*
X166624000Y-97626000D01*
X166782750Y-97784750D01*
X167084500Y-97787822D01*
X167208982Y-97775562D01*
X167328680Y-97739252D01*
X167438994Y-97680287D01*
X167535685Y-97600935D01*
X167615037Y-97504244D01*
X167674002Y-97393930D01*
X167710312Y-97274232D01*
X167722572Y-97149750D01*
X167719500Y-96710500D01*
X167560750Y-96551750D01*
X166624000Y-96551750D01*
X166370000Y-96551750D01*
X166350000Y-96551750D01*
X166350000Y-96297750D01*
X166370000Y-96297750D01*
X166370000Y-95223500D01*
X166624000Y-95223500D01*
X166624000Y-96297750D01*
X167560750Y-96297750D01*
X167719500Y-96139000D01*
X167722572Y-95699750D01*
X167710312Y-95575268D01*
X167674002Y-95455570D01*
X167615037Y-95345256D01*
X167535685Y-95248565D01*
X167438994Y-95169213D01*
X167328680Y-95110248D01*
X167208982Y-95073938D01*
X167084500Y-95061678D01*
X166782750Y-95064750D01*
X166624000Y-95223500D01*
X166370000Y-95223500D01*
X166211250Y-95064750D01*
X165914223Y-95061726D01*
X165942812Y-94967482D01*
X165955072Y-94843000D01*
X165952000Y-94541250D01*
X165793250Y-94382500D01*
X164719000Y-94382500D01*
X164719000Y-94402500D01*
X164465000Y-94402500D01*
X164465000Y-94382500D01*
X163390750Y-94382500D01*
X163232000Y-94541250D01*
X163230010Y-94736678D01*
X163042231Y-94736678D01*
X163020145Y-94695358D01*
X162924922Y-94579328D01*
X162895846Y-94555466D01*
X162875783Y-94535403D01*
X162851921Y-94506327D01*
X162735891Y-94411104D01*
X162603514Y-94340347D01*
X162459877Y-94296775D01*
X162347925Y-94285749D01*
X162347922Y-94285749D01*
X162310499Y-94282063D01*
X162273076Y-94285749D01*
X157706914Y-94285749D01*
X158986664Y-93006000D01*
X163375716Y-93006000D01*
X163378595Y-93011386D01*
X163489038Y-93145962D01*
X163495594Y-93151342D01*
X163415815Y-93216815D01*
X163336463Y-93313506D01*
X163277498Y-93423820D01*
X163241188Y-93543518D01*
X163228928Y-93668000D01*
X163232000Y-93969750D01*
X163390750Y-94128500D01*
X164465000Y-94128500D01*
X164465000Y-94108500D01*
X164719000Y-94108500D01*
X164719000Y-94128500D01*
X165793250Y-94128500D01*
X165952000Y-93969750D01*
X165955072Y-93668000D01*
X165942812Y-93543518D01*
X165906502Y-93423820D01*
X165847537Y-93313506D01*
X165768185Y-93216815D01*
X165688406Y-93151342D01*
X165694962Y-93145962D01*
X165805405Y-93011386D01*
X165887472Y-92857850D01*
X165938008Y-92691254D01*
X165955072Y-92518000D01*
X165955072Y-91843000D01*
X165938008Y-91669746D01*
X165887472Y-91503150D01*
X165853717Y-91440000D01*
X168148000Y-91440000D01*
X168148000Y-101981000D01*
G37*
G04 #@! TD.AperFunction*
D27*
X162510500Y-99197750D02*
X162530500Y-99197750D01*
X162530500Y-99451750D01*
X162510500Y-99451750D01*
X162510500Y-99471750D01*
X162256500Y-99471750D01*
X162256500Y-99451750D01*
X162236500Y-99451750D01*
X162236500Y-99197750D01*
X162256500Y-99197750D01*
X162256500Y-99177750D01*
X162510500Y-99177750D01*
X162510500Y-99197750D01*
G04 #@! TA.AperFunction,Conductor*
D29*
G36*
X162510500Y-99197750D02*
G01*
X162530500Y-99197750D01*
X162530500Y-99451750D01*
X162510500Y-99451750D01*
X162510500Y-99471750D01*
X162256500Y-99471750D01*
X162256500Y-99451750D01*
X162236500Y-99451750D01*
X162236500Y-99197750D01*
X162256500Y-99197750D01*
X162256500Y-99177750D01*
X162510500Y-99177750D01*
X162510500Y-99197750D01*
G37*
G04 #@! TD.AperFunction*
D27*
X158548500Y-96139000D02*
X158707250Y-96297750D01*
X159956500Y-96297750D01*
X159956500Y-96277750D01*
X160210500Y-96277750D01*
X160210500Y-96297750D01*
X160230500Y-96297750D01*
X160230500Y-96551750D01*
X160210500Y-96551750D01*
X160210500Y-96571750D01*
X159956500Y-96571750D01*
X159956500Y-96551750D01*
X158707250Y-96551750D01*
X158548500Y-96710500D01*
X158545428Y-97474750D01*
X158557688Y-97599232D01*
X158593998Y-97718930D01*
X158652963Y-97829244D01*
X158690309Y-97874750D01*
X158652963Y-97920256D01*
X158593998Y-98030570D01*
X158557688Y-98150268D01*
X158545428Y-98274750D01*
X158545428Y-98562750D01*
X155037880Y-98562750D01*
X157790882Y-95809749D01*
X158547177Y-95809749D01*
X158548500Y-96139000D01*
G04 #@! TA.AperFunction,Conductor*
D29*
G36*
X158548500Y-96139000D02*
G01*
X158707250Y-96297750D01*
X159956500Y-96297750D01*
X159956500Y-96277750D01*
X160210500Y-96277750D01*
X160210500Y-96297750D01*
X160230500Y-96297750D01*
X160230500Y-96551750D01*
X160210500Y-96551750D01*
X160210500Y-96571750D01*
X159956500Y-96571750D01*
X159956500Y-96551750D01*
X158707250Y-96551750D01*
X158548500Y-96710500D01*
X158545428Y-97474750D01*
X158557688Y-97599232D01*
X158593998Y-97718930D01*
X158652963Y-97829244D01*
X158690309Y-97874750D01*
X158652963Y-97920256D01*
X158593998Y-98030570D01*
X158557688Y-98150268D01*
X158545428Y-98274750D01*
X158545428Y-98562750D01*
X155037880Y-98562750D01*
X157790882Y-95809749D01*
X158547177Y-95809749D01*
X158548500Y-96139000D01*
G37*
G04 #@! TD.AperFunction*
M02*
