  0
SECTION
  2
HEADER
  9
$ACADVER
  1
AC1014
  9
$HANDSEED
  5
FFFF
  9
$MEASUREMENT
 70
     1
  0
ENDSEC
  0
SECTION
  2
TABLES
  0
TABLE
  2
VPORT
  5
8
330
0
100
AcDbSymbolTable
 70
     4
  0
VPORT
  5
2E
330
8
100
AcDbSymbolTableRecord
100
AcDbViewportTableRecord
  2
*ACTIVE
 70
     0
 10
0.0
 20
0.0
 11
1.0
 21
1.0
 12
210.0
 22
148.5
 13
0.0
 23
0.0
 14
10.0
 24
10.0
 15
10.0
 25
10.0
 16
0.0
 26
0.0
 36
1.0
 17
0.0
 27
0.0
 37
0.0
 40
341.0
 41
1.24
 42
50.0
 43
0.0
 44
0.0
 50
0.0
 51
0.0
 71
     0
 72
   100
 73
     1
 74
     3
 75
     0
 76
     0
 77
     0
 78
     0
  0
ENDTAB
  0
TABLE
  2
LTYPE
  5
5
330
0
100
AcDbSymbolTable
 70
     1
  0
LTYPE
  5
14
330
5
100
AcDbSymbolTableRecord
100
AcDbLinetypeTableRecord
  2
BYBLOCK
 70
     0
  3

 72
    65
 73
     0
 40
0.0
  0
LTYPE
  5
15
330
5
100
AcDbSymbolTableRecord
100
AcDbLinetypeTableRecord
  2
BYLAYER
 70
     0
  3

 72
    65
 73
     0
 40
0.0
  0
LTYPE
  5
16
330
5
100
AcDbSymbolTableRecord
100
AcDbLinetypeTableRecord
  2
CONTINUOUS
 70
     0
  3
Solid line
 72
    65
 73
     0
 40
0.0
  0
ENDTAB
  0
TABLE
  2
LAYER
  5
2
100
AcDbSymbolTable
 70
1
  0
LAYER
  5
50
100
AcDbSymbolTableRecord
100
AcDbLayerTableRecord
  2
0
 70
0
  6
CONTINUOUS
  0
ENDTAB
  0
TABLE
  2
STYLE
  5
3
330
0
100
AcDbSymbolTable
 70
     1
  0
STYLE
  5
11
330
3
100
AcDbSymbolTableRecord
100
AcDbTextStyleTableRecord
  2
STANDARD
 70
     0
 40
0.0
 41
1.0
 50
0.0
 71
     0
 42
2.5
  3
txt
  4

  0
ENDTAB
  0
TABLE
  2
VIEW
  5
6
330
0
100
AcDbSymbolTable
 70
     0
  0
ENDTAB
  0
TABLE
  2
UCS
  5
7
330
0
100
AcDbSymbolTable
 70
     0
  0
ENDTAB
  0
TABLE
  2
APPID
  5
9
330
0
100
AcDbSymbolTable
 70
     2
  0
APPID
  5
12
330
9
100
AcDbSymbolTableRecord
100
AcDbRegAppTableRecord
  2
ACAD
 70
     0
  0
ENDTAB
  0
TABLE
  2
DIMSTYLE
  5
A
330
0
100
AcDbSymbolTable
 70
     1
  0
DIMSTYLE
105
27
330
A
100
AcDbSymbolTableRecord
100
AcDbDimStyleTableRecord
  2
ISO-25
 70
     0
  3

  4

  5

  6

  7

 40
1.0
 41
2.5
 42
0.625
 43
3.75
 44
1.25
 45
0.0
 46
0.0
 47
0.0
 48
0.0
140
2.5
141
2.5
142
0.0
143
0.03937007874016
144
1.0
145
0.0
146
1.0
147
0.625
 71
     0
 72
     0
 73
     0
 74
     0
 75
     0
 76
     0
 77
     1
 78
     8
170
     0
171
     3
172
     1
173
     0
174
     0
175
     0
176
     0
177
     0
178
     0
270
     2
271
     2
272
     2
273
     2
274
     3
340
11
275
     0
280
     0
281
     0
282
     0
283
     0
284
     8
285
     0
286
     0
287
     3
288
     0
  0
ENDTAB
  0
TABLE
  2
BLOCK_RECORD
  5
1
330
0
100
AcDbSymbolTable
 70
     1
  0
BLOCK_RECORD
  5
1F
330
1
100
AcDbSymbolTableRecord
100
AcDbBlockTableRecord
  2
*MODEL_SPACE
  0
BLOCK_RECORD
  5
1B
330
1
100
AcDbSymbolTableRecord
100
AcDbBlockTableRecord
  2
*PAPER_SPACE
  0
ENDTAB
  0
ENDSEC
  0
SECTION
  2
BLOCKS
  0
BLOCK
  5
20
330
1F
100
AcDbEntity
  8
0
100
AcDbBlockBegin
  2
*MODEL_SPACE
 70
     0
 10
0.0
 20
0.0
 30
0.0
  3
*MODEL_SPACE
  1

  0
ENDBLK
  5
21
330
1F
100
AcDbEntity
  8
0
100
AcDbBlockEnd
  0
BLOCK
  5
1C
330
1B
100
AcDbEntity
 67
     1
  8
0
100
AcDbBlockBegin
  2
*PAPER_SPACE
  1

  0
ENDBLK
  5
1D
330
1B
100
AcDbEntity
 67
     1
  8
0
100
AcDbBlockEnd
  0
ENDSEC
  0
SECTION
  2
ENTITIES
  0
SPLINE
  5
100
100
AcDbEntity
  8
0
 62
7
100
AcDbSpline
 70
8
 71
3
 72
8
 73
4
 74
0
 40
0
 40
0
 40
0
 40
0
 40
1
 40
1
 40
1
 40
1
 10
269.963524
 20
-15.544056
 30
0.0
 10
269.963534
 20
-11.871007
 30
0.0
 10
266.986091
 20
-8.893329
 30
0.0
 10
263.313041
 20
-8.893048
 30
0.0
  0
SPLINE
  5
101
100
AcDbEntity
  8
0
 62
7
100
AcDbSpline
 70
8
 71
3
 72
8
 73
4
 74
0
 40
0
 40
0
 40
0
 40
0
 40
1
 40
1
 40
1
 40
1
 10
266.488804
 20
-11.242056
 30
0.0
 10
266.003449
 20
-11.242056
 30
0.0
 10
265.565885
 20
-11.534427
 30
0.0
 10
265.380148
 20
-11.982836
 30
0.0
  0
SPLINE
  5
102
100
AcDbEntity
  8
0
 62
7
100
AcDbSpline
 70
8
 71
3
 72
8
 73
4
 74
0
 40
0
 40
0
 40
0
 40
0
 40
1
 40
1
 40
1
 40
1
 10
265.380148
 20
-11.982836
 30
0.0
 10
265.194411
 20
-12.431245
 30
0.0
 10
265.297078
 20
-12.947387
 30
0.0
 10
265.640275
 20
-13.290585
 30
0.0
  0
SPLINE
  5
103
100
AcDbEntity
  8
0
 62
7
100
AcDbSpline
 70
8
 71
3
 72
8
 73
4
 74
0
 40
0
 40
0
 40
0
 40
0
 40
1
 40
1
 40
1
 40
1
 10
265.640275
 20
-13.290585
 30
0.0
 10
265.983473
 20
-13.633782
 30
0.0
 10
266.499614
 20
-13.736449
 30
0.0
 10
266.948024
 20
-13.550712
 30
0.0
  0
SPLINE
  5
104
100
AcDbEntity
  8
0
 62
7
100
AcDbSpline
 70
8
 71
3
 72
8
 73
4
 74
0
 40
0
 40
0
 40
0
 40
0
 40
1
 40
1
 40
1
 40
1
 10
266.948024
 20
-13.550712
 30
0.0
 10
267.396433
 20
-13.364975
 30
0.0
 10
267.688804
 20
-12.927411
 30
0.0
 10
267.688804
 20
-12.442056
 30
0.0
  0
SPLINE
  5
105
100
AcDbEntity
  8
0
 62
7
100
AcDbSpline
 70
8
 71
3
 72
8
 73
4
 74
0
 40
0
 40
0
 40
0
 40
0
 40
1
 40
1
 40
1
 40
1
 10
267.688804
 20
-12.442056
 30
0.0
 10
267.688804
 20
-12.123796
 30
0.0
 10
267.562375
 20
-11.818572
 30
0.0
 10
267.337332
 20
-11.593528
 30
0.0
  0
SPLINE
  5
106
100
AcDbEntity
  8
0
 62
7
100
AcDbSpline
 70
8
 71
3
 72
8
 73
4
 74
0
 40
0
 40
0
 40
0
 40
0
 40
1
 40
1
 40
1
 40
1
 10
267.337332
 20
-11.593528
 30
0.0
 10
267.112288
 20
-11.368484
 30
0.0
 10
266.807063
 20
-11.242056
 30
0.0
 10
266.488804
 20
-11.242056
 30
0.0
  0
LWPOLYLINE
  5
107
100
AcDbEntity
  8
0
 62
7
100
AcDbPolyline
 90
1
 70
1
 10
266.488804
 20
-11.242056
 30
0.0
  0
LWPOLYLINE
  5
108
100
AcDbEntity
  8
0
 62
7
100
AcDbPolyline
 90
2
 70
0
 10
263.311263
 20
-8.890907
 30
0.0
 10
16.677260
 20
-8.890907
 30
0.0
  0
LWPOLYLINE
  5
109
100
AcDbEntity
  8
0
 62
7
100
AcDbPolyline
 90
2
 70
0
 10
269.963524
 20
-88.514828
 30
0.0
 10
269.963524
 20
-15.543167
 30
0.0
  0
SPLINE
  5
10a
100
AcDbEntity
  8
0
 62
7
100
AcDbSpline
 70
8
 71
3
 72
8
 73
4
 74
0
 40
0
 40
0
 40
0
 40
0
 40
1
 40
1
 40
1
 40
1
 10
263.313041
 20
-95.166072
 30
0.0
 10
266.986083
 20
-95.165792
 30
0.0
 10
269.963524
 20
-92.188124
 30
0.0
 10
269.963524
 20
-88.515082
 30
0.0
  0
LWPOLYLINE
  5
10b
100
AcDbEntity
  8
0
 62
7
100
AcDbPolyline
 90
2
 70
0
 10
263.311263
 20
-95.164548
 30
0.0
 10
237.657263
 20
-95.164548
 30
0.0
  0
SPLINE
  5
10c
100
AcDbEntity
  8
0
 62
7
100
AcDbSpline
 70
8
 71
3
 72
8
 73
4
 74
0
 40
0
 40
0
 40
0
 40
0
 40
1
 40
1
 40
1
 40
1
 10
153.839042
 20
-102.936090
 30
0.0
 10
153.353687
 20
-102.936090
 30
0.0
 10
152.916124
 20
-103.228460
 30
0.0
 10
152.730387
 20
-103.676870
 30
0.0
  0
SPLINE
  5
10d
100
AcDbEntity
  8
0
 62
7
100
AcDbSpline
 70
8
 71
3
 72
8
 73
4
 74
0
 40
0
 40
0
 40
0
 40
0
 40
1
 40
1
 40
1
 40
1
 10
152.730387
 20
-103.676870
 30
0.0
 10
152.544649
 20
-104.125279
 30
0.0
 10
152.647316
 20
-104.641420
 30
0.0
 10
152.990514
 20
-104.984618
 30
0.0
  0
SPLINE
  5
10e
100
AcDbEntity
  8
0
 62
7
100
AcDbSpline
 70
8
 71
3
 72
8
 73
4
 74
0
 40
0
 40
0
 40
0
 40
0
 40
1
 40
1
 40
1
 40
1
 10
152.990514
 20
-104.984618
 30
0.0
 10
153.333712
 20
-105.327816
 30
0.0
 10
153.849853
 20
-105.430483
 30
0.0
 10
154.298262
 20
-105.244745
 30
0.0
  0
SPLINE
  5
10f
100
AcDbEntity
  8
0
 62
7
100
AcDbSpline
 70
8
 71
3
 72
8
 73
4
 74
0
 40
0
 40
0
 40
0
 40
0
 40
1
 40
1
 40
1
 40
1
 10
154.298262
 20
-105.244745
 30
0.0
 10
154.746672
 20
-105.059008
 30
0.0
 10
155.039042
 20
-104.621445
 30
0.0
 10
155.039042
 20
-104.136090
 30
0.0
  0
SPLINE
  5
110
100
AcDbEntity
  8
0
 62
7
100
AcDbSpline
 70
8
 71
3
 72
8
 73
4
 74
0
 40
0
 40
0
 40
0
 40
0
 40
1
 40
1
 40
1
 40
1
 10
155.039042
 20
-104.136090
 30
0.0
 10
155.039042
 20
-103.817830
 30
0.0
 10
154.912614
 20
-103.512605
 30
0.0
 10
154.687570
 20
-103.287562
 30
0.0
  0
SPLINE
  5
111
100
AcDbEntity
  8
0
 62
7
100
AcDbSpline
 70
8
 71
3
 72
8
 73
4
 74
0
 40
0
 40
0
 40
0
 40
0
 40
1
 40
1
 40
1
 40
1
 10
154.687570
 20
-103.287562
 30
0.0
 10
154.462527
 20
-103.062518
 30
0.0
 10
154.157302
 20
-102.936090
 30
0.0
 10
153.839042
 20
-102.936090
 30
0.0
  0
LWPOLYLINE
  5
112
100
AcDbEntity
  8
0
 62
7
100
AcDbPolyline
 90
2
 70
0
 10
153.837262
 20
-106.975548
 30
0.0
 10
237.657263
 20
-95.164548
 30
0.0
  0
SPLINE
  5
113
100
AcDbEntity
  8
0
 62
7
100
AcDbSpline
 70
8
 71
3
 72
8
 73
4
 74
0
 40
0
 40
0
 40
0
 40
0
 40
1
 40
1
 40
1
 40
1
 10
126.153042
 20
-102.936090
 30
0.0
 10
125.667687
 20
-102.936090
 30
0.0
 10
125.230123
 20
-103.228460
 30
0.0
 10
125.044386
 20
-103.676870
 30
0.0
  0
SPLINE
  5
114
100
AcDbEntity
  8
0
 62
7
100
AcDbSpline
 70
8
 71
3
 72
8
 73
4
 74
0
 40
0
 40
0
 40
0
 40
0
 40
1
 40
1
 40
1
 40
1
 10
125.044386
 20
-103.676870
 30
0.0
 10
124.858649
 20
-104.125279
 30
0.0
 10
124.961316
 20
-104.641420
 30
0.0
 10
125.304513
 20
-104.984618
 30
0.0
  0
SPLINE
  5
115
100
AcDbEntity
  8
0
 62
7
100
AcDbSpline
 70
8
 71
3
 72
8
 73
4
 74
0
 40
0
 40
0
 40
0
 40
0
 40
1
 40
1
 40
1
 40
1
 10
125.304513
 20
-104.984618
 30
0.0
 10
125.647711
 20
-105.327816
 30
0.0
 10
126.163853
 20
-105.430483
 30
0.0
 10
126.612262
 20
-105.244745
 30
0.0
  0
SPLINE
  5
116
100
AcDbEntity
  8
0
 62
7
100
AcDbSpline
 70
8
 71
3
 72
8
 73
4
 74
0
 40
0
 40
0
 40
0
 40
0
 40
1
 40
1
 40
1
 40
1
 10
126.612262
 20
-105.244745
 30
0.0
 10
127.060671
 20
-105.059008
 30
0.0
 10
127.353042
 20
-104.621445
 30
0.0
 10
127.353042
 20
-104.136090
 30
0.0
  0
SPLINE
  5
117
100
AcDbEntity
  8
0
 62
7
100
AcDbSpline
 70
8
 71
3
 72
8
 73
4
 74
0
 40
0
 40
0
 40
0
 40
0
 40
1
 40
1
 40
1
 40
1
 10
127.353042
 20
-104.136090
 30
0.0
 10
127.353042
 20
-103.817830
 30
0.0
 10
127.226614
 20
-103.512605
 30
0.0
 10
127.001570
 20
-103.287562
 30
0.0
  0
SPLINE
  5
118
100
AcDbEntity
  8
0
 62
7
100
AcDbSpline
 70
8
 71
3
 72
8
 73
4
 74
0
 40
0
 40
0
 40
0
 40
0
 40
1
 40
1
 40
1
 40
1
 10
127.001570
 20
-103.287562
 30
0.0
 10
126.776526
 20
-103.062518
 30
0.0
 10
126.471302
 20
-102.936090
 30
0.0
 10
126.153042
 20
-102.936090
 30
0.0
  0
LWPOLYLINE
  5
119
100
AcDbEntity
  8
0
 62
7
100
AcDbPolyline
 90
1
 70
1
 10
153.839042
 20
-102.936090
 30
0.0
  0
LWPOLYLINE
  5
11a
100
AcDbEntity
  8
0
 62
7
100
AcDbPolyline
 90
1
 70
1
 10
126.153042
 20
-102.936090
 30
0.0
  0
LWPOLYLINE
  5
11b
100
AcDbEntity
  8
0
 62
7
100
AcDbPolyline
 90
2
 70
0
 10
126.278261
 20
-106.975548
 30
0.0
 10
153.837262
 20
-106.975548
 30
0.0
  0
LWPOLYLINE
  5
11c
100
AcDbEntity
  8
0
 62
7
100
AcDbPolyline
 90
2
 70
0
 10
126.278261
 20
-106.975548
 30
0.0
 10
42.458260
 20
-95.164548
 30
0.0
  0
SPLINE
  5
11d
100
AcDbEntity
  8
0
 62
7
100
AcDbSpline
 70
8
 71
3
 72
8
 73
4
 74
0
 40
0
 40
0
 40
0
 40
0
 40
1
 40
1
 40
1
 40
1
 10
10.027141
 20
-88.515082
 30
0.0
 10
10.027141
 20
-90.279037
 30
0.0
 10
10.727870
 20
-91.970745
 30
0.0
 10
11.975177
 20
-93.218049
 30
0.0
  0
SPLINE
  5
11e
100
AcDbEntity
  8
0
 62
7
100
AcDbSpline
 70
8
 71
3
 72
8
 73
4
 74
0
 40
0
 40
0
 40
0
 40
0
 40
1
 40
1
 40
1
 40
1
 10
11.975177
 20
-93.218049
 30
0.0
 10
13.222483
 20
-94.465352
 30
0.0
 10
14.914193
 20
-95.166077
 30
0.0
 10
16.678149
 20
-95.166072
 30
0.0
  0
SPLINE
  5
11f
100
AcDbEntity
  8
0
 62
7
100
AcDbSpline
 70
8
 71
3
 72
8
 73
4
 74
0
 40
0
 40
0
 40
0
 40
0
 40
1
 40
1
 40
1
 40
1
 10
13.631140
 20
-90.490079
 30
0.0
 10
13.145785
 20
-90.490079
 30
0.0
 10
12.708221
 20
-90.782450
 30
0.0
 10
12.522484
 20
-91.230859
 30
0.0
  0
SPLINE
  5
120
100
AcDbEntity
  8
0
 62
7
100
AcDbSpline
 70
8
 71
3
 72
8
 73
4
 74
0
 40
0
 40
0
 40
0
 40
0
 40
1
 40
1
 40
1
 40
1
 10
12.522484
 20
-91.230859
 30
0.0
 10
12.336747
 20
-91.679269
 30
0.0
 10
12.439414
 20
-92.195410
 30
0.0
 10
12.782611
 20
-92.538608
 30
0.0
  0
SPLINE
  5
121
100
AcDbEntity
  8
0
 62
7
100
AcDbSpline
 70
8
 71
3
 72
8
 73
4
 74
0
 40
0
 40
0
 40
0
 40
0
 40
1
 40
1
 40
1
 40
1
 10
12.782611
 20
-92.538608
 30
0.0
 10
13.125809
 20
-92.881805
 30
0.0
 10
13.641950
 20
-92.984472
 30
0.0
 10
14.090360
 20
-92.798735
 30
0.0
  0
SPLINE
  5
122
100
AcDbEntity
  8
0
 62
7
100
AcDbSpline
 70
8
 71
3
 72
8
 73
4
 74
0
 40
0
 40
0
 40
0
 40
0
 40
1
 40
1
 40
1
 40
1
 10
14.090360
 20
-92.798735
 30
0.0
 10
14.538769
 20
-92.612998
 30
0.0
 10
14.831140
 20
-92.175434
 30
0.0
 10
14.831140
 20
-91.690079
 30
0.0
  0
SPLINE
  5
123
100
AcDbEntity
  8
0
 62
7
100
AcDbSpline
 70
8
 71
3
 72
8
 73
4
 74
0
 40
0
 40
0
 40
0
 40
0
 40
1
 40
1
 40
1
 40
1
 10
14.831140
 20
-91.690079
 30
0.0
 10
14.831140
 20
-91.371820
 30
0.0
 10
14.704712
 20
-91.066595
 30
0.0
 10
14.479668
 20
-90.841551
 30
0.0
  0
SPLINE
  5
124
100
AcDbEntity
  8
0
 62
7
100
AcDbSpline
 70
8
 71
3
 72
8
 73
4
 74
0
 40
0
 40
0
 40
0
 40
0
 40
1
 40
1
 40
1
 40
1
 10
14.479668
 20
-90.841551
 30
0.0
 10
14.254624
 20
-90.616508
 30
0.0
 10
13.949399
 20
-90.490079
 30
0.0
 10
13.631140
 20
-90.490079
 30
0.0
  0
LWPOLYLINE
  5
125
100
AcDbEntity
  8
0
 62
7
100
AcDbPolyline
 90
2
 70
0
 10
16.677260
 20
-95.164548
 30
0.0
 10
42.458260
 20
-95.164548
 30
0.0
  0
LWPOLYLINE
  5
126
100
AcDbEntity
  8
0
 62
7
100
AcDbPolyline
 90
1
 70
1
 10
13.631140
 20
-90.490079
 30
0.0
  0
SPLINE
  5
127
100
AcDbEntity
  8
0
 62
7
100
AcDbSpline
 70
8
 71
3
 72
8
 73
4
 74
0
 40
0
 40
0
 40
0
 40
0
 40
1
 40
1
 40
1
 40
1
 10
13.631140
 20
-11.242056
 30
0.0
 10
13.145785
 20
-11.242056
 30
0.0
 10
12.708221
 20
-11.534427
 30
0.0
 10
12.522484
 20
-11.982836
 30
0.0
  0
SPLINE
  5
128
100
AcDbEntity
  8
0
 62
7
100
AcDbSpline
 70
8
 71
3
 72
8
 73
4
 74
0
 40
0
 40
0
 40
0
 40
0
 40
1
 40
1
 40
1
 40
1
 10
12.522484
 20
-11.982836
 30
0.0
 10
12.336747
 20
-12.431245
 30
0.0
 10
12.439414
 20
-12.947387
 30
0.0
 10
12.782611
 20
-13.290585
 30
0.0
  0
SPLINE
  5
129
100
AcDbEntity
  8
0
 62
7
100
AcDbSpline
 70
8
 71
3
 72
8
 73
4
 74
0
 40
0
 40
0
 40
0
 40
0
 40
1
 40
1
 40
1
 40
1
 10
12.782611
 20
-13.290585
 30
0.0
 10
13.125809
 20
-13.633782
 30
0.0
 10
13.641950
 20
-13.736449
 30
0.0
 10
14.090360
 20
-13.550712
 30
0.0
  0
SPLINE
  5
12a
100
AcDbEntity
  8
0
 62
7
100
AcDbSpline
 70
8
 71
3
 72
8
 73
4
 74
0
 40
0
 40
0
 40
0
 40
0
 40
1
 40
1
 40
1
 40
1
 10
14.090360
 20
-13.550712
 30
0.0
 10
14.538769
 20
-13.364975
 30
0.0
 10
14.831140
 20
-12.927411
 30
0.0
 10
14.831140
 20
-12.442056
 30
0.0
  0
SPLINE
  5
12b
100
AcDbEntity
  8
0
 62
7
100
AcDbSpline
 70
8
 71
3
 72
8
 73
4
 74
0
 40
0
 40
0
 40
0
 40
0
 40
1
 40
1
 40
1
 40
1
 10
14.831140
 20
-12.442056
 30
0.0
 10
14.831140
 20
-12.123796
 30
0.0
 10
14.704712
 20
-11.818572
 30
0.0
 10
14.479668
 20
-11.593528
 30
0.0
  0
SPLINE
  5
12c
100
AcDbEntity
  8
0
 62
7
100
AcDbSpline
 70
8
 71
3
 72
8
 73
4
 74
0
 40
0
 40
0
 40
0
 40
0
 40
1
 40
1
 40
1
 40
1
 10
14.479668
 20
-11.593528
 30
0.0
 10
14.254624
 20
-11.368484
 30
0.0
 10
13.949399
 20
-11.242056
 30
0.0
 10
13.631140
 20
-11.242056
 30
0.0
  0
LWPOLYLINE
  5
12d
100
AcDbEntity
  8
0
 62
7
100
AcDbPolyline
 90
2
 70
0
 10
10.025000
 20
-15.543167
 30
0.0
 10
10.025000
 20
-88.514828
 30
0.0
  0
SPLINE
  5
12e
100
AcDbEntity
  8
0
 62
7
100
AcDbSpline
 70
8
 71
3
 72
8
 73
4
 74
0
 40
0
 40
0
 40
0
 40
0
 40
1
 40
1
 40
1
 40
1
 10
16.678149
 20
-8.893048
 30
0.0
 10
14.914190
 20
-8.893043
 30
0.0
 10
13.222478
 20
-9.593771
 30
0.0
 10
11.975171
 20
-10.841078
 30
0.0
  0
SPLINE
  5
12f
100
AcDbEntity
  8
0
 62
7
100
AcDbSpline
 70
8
 71
3
 72
8
 73
4
 74
0
 40
0
 40
0
 40
0
 40
0
 40
1
 40
1
 40
1
 40
1
 10
11.975171
 20
-10.841078
 30
0.0
 10
10.727864
 20
-12.088385
 30
0.0
 10
10.027136
 20
-13.780098
 30
0.0
 10
10.027141
 20
-15.544056
 30
0.0
  0
SPLINE
  5
130
100
AcDbEntity
  8
0
 62
7
100
AcDbSpline
 70
8
 71
3
 72
8
 73
4
 74
0
 40
0
 40
0
 40
0
 40
0
 40
1
 40
1
 40
1
 40
1
 10
153.839042
 20
-10.226056
 30
0.0
 10
153.353687
 20
-10.226056
 30
0.0
 10
152.916124
 20
-10.518427
 30
0.0
 10
152.730387
 20
-10.966836
 30
0.0
  0
SPLINE
  5
131
100
AcDbEntity
  8
0
 62
7
100
AcDbSpline
 70
8
 71
3
 72
8
 73
4
 74
0
 40
0
 40
0
 40
0
 40
0
 40
1
 40
1
 40
1
 40
1
 10
152.730387
 20
-10.966836
 30
0.0
 10
152.544649
 20
-11.415245
 30
0.0
 10
152.647316
 20
-11.931387
 30
0.0
 10
152.990514
 20
-12.274585
 30
0.0
  0
SPLINE
  5
132
100
AcDbEntity
  8
0
 62
7
100
AcDbSpline
 70
8
 71
3
 72
8
 73
4
 74
0
 40
0
 40
0
 40
0
 40
0
 40
1
 40
1
 40
1
 40
1
 10
152.990514
 20
-12.274585
 30
0.0
 10
153.333712
 20
-12.617782
 30
0.0
 10
153.849853
 20
-12.720449
 30
0.0
 10
154.298262
 20
-12.534712
 30
0.0
  0
SPLINE
  5
133
100
AcDbEntity
  8
0
 62
7
100
AcDbSpline
 70
8
 71
3
 72
8
 73
4
 74
0
 40
0
 40
0
 40
0
 40
0
 40
1
 40
1
 40
1
 40
1
 10
154.298262
 20
-12.534712
 30
0.0
 10
154.746672
 20
-12.348975
 30
0.0
 10
155.039042
 20
-11.911411
 30
0.0
 10
155.039042
 20
-11.426056
 30
0.0
  0
SPLINE
  5
134
100
AcDbEntity
  8
0
 62
7
100
AcDbSpline
 70
8
 71
3
 72
8
 73
4
 74
0
 40
0
 40
0
 40
0
 40
0
 40
1
 40
1
 40
1
 40
1
 10
155.039042
 20
-11.426056
 30
0.0
 10
155.039042
 20
-11.107796
 30
0.0
 10
154.912614
 20
-10.802572
 30
0.0
 10
154.687570
 20
-10.577528
 30
0.0
  0
SPLINE
  5
135
100
AcDbEntity
  8
0
 62
7
100
AcDbSpline
 70
8
 71
3
 72
8
 73
4
 74
0
 40
0
 40
0
 40
0
 40
0
 40
1
 40
1
 40
1
 40
1
 10
154.687570
 20
-10.577528
 30
0.0
 10
154.462527
 20
-10.352484
 30
0.0
 10
154.157302
 20
-10.226056
 30
0.0
 10
153.839042
 20
-10.226056
 30
0.0
  0
LWPOLYLINE
  5
136
100
AcDbEntity
  8
0
 62
7
100
AcDbPolyline
 90
1
 70
1
 10
13.631140
 20
-11.242056
 30
0.0
  0
SPLINE
  5
137
100
AcDbEntity
  8
0
 62
7
100
AcDbSpline
 70
8
 71
3
 72
8
 73
4
 74
0
 40
0
 40
0
 40
0
 40
0
 40
1
 40
1
 40
1
 40
1
 10
126.153042
 20
-10.226056
 30
0.0
 10
125.667687
 20
-10.226056
 30
0.0
 10
125.230123
 20
-10.518427
 30
0.0
 10
125.044386
 20
-10.966836
 30
0.0
  0
SPLINE
  5
138
100
AcDbEntity
  8
0
 62
7
100
AcDbSpline
 70
8
 71
3
 72
8
 73
4
 74
0
 40
0
 40
0
 40
0
 40
0
 40
1
 40
1
 40
1
 40
1
 10
125.044386
 20
-10.966836
 30
0.0
 10
124.858649
 20
-11.415245
 30
0.0
 10
124.961316
 20
-11.931387
 30
0.0
 10
125.304513
 20
-12.274585
 30
0.0
  0
SPLINE
  5
139
100
AcDbEntity
  8
0
 62
7
100
AcDbSpline
 70
8
 71
3
 72
8
 73
4
 74
0
 40
0
 40
0
 40
0
 40
0
 40
1
 40
1
 40
1
 40
1
 10
125.304513
 20
-12.274585
 30
0.0
 10
125.647711
 20
-12.617782
 30
0.0
 10
126.163853
 20
-12.720449
 30
0.0
 10
126.612262
 20
-12.534712
 30
0.0
  0
SPLINE
  5
13a
100
AcDbEntity
  8
0
 62
7
100
AcDbSpline
 70
8
 71
3
 72
8
 73
4
 74
0
 40
0
 40
0
 40
0
 40
0
 40
1
 40
1
 40
1
 40
1
 10
126.612262
 20
-12.534712
 30
0.0
 10
127.060671
 20
-12.348975
 30
0.0
 10
127.353042
 20
-11.911411
 30
0.0
 10
127.353042
 20
-11.426056
 30
0.0
  0
SPLINE
  5
13b
100
AcDbEntity
  8
0
 62
7
100
AcDbSpline
 70
8
 71
3
 72
8
 73
4
 74
0
 40
0
 40
0
 40
0
 40
0
 40
1
 40
1
 40
1
 40
1
 10
127.353042
 20
-11.426056
 30
0.0
 10
127.353042
 20
-11.107796
 30
0.0
 10
127.226614
 20
-10.802572
 30
0.0
 10
127.001570
 20
-10.577528
 30
0.0
  0
SPLINE
  5
13c
100
AcDbEntity
  8
0
 62
7
100
AcDbSpline
 70
8
 71
3
 72
8
 73
4
 74
0
 40
0
 40
0
 40
0
 40
0
 40
1
 40
1
 40
1
 40
1
 10
127.001570
 20
-10.577528
 30
0.0
 10
126.776526
 20
-10.352484
 30
0.0
 10
126.471302
 20
-10.226056
 30
0.0
 10
126.153042
 20
-10.226056
 30
0.0
  0
LWPOLYLINE
  5
13d
100
AcDbEntity
  8
0
 62
7
100
AcDbPolyline
 90
1
 70
1
 10
153.839042
 20
-10.226056
 30
0.0
  0
SPLINE
  5
13e
100
AcDbEntity
  8
0
 62
1
100
AcDbSpline
 70
8
 71
3
 72
8
 73
4
 74
0
 40
0
 40
0
 40
0
 40
0
 40
1
 40
1
 40
1
 40
1
 10
130.979042
 20
-95.427090
 30
0.0
 10
130.898149
 20
-95.427090
 30
0.0
 10
130.825222
 20
-95.475818
 30
0.0
 10
130.794266
 20
-95.550553
 30
0.0
  0
SPLINE
  5
13f
100
AcDbEntity
  8
0
 62
1
100
AcDbSpline
 70
8
 71
3
 72
8
 73
4
 74
0
 40
0
 40
0
 40
0
 40
0
 40
1
 40
1
 40
1
 40
1
 10
130.794266
 20
-95.550553
 30
0.0
 10
130.763310
 20
-95.625288
 30
0.0
 10
130.780421
 20
-95.711311
 30
0.0
 10
130.837620
 20
-95.768511
 30
0.0
  0
SPLINE
  5
140
100
AcDbEntity
  8
0
 62
1
100
AcDbSpline
 70
8
 71
3
 72
8
 73
4
 74
0
 40
0
 40
0
 40
0
 40
0
 40
1
 40
1
 40
1
 40
1
 10
130.837620
 20
-95.768511
 30
0.0
 10
130.894820
 20
-95.825711
 30
0.0
 10
130.980844
 20
-95.842822
 30
0.0
 10
131.055578
 20
-95.811866
 30
0.0
  0
SPLINE
  5
141
100
AcDbEntity
  8
0
 62
1
100
AcDbSpline
 70
8
 71
3
 72
8
 73
4
 74
0
 40
0
 40
0
 40
0
 40
0
 40
1
 40
1
 40
1
 40
1
 10
131.055578
 20
-95.811866
 30
0.0
 10
131.130313
 20
-95.780909
 30
0.0
 10
131.179042
 20
-95.707982
 30
0.0
 10
131.179042
 20
-95.627090
 30
0.0
  0
SPLINE
  5
142
100
AcDbEntity
  8
0
 62
1
100
AcDbSpline
 70
8
 71
3
 72
8
 73
4
 74
0
 40
0
 40
0
 40
0
 40
0
 40
1
 40
1
 40
1
 40
1
 10
131.179042
 20
-95.627090
 30
0.0
 10
131.179042
 20
-95.574046
 30
0.0
 10
131.157970
 20
-95.523176
 30
0.0
 10
131.120463
 20
-95.485668
 30
0.0
  0
SPLINE
  5
143
100
AcDbEntity
  8
0
 62
1
100
AcDbSpline
 70
8
 71
3
 72
8
 73
4
 74
0
 40
0
 40
0
 40
0
 40
0
 40
1
 40
1
 40
1
 40
1
 10
131.120463
 20
-95.485668
 30
0.0
 10
131.082956
 20
-95.448161
 30
0.0
 10
131.032085
 20
-95.427090
 30
0.0
 10
130.979042
 20
-95.427090
 30
0.0
  0
LWPOLYLINE
  5
144
100
AcDbEntity
  8
0
 62
7
100
AcDbPolyline
 90
1
 70
1
 10
126.153042
 20
-10.226056
 30
0.0
  0
LWPOLYLINE
  5
145
100
AcDbEntity
  8
0
 62
1
100
AcDbPolyline
 90
1
 70
1
 10
130.979042
 20
-95.427090
 30
0.0
  0
LWPOLYLINE
  5
146
100
AcDbEntity
  8
0
 62
7
100
AcDbPolyline
 90
4
 70
1
 10
210.644363
 20
-77.196588
 30
0.0
 10
224.479743
 20
-75.250948
 30
0.0
 10
226.422843
 20
-89.086328
 30
0.0
 10
212.590003
 20
-91.029428
 30
0.0
  0
LWPOLYLINE
  5
147
100
AcDbEntity
  8
0
 62
7
100
AcDbPolyline
 90
4
 70
1
 10
55.539260
 20
-75.276348
 30
0.0
 10
69.372100
 20
-77.221988
 30
0.0
 10
67.429000
 20
-91.054828
 30
0.0
 10
53.593620
 20
-89.111728
 30
0.0
  0
LWPOLYLINE
  5
148
100
AcDbEntity
  8
0
 62
7
100
AcDbPolyline
 90
4
 70
1
 10
146.095341
 20
-28.555587
 30
0.0
 10
159.930722
 20
-26.609947
 30
0.0
 10
161.873822
 20
-40.445327
 30
0.0
 10
148.040982
 20
-42.388427
 30
0.0
  0
LWPOLYLINE
  5
149
100
AcDbEntity
  8
0
 62
7
100
AcDbPolyline
 90
4
 70
1
 10
17.662780
 20
-73.622808
 30
0.0
 10
31.632780
 20
-73.622808
 30
0.0
 10
31.632780
 20
-87.592808
 30
0.0
 10
17.662780
 20
-87.592808
 30
0.0
  0
LWPOLYLINE
  5
14a
100
AcDbEntity
  8
0
 62
7
100
AcDbPolyline
 90
4
 70
1
 10
17.662780
 20
-16.472807
 30
0.0
 10
31.632780
 20
-16.472807
 30
0.0
 10
31.632780
 20
-30.442807
 30
0.0
 10
17.662780
 20
-30.442807
 30
0.0
  0
LWPOLYLINE
  5
14b
100
AcDbEntity
  8
0
 62
7
100
AcDbPolyline
 90
2
 70
0
 10
39.666800
 20
-30.767927
 30
0.0
 10
40.642160
 20
-16.830947
 30
0.0
  0
LWPOLYLINE
  5
14c
100
AcDbEntity
  8
0
 62
7
100
AcDbPolyline
 90
2
 70
0
 10
53.603780
 20
-31.743287
 30
0.0
 10
39.666800
 20
-30.767927
 30
0.0
  0
LWPOLYLINE
  5
14d
100
AcDbEntity
  8
0
 62
7
100
AcDbPolyline
 90
2
 70
0
 10
54.579140
 20
-17.806307
 30
0.0
 10
53.603780
 20
-31.743287
 30
0.0
  0
LWPOLYLINE
  5
14e
100
AcDbEntity
  8
0
 62
7
100
AcDbPolyline
 90
2
 70
0
 10
40.642160
 20
-16.830947
 30
0.0
 10
54.579140
 20
-17.806307
 30
0.0
  0
LWPOLYLINE
  5
14f
100
AcDbEntity
  8
0
 62
7
100
AcDbPolyline
 90
4
 70
1
 10
17.662780
 20
-35.522807
 30
0.0
 10
31.632780
 20
-35.522807
 30
0.0
 10
31.632780
 20
-49.492807
 30
0.0
 10
17.662780
 20
-49.492807
 30
0.0
  0
LWPOLYLINE
  5
150
100
AcDbEntity
  8
0
 62
7
100
AcDbPolyline
 90
4
 70
1
 10
248.452263
 20
-73.622808
 30
0.0
 10
262.422263
 20
-73.622808
 30
0.0
 10
262.422263
 20
-87.592808
 30
0.0
 10
248.452263
 20
-87.592808
 30
0.0
  0
LWPOLYLINE
  5
151
100
AcDbEntity
  8
0
 62
7
100
AcDbPolyline
 90
4
 70
1
 10
191.779782
 20
-79.845808
 30
0.0
 10
205.612622
 20
-77.902708
 30
0.0
 10
207.555723
 20
-91.735548
 30
0.0
 10
193.722882
 20
-93.681188
 30
0.0
  0
LWPOLYLINE
  5
152
100
AcDbEntity
  8
0
 62
7
100
AcDbPolyline
 90
4
 70
1
 10
172.915202
 20
-82.497568
 30
0.0
 10
186.748042
 20
-80.554468
 30
0.0
 10
188.691142
 20
-94.387308
 30
0.0
 10
174.858302
 20
-96.332948
 30
0.0
  0
LWPOLYLINE
  5
153
100
AcDbEntity
  8
0
 62
7
100
AcDbPolyline
 90
4
 70
1
 10
154.050622
 20
-85.149328
 30
0.0
 10
167.883462
 20
-83.203688
 30
0.0
 10
169.826562
 20
-97.039068
 30
0.0
 10
155.993722
 20
-98.982168
 30
0.0
  0
LWPOLYLINE
  5
154
100
AcDbEntity
  8
0
 62
7
100
AcDbPolyline
 90
4
 70
1
 10
112.158401
 20
-83.236708
 30
0.0
 10
125.993781
 20
-85.182348
 30
0.0
 10
124.048141
 20
-99.015188
 30
0.0
 10
110.215301
 20
-97.072088
 30
0.0
  0
LWPOLYLINE
  5
155
100
AcDbEntity
  8
0
 62
7
100
AcDbPolyline
 90
4
 70
1
 10
93.268421
 20
-80.579868
 30
0.0
 10
107.103801
 20
-82.522968
 30
0.0
 10
105.158161
 20
-96.358348
 30
0.0
 10
91.325321
 20
-94.412708
 30
0.0
  0
LWPOLYLINE
  5
156
100
AcDbEntity
  8
0
 62
7
100
AcDbPolyline
 90
4
 70
1
 10
74.403840
 20
-77.928108
 30
0.0
 10
88.239220
 20
-79.871208
 30
0.0
 10
86.293580
 20
-93.706588
 30
0.0
 10
72.460740
 20
-91.763488
 30
0.0
  0
LWPOLYLINE
  5
157
100
AcDbEntity
  8
0
 62
7
100
AcDbPolyline
 90
4
 70
1
 10
248.421783
 20
-54.572807
 30
0.0
 10
262.391783
 20
-54.572807
 30
0.0
 10
262.391783
 20
-68.542808
 30
0.0
 10
248.421783
 20
-68.542808
 30
0.0
  0
LWPOLYLINE
  5
158
100
AcDbEntity
  8
0
 62
7
100
AcDbPolyline
 90
4
 70
1
 10
228.157663
 20
-55.728507
 30
0.0
 10
242.094643
 20
-54.753147
 30
0.0
 10
243.067463
 20
-68.690128
 30
0.0
 10
229.133023
 20
-69.665488
 30
0.0
  0
LWPOLYLINE
  5
159
100
AcDbEntity
  8
0
 62
7
100
AcDbPolyline
 90
4
 70
1
 10
207.992603
 20
-58.329467
 30
0.0
 10
221.825443
 20
-56.386367
 30
0.0
 10
223.771083
 20
-70.219208
 30
0.0
 10
209.935703
 20
-72.164848
 30
0.0
  0
LWPOLYLINE
  5
15a
100
AcDbEntity
  8
0
 62
7
100
AcDbPolyline
 90
4
 70
1
 10
189.140722
 20
-60.986307
 30
0.0
 10
202.973562
 20
-59.043207
 30
0.0
 10
204.919202
 20
-72.876048
 30
0.0
 10
191.083822
 20
-74.819148
 30
0.0
  0
LWPOLYLINE
  5
15b
100
AcDbEntity
  8
0
 62
7
100
AcDbPolyline
 90
4
 70
1
 10
170.263442
 20
-63.632988
 30
0.0
 10
184.096282
 20
-61.689888
 30
0.0
 10
186.041922
 20
-75.522728
 30
0.0
 10
172.206542
 20
-77.468368
 30
0.0
  0
LWPOLYLINE
  5
15c
100
AcDbEntity
  8
0
 62
7
100
AcDbPolyline
 90
4
 70
1
 10
151.398862
 20
-66.284748
 30
0.0
 10
165.231702
 20
-64.339108
 30
0.0
 10
167.177342
 20
-78.174488
 30
0.0
 10
153.341962
 20
-80.117588
 30
0.0
  0
LWPOLYLINE
  5
15d
100
AcDbEntity
  8
0
 62
7
100
AcDbPolyline
 90
4
 70
1
 10
114.784761
 20
-64.367048
 30
0.0
 10
128.620141
 20
-66.310148
 30
0.0
 10
126.674501
 20
-80.145528
 30
0.0
 10
112.841661
 20
-78.199888
 30
0.0
  0
LWPOLYLINE
  5
15e
100
AcDbEntity
  8
0
 62
7
100
AcDbPolyline
 90
4
 70
1
 10
95.920181
 20
-61.715288
 30
0.0
 10
109.755561
 20
-63.658388
 30
0.0
 10
107.809921
 20
-77.493768
 30
0.0
 10
93.977081
 20
-75.548128
 30
0.0
  0
LWPOLYLINE
  5
15f
100
AcDbEntity
  8
0
 62
7
100
AcDbPolyline
 90
4
 70
1
 10
77.055600
 20
-59.063527
 30
0.0
 10
90.890981
 20
-61.006627
 30
0.0
 10
88.945341
 20
-74.842008
 30
0.0
 10
75.112500
 20
-72.896368
 30
0.0
  0
LWPOLYLINE
  5
160
100
AcDbEntity
  8
0
 62
7
100
AcDbPolyline
 90
4
 70
1
 10
58.191020
 20
-56.411767
 30
0.0
 10
72.026400
 20
-58.357407
 30
0.0
 10
70.080760
 20
-72.190248
 30
0.0
 10
56.247920
 20
-70.247148
 30
0.0
  0
LWPOLYLINE
  5
161
100
AcDbEntity
  8
0
 62
7
100
AcDbPolyline
 90
4
 70
1
 10
37.985320
 20
-54.839507
 30
0.0
 10
51.919760
 20
-55.814867
 30
0.0
 10
50.946940
 20
-69.749308
 30
0.0
 10
37.009960
 20
-68.773948
 30
0.0
  0
LWPOLYLINE
  5
162
100
AcDbEntity
  8
0
 62
7
100
AcDbPolyline
 90
4
 70
1
 10
17.662780
 20
-54.572807
 30
0.0
 10
31.632780
 20
-54.572807
 30
0.0
 10
31.632780
 20
-68.542808
 30
0.0
 10
17.662780
 20
-68.542808
 30
0.0
  0
LWPOLYLINE
  5
163
100
AcDbEntity
  8
0
 62
7
100
AcDbPolyline
 90
4
 70
1
 10
248.421783
 20
-35.522807
 30
0.0
 10
262.391783
 20
-35.522807
 30
0.0
 10
262.391783
 20
-49.492807
 30
0.0
 10
248.421783
 20
-49.492807
 30
0.0
  0
LWPOLYLINE
  5
164
100
AcDbEntity
  8
0
 62
7
100
AcDbPolyline
 90
4
 70
1
 10
226.829243
 20
-36.724227
 30
0.0
 10
240.763683
 20
-35.751407
 30
0.0
 10
241.739043
 20
-49.685847
 30
0.0
 10
227.802063
 20
-50.661207
 30
0.0
  0
LWPOLYLINE
  5
165
100
AcDbEntity
  8
0
 62
7
100
AcDbPolyline
 90
4
 70
1
 10
205.340842
 20
-39.464887
 30
0.0
 10
219.173683
 20
-37.521787
 30
0.0
 10
221.119323
 20
-51.354627
 30
0.0
 10
207.283943
 20
-53.300267
 30
0.0
  0
LWPOLYLINE
  5
166
100
AcDbEntity
  8
0
 62
7
100
AcDbPolyline
 90
4
 70
1
 10
186.488962
 20
-42.116647
 30
0.0
 10
200.321802
 20
-40.171007
 30
0.0
 10
202.267442
 20
-54.006387
 30
0.0
 10
188.432062
 20
-55.949487
 30
0.0
  0
LWPOLYLINE
  5
167
100
AcDbEntity
  8
0
 62
7
100
AcDbPolyline
 90
4
 70
1
 10
167.611682
 20
-44.768407
 30
0.0
 10
181.444522
 20
-42.825307
 30
0.0
 10
183.390162
 20
-56.658147
 30
0.0
 10
169.554782
 20
-58.603787
 30
0.0
  0
LWPOLYLINE
  5
168
100
AcDbEntity
  8
0
 62
7
100
AcDbPolyline
 90
4
 70
1
 10
148.747102
 20
-47.420167
 30
0.0
 10
162.579942
 20
-45.474527
 30
0.0
 10
164.525582
 20
-59.309907
 30
0.0
 10
150.690202
 20
-61.253007
 30
0.0
  0
LWPOLYLINE
  5
169
100
AcDbEntity
  8
0
 62
7
100
AcDbPolyline
 90
4
 70
1
 10
117.436521
 20
-45.502467
 30
0.0
 10
131.271901
 20
-47.445567
 30
0.0
 10
129.326261
 20
-61.280947
 30
0.0
 10
115.493421
 20
-59.335307
 30
0.0
  0
LWPOLYLINE
  5
16a
100
AcDbEntity
  8
0
 62
7
100
AcDbPolyline
 90
4
 70
1
 10
98.571941
 20
-42.850707
 30
0.0
 10
112.407321
 20
-44.793807
 30
0.0
 10
110.461681
 20
-58.629187
 30
0.0
 10
96.628841
 20
-56.683547
 30
0.0
  0
LWPOLYLINE
  5
16b
100
AcDbEntity
  8
0
 62
7
100
AcDbPolyline
 90
4
 70
1
 10
79.707360
 20
-40.198947
 30
0.0
 10
93.542741
 20
-42.142047
 30
0.0
 10
91.597101
 20
-55.977427
 30
0.0
 10
77.764260
 20
-54.031787
 30
0.0
  0
LWPOLYLINE
  5
16c
100
AcDbEntity
  8
0
 62
7
100
AcDbPolyline
 90
4
 70
1
 10
60.842780
 20
-37.547187
 30
0.0
 10
74.678160
 20
-39.492827
 30
0.0
 10
72.732520
 20
-53.325667
 30
0.0
 10
58.899680
 20
-51.382567
 30
0.0
  0
LWPOLYLINE
  5
16d
100
AcDbEntity
  8
0
 62
7
100
AcDbPolyline
 90
4
 70
1
 10
39.313740
 20
-35.835227
 30
0.0
 10
53.250720
 20
-36.810587
 30
0.0
 10
52.275360
 20
-50.745027
 30
0.0
 10
38.338380
 20
-49.772207
 30
0.0
  0
LWPOLYLINE
  5
16e
100
AcDbEntity
  8
0
 62
7
100
AcDbPolyline
 90
4
 70
1
 10
248.421783
 20
-16.472807
 30
0.0
 10
262.391783
 20
-16.472807
 30
0.0
 10
262.391783
 20
-30.442807
 30
0.0
 10
248.421783
 20
-30.442807
 30
0.0
  0
LWPOLYLINE
  5
16f
100
AcDbEntity
  8
0
 62
7
100
AcDbPolyline
 90
4
 70
1
 10
225.500823
 20
-17.722487
 30
0.0
 10
239.435263
 20
-16.747127
 30
0.0
 10
240.410623
 20
-30.684107
 30
0.0
 10
226.473643
 20
-31.656927
 30
0.0
  0
LWPOLYLINE
  5
170
100
AcDbEntity
  8
0
 62
7
100
AcDbPolyline
 90
4
 70
1
 10
202.689082
 20
-20.600307
 30
0.0
 10
216.524463
 20
-18.657207
 30
0.0
 10
218.467563
 20
-32.490047
 30
0.0
 10
204.634722
 20
-34.435687
 30
0.0
  0
LWPOLYLINE
  5
171
100
AcDbEntity
  8
0
 62
7
100
AcDbPolyline
 90
4
 70
1
 10
183.837202
 20
-23.257147
 30
0.0
 10
197.672582
 20
-21.314047
 30
0.0
 10
199.615682
 20
-35.146887
 30
0.0
 10
185.782842
 20
-37.089987
 30
0.0
  0
LWPOLYLINE
  5
172
100
AcDbEntity
  8
0
 62
7
100
AcDbPolyline
 90
4
 70
1
 10
164.972622
 20
-25.908907
 30
0.0
 10
178.808002
 20
-23.963267
 30
0.0
 10
180.751102
 20
-37.798647
 30
0.0
 10
166.918262
 20
-39.741747
 30
0.0
  0
LWPOLYLINE
  5
173
100
AcDbEntity
  8
0
 62
7
100
AcDbPolyline
 90
4
 70
1
 10
120.088281
 20
-26.637887
 30
0.0
 10
133.921121
 20
-28.580987
 30
0.0
 10
131.978021
 20
-42.416367
 30
0.0
 10
118.142641
 20
-40.470727
 30
0.0
  0
LWPOLYLINE
  5
174
100
AcDbEntity
  8
0
 62
7
100
AcDbPolyline
 90
4
 70
1
 10
101.223701
 20
-23.986127
 30
0.0
 10
115.056541
 20
-25.929227
 30
0.0
 10
113.113441
 20
-39.764607
 30
0.0
 10
99.278061
 20
-37.818967
 30
0.0
  0
LWPOLYLINE
  5
175
100
AcDbEntity
  8
0
 62
7
100
AcDbPolyline
 90
4
 70
1
 10
82.359120
 20
-21.334367
 30
0.0
 10
96.191961
 20
-23.277467
 30
0.0
 10
94.248861
 20
-37.112847
 30
0.0
 10
80.413480
 20
-35.167207
 30
0.0
  0
LWPOLYLINE
  5
176
100
AcDbEntity
  8
0
 62
7
100
AcDbPolyline
 90
4
 70
1
 10
63.494540
 20
-18.682607
 30
0.0
 10
77.327380
 20
-20.628247
 30
0.0
 10
75.384280
 20
-34.461087
 30
0.0
 10
61.548900
 20
-32.517987
 30
0.0
  0
ENDSEC
  0
SECTION
  2
OBJECTS
  0
DICTIONARY
  5
C
330
0
100
AcDbDictionary
  3
ACAD_GROUP
350
D
  3
ACAD_MLINESTYLE
350
17
  0
DICTIONARY
  5
D
330
C
100
AcDbDictionary
  0
DICTIONARY
  5
1A
330
C
100
AcDbDictionary
  0
DICTIONARY
  5
17
330
C
100
AcDbDictionary
  3
STANDARD
350
18
  0
DICTIONARY
  5
19
330
C
100
AcDbDictionary
  0
ENDSEC
  0
EOF
