  0
SECTION
  2
HEADER
  9
$ACADVER
  1
AC1014
  9
$HANDSEED
  5
FFFF
  9
$MEASUREMENT
 70
     1
  0
ENDSEC
  0
SECTION
  2
TABLES
  0
TABLE
  2
VPORT
  5
8
330
0
100
AcDbSymbolTable
 70
     4
  0
VPORT
  5
2E
330
8
100
AcDbSymbolTableRecord
100
AcDbViewportTableRecord
  2
*ACTIVE
 70
     0
 10
0.0
 20
0.0
 11
1.0
 21
1.0
 12
210.0
 22
148.5
 13
0.0
 23
0.0
 14
10.0
 24
10.0
 15
10.0
 25
10.0
 16
0.0
 26
0.0
 36
1.0
 17
0.0
 27
0.0
 37
0.0
 40
341.0
 41
1.24
 42
50.0
 43
0.0
 44
0.0
 50
0.0
 51
0.0
 71
     0
 72
   100
 73
     1
 74
     3
 75
     0
 76
     0
 77
     0
 78
     0
  0
ENDTAB
  0
TABLE
  2
LTYPE
  5
5
330
0
100
AcDbSymbolTable
 70
     1
  0
LTYPE
  5
14
330
5
100
AcDbSymbolTableRecord
100
AcDbLinetypeTableRecord
  2
BYBLOCK
 70
     0
  3

 72
    65
 73
     0
 40
0.0
  0
LTYPE
  5
15
330
5
100
AcDbSymbolTableRecord
100
AcDbLinetypeTableRecord
  2
BYLAYER
 70
     0
  3

 72
    65
 73
     0
 40
0.0
  0
LTYPE
  5
16
330
5
100
AcDbSymbolTableRecord
100
AcDbLinetypeTableRecord
  2
CONTINUOUS
 70
     0
  3
Solid line
 72
    65
 73
     0
 40
0.0
  0
ENDTAB
  0
TABLE
  2
LAYER
  5
2
100
AcDbSymbolTable
 70
1
  0
LAYER
  5
50
100
AcDbSymbolTableRecord
100
AcDbLayerTableRecord
  2
0
 70
0
  6
CONTINUOUS
  0
ENDTAB
  0
TABLE
  2
STYLE
  5
3
330
0
100
AcDbSymbolTable
 70
     1
  0
STYLE
  5
11
330
3
100
AcDbSymbolTableRecord
100
AcDbTextStyleTableRecord
  2
STANDARD
 70
     0
 40
0.0
 41
1.0
 50
0.0
 71
     0
 42
2.5
  3
txt
  4

  0
ENDTAB
  0
TABLE
  2
VIEW
  5
6
330
0
100
AcDbSymbolTable
 70
     0
  0
ENDTAB
  0
TABLE
  2
UCS
  5
7
330
0
100
AcDbSymbolTable
 70
     0
  0
ENDTAB
  0
TABLE
  2
APPID
  5
9
330
0
100
AcDbSymbolTable
 70
     2
  0
APPID
  5
12
330
9
100
AcDbSymbolTableRecord
100
AcDbRegAppTableRecord
  2
ACAD
 70
     0
  0
ENDTAB
  0
TABLE
  2
DIMSTYLE
  5
A
330
0
100
AcDbSymbolTable
 70
     1
  0
DIMSTYLE
105
27
330
A
100
AcDbSymbolTableRecord
100
AcDbDimStyleTableRecord
  2
ISO-25
 70
     0
  3

  4

  5

  6

  7

 40
1.0
 41
2.5
 42
0.625
 43
3.75
 44
1.25
 45
0.0
 46
0.0
 47
0.0
 48
0.0
140
2.5
141
2.5
142
0.0
143
0.03937007874016
144
1.0
145
0.0
146
1.0
147
0.625
 71
     0
 72
     0
 73
     0
 74
     0
 75
     0
 76
     0
 77
     1
 78
     8
170
     0
171
     3
172
     1
173
     0
174
     0
175
     0
176
     0
177
     0
178
     0
270
     2
271
     2
272
     2
273
     2
274
     3
340
11
275
     0
280
     0
281
     0
282
     0
283
     0
284
     8
285
     0
286
     0
287
     3
288
     0
  0
ENDTAB
  0
TABLE
  2
BLOCK_RECORD
  5
1
330
0
100
AcDbSymbolTable
 70
     1
  0
BLOCK_RECORD
  5
1F
330
1
100
AcDbSymbolTableRecord
100
AcDbBlockTableRecord
  2
*MODEL_SPACE
  0
BLOCK_RECORD
  5
1B
330
1
100
AcDbSymbolTableRecord
100
AcDbBlockTableRecord
  2
*PAPER_SPACE
  0
ENDTAB
  0
ENDSEC
  0
SECTION
  2
BLOCKS
  0
BLOCK
  5
20
330
1F
100
AcDbEntity
  8
0
100
AcDbBlockBegin
  2
*MODEL_SPACE
 70
     0
 10
0.0
 20
0.0
 30
0.0
  3
*MODEL_SPACE
  1

  0
ENDBLK
  5
21
330
1F
100
AcDbEntity
  8
0
100
AcDbBlockEnd
  0
BLOCK
  5
1C
330
1B
100
AcDbEntity
 67
     1
  8
0
100
AcDbBlockBegin
  2
*PAPER_SPACE
  1

  0
ENDBLK
  5
1D
330
1B
100
AcDbEntity
 67
     1
  8
0
100
AcDbBlockEnd
  0
ENDSEC
  0
SECTION
  2
ENTITIES
  0
LWPOLYLINE
  5
100
100
AcDbEntity
  8
0
 62
1
100
AcDbPolyline
 90
2
 70
0
 10
212.917663
 20
-90.595088
 30
0.0
 10
211.081243
 20
-77.524248
 30
0.0
  0
LWPOLYLINE
  5
101
100
AcDbEntity
  8
0
 62
1
100
AcDbPolyline
 90
2
 70
0
 10
225.988503
 20
-88.758668
 30
0.0
 10
212.917663
 20
-90.595088
 30
0.0
  0
LWPOLYLINE
  5
102
100
AcDbEntity
  8
0
 62
1
100
AcDbPolyline
 90
2
 70
0
 10
224.152083
 20
-75.685288
 30
0.0
 10
225.988503
 20
-88.758668
 30
0.0
  0
LWPOLYLINE
  5
103
100
AcDbEntity
  8
0
 62
1
100
AcDbPolyline
 90
2
 70
0
 10
211.081243
 20
-77.524248
 30
0.0
 10
224.152083
 20
-75.685288
 30
0.0
  0
LWPOLYLINE
  5
104
100
AcDbEntity
  8
0
 62
1
100
AcDbPolyline
 90
2
 70
0
 10
54.030500
 20
-88.784068
 30
0.0
 10
55.866920
 20
-75.710688
 30
0.0
  0
LWPOLYLINE
  5
105
100
AcDbEntity
  8
0
 62
1
100
AcDbPolyline
 90
2
 70
0
 10
67.101340
 20
-90.620488
 30
0.0
 10
54.030500
 20
-88.784068
 30
0.0
  0
LWPOLYLINE
  5
106
100
AcDbEntity
  8
0
 62
1
100
AcDbPolyline
 90
2
 70
0
 10
68.937760
 20
-77.549648
 30
0.0
 10
67.101340
 20
-90.620488
 30
0.0
  0
LWPOLYLINE
  5
107
100
AcDbEntity
  8
0
 62
1
100
AcDbPolyline
 90
2
 70
0
 10
55.866920
 20
-75.710688
 30
0.0
 10
68.937760
 20
-77.549648
 30
0.0
  0
LWPOLYLINE
  5
108
100
AcDbEntity
  8
0
 62
1
100
AcDbPolyline
 90
2
 70
0
 10
148.368642
 20
-41.954087
 30
0.0
 10
146.529681
 20
-28.883247
 30
0.0
  0
LWPOLYLINE
  5
109
100
AcDbEntity
  8
0
 62
1
100
AcDbPolyline
 90
2
 70
0
 10
161.439482
 20
-40.117667
 30
0.0
 10
148.368642
 20
-41.954087
 30
0.0
  0
LWPOLYLINE
  5
10a
100
AcDbEntity
  8
0
 62
1
100
AcDbPolyline
 90
2
 70
0
 10
159.603062
 20
-27.046827
 30
0.0
 10
161.439482
 20
-40.117667
 30
0.0
  0
LWPOLYLINE
  5
10b
100
AcDbEntity
  8
0
 62
1
100
AcDbPolyline
 90
2
 70
0
 10
146.529681
 20
-28.883247
 30
0.0
 10
159.603062
 20
-27.046827
 30
0.0
  0
LWPOLYLINE
  5
10c
100
AcDbEntity
  8
0
 62
1
100
AcDbPolyline
 90
2
 70
0
 10
18.046320
 20
-87.209268
 30
0.0
 10
18.046320
 20
-74.008888
 30
0.0
  0
LWPOLYLINE
  5
10d
100
AcDbEntity
  8
0
 62
1
100
AcDbPolyline
 90
2
 70
0
 10
31.246700
 20
-87.209268
 30
0.0
 10
18.046320
 20
-87.209268
 30
0.0
  0
LWPOLYLINE
  5
10e
100
AcDbEntity
  8
0
 62
1
100
AcDbPolyline
 90
2
 70
0
 10
31.246700
 20
-74.008888
 30
0.0
 10
31.246700
 20
-87.209268
 30
0.0
  0
LWPOLYLINE
  5
10f
100
AcDbEntity
  8
0
 62
1
100
AcDbPolyline
 90
2
 70
0
 10
18.046320
 20
-74.008888
 30
0.0
 10
31.246700
 20
-74.008888
 30
0.0
  0
LWPOLYLINE
  5
110
100
AcDbEntity
  8
0
 62
1
100
AcDbPolyline
 90
2
 70
0
 10
18.046320
 20
-30.059267
 30
0.0
 10
18.046320
 20
-16.858888
 30
0.0
  0
LWPOLYLINE
  5
111
100
AcDbEntity
  8
0
 62
1
100
AcDbPolyline
 90
2
 70
0
 10
31.246700
 20
-30.059267
 30
0.0
 10
18.046320
 20
-30.059267
 30
0.0
  0
LWPOLYLINE
  5
112
100
AcDbEntity
  8
0
 62
1
100
AcDbPolyline
 90
2
 70
0
 10
31.246700
 20
-16.858888
 30
0.0
 10
31.246700
 20
-30.059267
 30
0.0
  0
LWPOLYLINE
  5
113
100
AcDbEntity
  8
0
 62
1
100
AcDbPolyline
 90
2
 70
0
 10
18.046320
 20
-16.858888
 30
0.0
 10
31.246700
 20
-16.858888
 30
0.0
  0
LWPOLYLINE
  5
114
100
AcDbEntity
  8
0
 62
1
100
AcDbPolyline
 90
4
 70
1
 10
41.000300
 20
-17.242428
 30
0.0
 10
54.167660
 20
-18.164448
 30
0.0
 10
53.245640
 20
-31.331807
 30
0.0
 10
40.078280
 20
-30.409787
 30
0.0
  0
LWPOLYLINE
  5
115
100
AcDbEntity
  8
0
 62
1
100
AcDbPolyline
 90
2
 70
0
 10
18.046320
 20
-49.109267
 30
0.0
 10
18.046320
 20
-35.908887
 30
0.0
  0
LWPOLYLINE
  5
116
100
AcDbEntity
  8
0
 62
1
100
AcDbPolyline
 90
2
 70
0
 10
31.246700
 20
-49.109267
 30
0.0
 10
18.046320
 20
-49.109267
 30
0.0
  0
LWPOLYLINE
  5
117
100
AcDbEntity
  8
0
 62
1
100
AcDbPolyline
 90
2
 70
0
 10
31.246700
 20
-35.908887
 30
0.0
 10
31.246700
 20
-49.109267
 30
0.0
  0
LWPOLYLINE
  5
118
100
AcDbEntity
  8
0
 62
1
100
AcDbPolyline
 90
2
 70
0
 10
18.046320
 20
-35.908887
 30
0.0
 10
31.246700
 20
-35.908887
 30
0.0
  0
LWPOLYLINE
  5
119
100
AcDbEntity
  8
0
 62
1
100
AcDbPolyline
 90
2
 70
0
 10
248.838343
 20
-87.209268
 30
0.0
 10
248.838343
 20
-74.008888
 30
0.0
  0
LWPOLYLINE
  5
11a
100
AcDbEntity
  8
0
 62
1
100
AcDbPolyline
 90
2
 70
0
 10
262.038723
 20
-87.209268
 30
0.0
 10
248.838343
 20
-87.209268
 30
0.0
  0
LWPOLYLINE
  5
11b
100
AcDbEntity
  8
0
 62
1
100
AcDbPolyline
 90
2
 70
0
 10
262.038723
 20
-74.008888
 30
0.0
 10
262.038723
 20
-87.209268
 30
0.0
  0
LWPOLYLINE
  5
11c
100
AcDbEntity
  8
0
 62
1
100
AcDbPolyline
 90
2
 70
0
 10
248.838343
 20
-74.008888
 30
0.0
 10
262.038723
 20
-74.008888
 30
0.0
  0
LWPOLYLINE
  5
11d
100
AcDbEntity
  8
0
 62
1
100
AcDbPolyline
 90
2
 70
0
 10
194.050542
 20
-93.246848
 30
0.0
 10
192.214122
 20
-80.173468
 30
0.0
  0
LWPOLYLINE
  5
11e
100
AcDbEntity
  8
0
 62
1
100
AcDbPolyline
 90
2
 70
0
 10
207.121383
 20
-91.407888
 30
0.0
 10
194.050542
 20
-93.246848
 30
0.0
  0
LWPOLYLINE
  5
11f
100
AcDbEntity
  8
0
 62
1
100
AcDbPolyline
 90
2
 70
0
 10
205.284962
 20
-78.337048
 30
0.0
 10
207.121383
 20
-91.407888
 30
0.0
  0
LWPOLYLINE
  5
120
100
AcDbEntity
  8
0
 62
1
100
AcDbPolyline
 90
2
 70
0
 10
192.214122
 20
-80.173468
 30
0.0
 10
205.284962
 20
-78.337048
 30
0.0
  0
LWPOLYLINE
  5
121
100
AcDbEntity
  8
0
 62
1
100
AcDbPolyline
 90
2
 70
0
 10
175.185962
 20
-95.896068
 30
0.0
 10
173.349542
 20
-82.825228
 30
0.0
  0
LWPOLYLINE
  5
122
100
AcDbEntity
  8
0
 62
1
100
AcDbPolyline
 90
2
 70
0
 10
188.256802
 20
-94.059648
 30
0.0
 10
175.185962
 20
-95.896068
 30
0.0
  0
LWPOLYLINE
  5
123
100
AcDbEntity
  8
0
 62
1
100
AcDbPolyline
 90
2
 70
0
 10
186.420382
 20
-80.988808
 30
0.0
 10
188.256802
 20
-94.059648
 30
0.0
  0
LWPOLYLINE
  5
124
100
AcDbEntity
  8
0
 62
1
100
AcDbPolyline
 90
2
 70
0
 10
173.349542
 20
-82.825228
 30
0.0
 10
186.420382
 20
-80.988808
 30
0.0
  0
LWPOLYLINE
  5
125
100
AcDbEntity
  8
0
 62
1
100
AcDbPolyline
 90
2
 70
0
 10
156.321382
 20
-98.547828
 30
0.0
 10
154.484962
 20
-85.476988
 30
0.0
  0
LWPOLYLINE
  5
126
100
AcDbEntity
  8
0
 62
1
100
AcDbPolyline
 90
2
 70
0
 10
169.392222
 20
-96.711408
 30
0.0
 10
156.321382
 20
-98.547828
 30
0.0
  0
LWPOLYLINE
  5
127
100
AcDbEntity
  8
0
 62
1
100
AcDbPolyline
 90
2
 70
0
 10
167.555802
 20
-83.640568
 30
0.0
 10
169.392222
 20
-96.711408
 30
0.0
  0
LWPOLYLINE
  5
128
100
AcDbEntity
  8
0
 62
1
100
AcDbPolyline
 90
2
 70
0
 10
154.484962
 20
-85.476988
 30
0.0
 10
167.555802
 20
-83.640568
 30
0.0
  0
LWPOLYLINE
  5
129
100
AcDbEntity
  8
0
 62
1
100
AcDbPolyline
 90
2
 70
0
 10
110.649641
 20
-96.744428
 30
0.0
 10
112.486061
 20
-83.673588
 30
0.0
  0
LWPOLYLINE
  5
12a
100
AcDbEntity
  8
0
 62
1
100
AcDbPolyline
 90
2
 70
0
 10
123.720481
 20
-98.580848
 30
0.0
 10
110.649641
 20
-96.744428
 30
0.0
  0
LWPOLYLINE
  5
12b
100
AcDbEntity
  8
0
 62
1
100
AcDbPolyline
 90
2
 70
0
 10
125.556901
 20
-85.510008
 30
0.0
 10
123.720481
 20
-98.580848
 30
0.0
  0
LWPOLYLINE
  5
12c
100
AcDbEntity
  8
0
 62
1
100
AcDbPolyline
 90
2
 70
0
 10
112.486061
 20
-83.673588
 30
0.0
 10
125.556901
 20
-85.510008
 30
0.0
  0
LWPOLYLINE
  5
12d
100
AcDbEntity
  8
0
 62
1
100
AcDbPolyline
 90
2
 70
0
 10
91.759661
 20
-94.085048
 30
0.0
 10
93.596081
 20
-81.014208
 30
0.0
  0
LWPOLYLINE
  5
12e
100
AcDbEntity
  8
0
 62
1
100
AcDbPolyline
 90
2
 70
0
 10
104.830501
 20
-95.924008
 30
0.0
 10
91.759661
 20
-94.085048
 30
0.0
  0
LWPOLYLINE
  5
12f
100
AcDbEntity
  8
0
 62
1
100
AcDbPolyline
 90
2
 70
0
 10
106.669461
 20
-82.850628
 30
0.0
 10
104.830501
 20
-95.924008
 30
0.0
  0
LWPOLYLINE
  5
130
100
AcDbEntity
  8
0
 62
1
100
AcDbPolyline
 90
2
 70
0
 10
93.596081
 20
-81.014208
 30
0.0
 10
106.669461
 20
-82.850628
 30
0.0
  0
LWPOLYLINE
  5
131
100
AcDbEntity
  8
0
 62
1
100
AcDbPolyline
 90
2
 70
0
 10
72.895080
 20
-91.433288
 30
0.0
 10
74.731500
 20
-78.362448
 30
0.0
  0
LWPOLYLINE
  5
132
100
AcDbEntity
  8
0
 62
1
100
AcDbPolyline
 90
2
 70
0
 10
85.965920
 20
-93.272248
 30
0.0
 10
72.895080
 20
-91.433288
 30
0.0
  0
LWPOLYLINE
  5
133
100
AcDbEntity
  8
0
 62
1
100
AcDbPolyline
 90
2
 70
0
 10
87.804880
 20
-80.198868
 30
0.0
 10
85.965920
 20
-93.272248
 30
0.0
  0
LWPOLYLINE
  5
134
100
AcDbEntity
  8
0
 62
1
100
AcDbPolyline
 90
2
 70
0
 10
74.731500
 20
-78.362448
 30
0.0
 10
87.804880
 20
-80.198868
 30
0.0
  0
LWPOLYLINE
  5
135
100
AcDbEntity
  8
0
 62
1
100
AcDbPolyline
 90
2
 70
0
 10
248.805323
 20
-68.159268
 30
0.0
 10
248.805323
 20
-54.958887
 30
0.0
  0
LWPOLYLINE
  5
136
100
AcDbEntity
  8
0
 62
1
100
AcDbPolyline
 90
2
 70
0
 10
262.005703
 20
-68.159268
 30
0.0
 10
248.805323
 20
-68.159268
 30
0.0
  0
LWPOLYLINE
  5
137
100
AcDbEntity
  8
0
 62
1
100
AcDbPolyline
 90
2
 70
0
 10
262.005703
 20
-54.958887
 30
0.0
 10
262.005703
 20
-68.159268
 30
0.0
  0
LWPOLYLINE
  5
138
100
AcDbEntity
  8
0
 62
1
100
AcDbPolyline
 90
2
 70
0
 10
248.805323
 20
-54.958887
 30
0.0
 10
262.005703
 20
-54.958887
 30
0.0
  0
LWPOLYLINE
  5
139
100
AcDbEntity
  8
0
 62
1
100
AcDbPolyline
 90
2
 70
0
 10
229.488623
 20
-69.254008
 30
0.0
 10
228.569143
 20
-56.086647
 30
0.0
  0
LWPOLYLINE
  5
13a
100
AcDbEntity
  8
0
 62
1
100
AcDbPolyline
 90
2
 70
0
 10
242.655983
 20
-68.331988
 30
0.0
 10
229.488623
 20
-69.254008
 30
0.0
  0
LWPOLYLINE
  5
13b
100
AcDbEntity
  8
0
 62
1
100
AcDbPolyline
 90
2
 70
0
 10
241.736503
 20
-55.164627
 30
0.0
 10
242.655983
 20
-68.331988
 30
0.0
  0
LWPOLYLINE
  5
13c
100
AcDbEntity
  8
0
 62
1
100
AcDbPolyline
 90
2
 70
0
 10
228.569143
 20
-56.086647
 30
0.0
 10
241.736503
 20
-55.164627
 30
0.0
  0
LWPOLYLINE
  5
13d
100
AcDbEntity
  8
0
 62
1
100
AcDbPolyline
 90
2
 70
0
 10
210.263363
 20
-71.730508
 30
0.0
 10
208.426943
 20
-58.657127
 30
0.0
  0
LWPOLYLINE
  5
13e
100
AcDbEntity
  8
0
 62
1
100
AcDbPolyline
 90
2
 70
0
 10
223.334203
 20
-69.891548
 30
0.0
 10
210.263363
 20
-71.730508
 30
0.0
  0
LWPOLYLINE
  5
13f
100
AcDbEntity
  8
0
 62
1
100
AcDbPolyline
 90
2
 70
0
 10
221.497783
 20
-56.820707
 30
0.0
 10
223.334203
 20
-69.891548
 30
0.0
  0
LWPOLYLINE
  5
140
100
AcDbEntity
  8
0
 62
1
100
AcDbPolyline
 90
2
 70
0
 10
208.426943
 20
-58.657127
 30
0.0
 10
221.497783
 20
-56.820707
 30
0.0
  0
LWPOLYLINE
  5
141
100
AcDbEntity
  8
0
 62
1
100
AcDbPolyline
 90
2
 70
0
 10
191.411482
 20
-74.384808
 30
0.0
 10
189.575062
 20
-61.313967
 30
0.0
  0
LWPOLYLINE
  5
142
100
AcDbEntity
  8
0
 62
1
100
AcDbPolyline
 90
2
 70
0
 10
204.484862
 20
-72.548388
 30
0.0
 10
191.411482
 20
-74.384808
 30
0.0
  0
LWPOLYLINE
  5
143
100
AcDbEntity
  8
0
 62
1
100
AcDbPolyline
 90
2
 70
0
 10
202.645902
 20
-59.477547
 30
0.0
 10
204.484862
 20
-72.548388
 30
0.0
  0
LWPOLYLINE
  5
144
100
AcDbEntity
  8
0
 62
1
100
AcDbPolyline
 90
2
 70
0
 10
189.575062
 20
-61.313967
 30
0.0
 10
202.645902
 20
-59.477547
 30
0.0
  0
LWPOLYLINE
  5
145
100
AcDbEntity
  8
0
 62
1
100
AcDbPolyline
 90
2
 70
0
 10
172.534202
 20
-77.031488
 30
0.0
 10
170.697782
 20
-63.960648
 30
0.0
  0
LWPOLYLINE
  5
146
100
AcDbEntity
  8
0
 62
1
100
AcDbPolyline
 90
2
 70
0
 10
185.605042
 20
-75.195068
 30
0.0
 10
172.534202
 20
-77.031488
 30
0.0
  0
LWPOLYLINE
  5
147
100
AcDbEntity
  8
0
 62
1
100
AcDbPolyline
 90
2
 70
0
 10
183.768622
 20
-62.124228
 30
0.0
 10
185.605042
 20
-75.195068
 30
0.0
  0
LWPOLYLINE
  5
148
100
AcDbEntity
  8
0
 62
1
100
AcDbPolyline
 90
2
 70
0
 10
170.697782
 20
-63.960648
 30
0.0
 10
183.768622
 20
-62.124228
 30
0.0
  0
LWPOLYLINE
  5
149
100
AcDbEntity
  8
0
 62
1
100
AcDbPolyline
 90
2
 70
0
 10
153.669622
 20
-79.683248
 30
0.0
 10
151.833202
 20
-66.612408
 30
0.0
  0
LWPOLYLINE
  5
14a
100
AcDbEntity
  8
0
 62
1
100
AcDbPolyline
 90
2
 70
0
 10
166.740462
 20
-77.846828
 30
0.0
 10
153.669622
 20
-79.683248
 30
0.0
  0
LWPOLYLINE
  5
14b
100
AcDbEntity
  8
0
 62
1
100
AcDbPolyline
 90
2
 70
0
 10
164.904042
 20
-64.775988
 30
0.0
 10
166.740462
 20
-77.846828
 30
0.0
  0
LWPOLYLINE
  5
14c
100
AcDbEntity
  8
0
 62
1
100
AcDbPolyline
 90
2
 70
0
 10
151.833202
 20
-66.612408
 30
0.0
 10
164.904042
 20
-64.775988
 30
0.0
  0
LWPOLYLINE
  5
14d
100
AcDbEntity
  8
0
 62
1
100
AcDbPolyline
 90
2
 70
0
 10
113.276001
 20
-77.872228
 30
0.0
 10
115.112421
 20
-64.801388
 30
0.0
  0
LWPOLYLINE
  5
14e
100
AcDbEntity
  8
0
 62
1
100
AcDbPolyline
 90
2
 70
0
 10
126.346841
 20
-79.708648
 30
0.0
 10
113.276001
 20
-77.872228
 30
0.0
  0
LWPOLYLINE
  5
14f
100
AcDbEntity
  8
0
 62
1
100
AcDbPolyline
 90
2
 70
0
 10
128.185801
 20
-66.637808
 30
0.0
 10
126.346841
 20
-79.708648
 30
0.0
  0
LWPOLYLINE
  5
150
100
AcDbEntity
  8
0
 62
1
100
AcDbPolyline
 90
2
 70
0
 10
115.112421
 20
-64.801388
 30
0.0
 10
128.185801
 20
-66.637808
 30
0.0
  0
LWPOLYLINE
  5
151
100
AcDbEntity
  8
0
 62
1
100
AcDbPolyline
 90
2
 70
0
 10
94.411421
 20
-75.220468
 30
0.0
 10
96.247841
 20
-62.149628
 30
0.0
  0
LWPOLYLINE
  5
152
100
AcDbEntity
  8
0
 62
1
100
AcDbPolyline
 90
2
 70
0
 10
107.482261
 20
-77.059428
 30
0.0
 10
94.411421
 20
-75.220468
 30
0.0
  0
LWPOLYLINE
  5
153
100
AcDbEntity
  8
0
 62
1
100
AcDbPolyline
 90
2
 70
0
 10
109.321221
 20
-63.986048
 30
0.0
 10
107.482261
 20
-77.059428
 30
0.0
  0
LWPOLYLINE
  5
154
100
AcDbEntity
  8
0
 62
1
100
AcDbPolyline
 90
2
 70
0
 10
96.247841
 20
-62.149628
 30
0.0
 10
109.321221
 20
-63.986048
 30
0.0
  0
LWPOLYLINE
  5
155
100
AcDbEntity
  8
0
 62
1
100
AcDbPolyline
 90
2
 70
0
 10
75.546840
 20
-72.568708
 30
0.0
 10
77.383260
 20
-59.497867
 30
0.0
  0
LWPOLYLINE
  5
156
100
AcDbEntity
  8
0
 62
1
100
AcDbPolyline
 90
2
 70
0
 10
88.617681
 20
-74.407668
 30
0.0
 10
75.546840
 20
-72.568708
 30
0.0
  0
LWPOLYLINE
  5
157
100
AcDbEntity
  8
0
 62
1
100
AcDbPolyline
 90
2
 70
0
 10
90.456641
 20
-61.334287
 30
0.0
 10
88.617681
 20
-74.407668
 30
0.0
  0
LWPOLYLINE
  5
158
100
AcDbEntity
  8
0
 62
1
100
AcDbPolyline
 90
2
 70
0
 10
77.383260
 20
-59.497867
 30
0.0
 10
90.456641
 20
-61.334287
 30
0.0
  0
LWPOLYLINE
  5
159
100
AcDbEntity
  8
0
 62
1
100
AcDbPolyline
 90
2
 70
0
 10
56.682260
 20
-69.919488
 30
0.0
 10
58.518680
 20
-56.846107
 30
0.0
  0
LWPOLYLINE
  5
15a
100
AcDbEntity
  8
0
 62
1
100
AcDbPolyline
 90
2
 70
0
 10
69.753100
 20
-71.755908
 30
0.0
 10
56.682260
 20
-69.919488
 30
0.0
  0
LWPOLYLINE
  5
15b
100
AcDbEntity
  8
0
 62
1
100
AcDbPolyline
 90
2
 70
0
 10
71.592060
 20
-58.685067
 30
0.0
 10
69.753100
 20
-71.755908
 30
0.0
  0
LWPOLYLINE
  5
15c
100
AcDbEntity
  8
0
 62
1
100
AcDbPolyline
 90
2
 70
0
 10
58.518680
 20
-56.846107
 30
0.0
 10
71.592060
 20
-58.685067
 30
0.0
  0
LWPOLYLINE
  5
15d
100
AcDbEntity
  8
0
 62
1
100
AcDbPolyline
 90
2
 70
0
 10
37.421440
 20
-68.418348
 30
0.0
 10
38.340920
 20
-55.250987
 30
0.0
  0
LWPOLYLINE
  5
15e
100
AcDbEntity
  8
0
 62
1
100
AcDbPolyline
 90
2
 70
0
 10
50.588800
 20
-69.337828
 30
0.0
 10
37.421440
 20
-68.418348
 30
0.0
  0
LWPOLYLINE
  5
15f
100
AcDbEntity
  8
0
 62
1
100
AcDbPolyline
 90
2
 70
0
 10
51.510820
 20
-56.170467
 30
0.0
 10
50.588800
 20
-69.337828
 30
0.0
  0
LWPOLYLINE
  5
160
100
AcDbEntity
  8
0
 62
1
100
AcDbPolyline
 90
2
 70
0
 10
38.340920
 20
-55.250987
 30
0.0
 10
51.510820
 20
-56.170467
 30
0.0
  0
LWPOLYLINE
  5
161
100
AcDbEntity
  8
0
 62
1
100
AcDbPolyline
 90
2
 70
0
 10
18.046320
 20
-68.159268
 30
0.0
 10
18.046320
 20
-54.958887
 30
0.0
  0
LWPOLYLINE
  5
162
100
AcDbEntity
  8
0
 62
1
100
AcDbPolyline
 90
2
 70
0
 10
31.246700
 20
-68.159268
 30
0.0
 10
18.046320
 20
-68.159268
 30
0.0
  0
LWPOLYLINE
  5
163
100
AcDbEntity
  8
0
 62
1
100
AcDbPolyline
 90
2
 70
0
 10
31.246700
 20
-54.958887
 30
0.0
 10
31.246700
 20
-68.159268
 30
0.0
  0
LWPOLYLINE
  5
164
100
AcDbEntity
  8
0
 62
1
100
AcDbPolyline
 90
2
 70
0
 10
18.046320
 20
-54.958887
 30
0.0
 10
31.246700
 20
-54.958887
 30
0.0
  0
LWPOLYLINE
  5
165
100
AcDbEntity
  8
0
 62
1
100
AcDbPolyline
 90
2
 70
0
 10
248.805323
 20
-49.109267
 30
0.0
 10
248.805323
 20
-35.908887
 30
0.0
  0
LWPOLYLINE
  5
166
100
AcDbEntity
  8
0
 62
1
100
AcDbPolyline
 90
2
 70
0
 10
262.005703
 20
-49.109267
 30
0.0
 10
248.805323
 20
-49.109267
 30
0.0
  0
LWPOLYLINE
  5
167
100
AcDbEntity
  8
0
 62
1
100
AcDbPolyline
 90
2
 70
0
 10
262.005703
 20
-35.908887
 30
0.0
 10
262.005703
 20
-49.109267
 30
0.0
  0
LWPOLYLINE
  5
168
100
AcDbEntity
  8
0
 62
1
100
AcDbPolyline
 90
2
 70
0
 10
248.805323
 20
-35.908887
 30
0.0
 10
262.005703
 20
-35.908887
 30
0.0
  0
LWPOLYLINE
  5
169
100
AcDbEntity
  8
0
 62
1
100
AcDbPolyline
 90
2
 70
0
 10
228.160203
 20
-50.249727
 30
0.0
 10
227.240723
 20
-37.082367
 30
0.0
  0
LWPOLYLINE
  5
16a
100
AcDbEntity
  8
0
 62
1
100
AcDbPolyline
 90
2
 70
0
 10
241.327563
 20
-49.330247
 30
0.0
 10
228.160203
 20
-50.249727
 30
0.0
  0
LWPOLYLINE
  5
16b
100
AcDbEntity
  8
0
 62
1
100
AcDbPolyline
 90
2
 70
0
 10
240.408083
 20
-36.160347
 30
0.0
 10
241.327563
 20
-49.330247
 30
0.0
  0
LWPOLYLINE
  5
16c
100
AcDbEntity
  8
0
 62
1
100
AcDbPolyline
 90
2
 70
0
 10
227.240723
 20
-37.082367
 30
0.0
 10
240.408083
 20
-36.160347
 30
0.0
  0
LWPOLYLINE
  5
16d
100
AcDbEntity
  8
0
 62
1
100
AcDbPolyline
 90
2
 70
0
 10
207.611603
 20
-52.865927
 30
0.0
 10
205.775182
 20
-39.792547
 30
0.0
  0
LWPOLYLINE
  5
16e
100
AcDbEntity
  8
0
 62
1
100
AcDbPolyline
 90
2
 70
0
 10
220.684983
 20
-51.026967
 30
0.0
 10
207.611603
 20
-52.865927
 30
0.0
  0
LWPOLYLINE
  5
16f
100
AcDbEntity
  8
0
 62
1
100
AcDbPolyline
 90
2
 70
0
 10
218.846023
 20
-37.956127
 30
0.0
 10
220.684983
 20
-51.026967
 30
0.0
  0
LWPOLYLINE
  5
170
100
AcDbEntity
  8
0
 62
1
100
AcDbPolyline
 90
2
 70
0
 10
205.775182
 20
-39.792547
 30
0.0
 10
218.846023
 20
-37.956127
 30
0.0
  0
LWPOLYLINE
  5
171
100
AcDbEntity
  8
0
 62
1
100
AcDbPolyline
 90
2
 70
0
 10
188.759722
 20
-55.515147
 30
0.0
 10
186.923302
 20
-42.444307
 30
0.0
  0
LWPOLYLINE
  5
172
100
AcDbEntity
  8
0
 62
1
100
AcDbPolyline
 90
2
 70
0
 10
201.833102
 20
-53.678727
 30
0.0
 10
188.759722
 20
-55.515147
 30
0.0
  0
LWPOLYLINE
  5
173
100
AcDbEntity
  8
0
 62
1
100
AcDbPolyline
 90
2
 70
0
 10
199.994142
 20
-40.605347
 30
0.0
 10
201.833102
 20
-53.678727
 30
0.0
  0
LWPOLYLINE
  5
174
100
AcDbEntity
  8
0
 62
1
100
AcDbPolyline
 90
2
 70
0
 10
186.923302
 20
-42.444307
 30
0.0
 10
199.994142
 20
-40.605347
 30
0.0
  0
LWPOLYLINE
  5
175
100
AcDbEntity
  8
0
 62
1
100
AcDbPolyline
 90
2
 70
0
 10
169.882442
 20
-58.166907
 30
0.0
 10
168.046022
 20
-45.096067
 30
0.0
  0
LWPOLYLINE
  5
176
100
AcDbEntity
  8
0
 62
1
100
AcDbPolyline
 90
2
 70
0
 10
182.955822
 20
-56.330487
 30
0.0
 10
169.882442
 20
-58.166907
 30
0.0
  0
LWPOLYLINE
  5
177
100
AcDbEntity
  8
0
 62
1
100
AcDbPolyline
 90
2
 70
0
 10
181.116862
 20
-43.259647
 30
0.0
 10
182.955822
 20
-56.330487
 30
0.0
  0
LWPOLYLINE
  5
178
100
AcDbEntity
  8
0
 62
1
100
AcDbPolyline
 90
2
 70
0
 10
168.046022
 20
-45.096067
 30
0.0
 10
181.116862
 20
-43.259647
 30
0.0
  0
LWPOLYLINE
  5
179
100
AcDbEntity
  8
0
 62
1
100
AcDbPolyline
 90
2
 70
0
 10
151.017862
 20
-60.818667
 30
0.0
 10
149.181442
 20
-47.747827
 30
0.0
  0
LWPOLYLINE
  5
17a
100
AcDbEntity
  8
0
 62
1
100
AcDbPolyline
 90
2
 70
0
 10
164.091242
 20
-58.982247
 30
0.0
 10
151.017862
 20
-60.818667
 30
0.0
  0
LWPOLYLINE
  5
17b
100
AcDbEntity
  8
0
 62
1
100
AcDbPolyline
 90
2
 70
0
 10
162.252282
 20
-45.911407
 30
0.0
 10
164.091242
 20
-58.982247
 30
0.0
  0
LWPOLYLINE
  5
17c
100
AcDbEntity
  8
0
 62
1
100
AcDbPolyline
 90
2
 70
0
 10
149.181442
 20
-47.747827
 30
0.0
 10
162.252282
 20
-45.911407
 30
0.0
  0
LWPOLYLINE
  5
17d
100
AcDbEntity
  8
0
 62
1
100
AcDbPolyline
 90
2
 70
0
 10
115.927761
 20
-59.007647
 30
0.0
 10
117.764181
 20
-45.936807
 30
0.0
  0
LWPOLYLINE
  5
17e
100
AcDbEntity
  8
0
 62
1
100
AcDbPolyline
 90
2
 70
0
 10
128.998601
 20
-60.844067
 30
0.0
 10
115.927761
 20
-59.007647
 30
0.0
  0
LWPOLYLINE
  5
17f
100
AcDbEntity
  8
0
 62
1
100
AcDbPolyline
 90
2
 70
0
 10
130.835021
 20
-47.773227
 30
0.0
 10
128.998601
 20
-60.844067
 30
0.0
  0
LWPOLYLINE
  5
180
100
AcDbEntity
  8
0
 62
1
100
AcDbPolyline
 90
2
 70
0
 10
117.764181
 20
-45.936807
 30
0.0
 10
130.835021
 20
-47.773227
 30
0.0
  0
LWPOLYLINE
  5
181
100
AcDbEntity
  8
0
 62
1
100
AcDbPolyline
 90
2
 70
0
 10
97.063181
 20
-56.355887
 30
0.0
 10
98.899601
 20
-43.285047
 30
0.0
  0
LWPOLYLINE
  5
182
100
AcDbEntity
  8
0
 62
1
100
AcDbPolyline
 90
2
 70
0
 10
110.134021
 20
-58.194847
 30
0.0
 10
97.063181
 20
-56.355887
 30
0.0
  0
LWPOLYLINE
  5
183
100
AcDbEntity
  8
0
 62
1
100
AcDbPolyline
 90
2
 70
0
 10
111.970441
 20
-45.121467
 30
0.0
 10
110.134021
 20
-58.194847
 30
0.0
  0
LWPOLYLINE
  5
184
100
AcDbEntity
  8
0
 62
1
100
AcDbPolyline
 90
2
 70
0
 10
98.899601
 20
-43.285047
 30
0.0
 10
111.970441
 20
-45.121467
 30
0.0
  0
LWPOLYLINE
  5
185
100
AcDbEntity
  8
0
 62
1
100
AcDbPolyline
 90
2
 70
0
 10
78.198600
 20
-53.704127
 30
0.0
 10
80.035020
 20
-40.633287
 30
0.0
  0
LWPOLYLINE
  5
186
100
AcDbEntity
  8
0
 62
1
100
AcDbPolyline
 90
2
 70
0
 10
91.269441
 20
-55.543087
 30
0.0
 10
78.198600
 20
-53.704127
 30
0.0
  0
LWPOLYLINE
  5
187
100
AcDbEntity
  8
0
 62
1
100
AcDbPolyline
 90
2
 70
0
 10
93.105861
 20
-42.469707
 30
0.0
 10
91.269441
 20
-55.543087
 30
0.0
  0
LWPOLYLINE
  5
188
100
AcDbEntity
  8
0
 62
1
100
AcDbPolyline
 90
2
 70
0
 10
80.035020
 20
-40.633287
 30
0.0
 10
93.105861
 20
-42.469707
 30
0.0
  0
LWPOLYLINE
  5
189
100
AcDbEntity
  8
0
 62
1
100
AcDbPolyline
 90
2
 70
0
 10
59.334020
 20
-51.054907
 30
0.0
 10
61.170440
 20
-37.981527
 30
0.0
  0
LWPOLYLINE
  5
18a
100
AcDbEntity
  8
0
 62
1
100
AcDbPolyline
 90
2
 70
0
 10
72.404860
 20
-52.891327
 30
0.0
 10
59.334020
 20
-51.054907
 30
0.0
  0
LWPOLYLINE
  5
18b
100
AcDbEntity
  8
0
 62
1
100
AcDbPolyline
 90
2
 70
0
 10
74.241280
 20
-39.820487
 30
0.0
 10
72.404860
 20
-52.891327
 30
0.0
  0
LWPOLYLINE
  5
18c
100
AcDbEntity
  8
0
 62
1
100
AcDbPolyline
 90
2
 70
0
 10
61.170440
 20
-37.981527
 30
0.0
 10
74.241280
 20
-39.820487
 30
0.0
  0
LWPOLYLINE
  5
18d
100
AcDbEntity
  8
0
 62
1
100
AcDbPolyline
 90
2
 70
0
 10
38.749860
 20
-49.414067
 30
0.0
 10
39.671880
 20
-36.246707
 30
0.0
  0
LWPOLYLINE
  5
18e
100
AcDbEntity
  8
0
 62
1
100
AcDbPolyline
 90
2
 70
0
 10
51.917220
 20
-50.336087
 30
0.0
 10
38.749860
 20
-49.414067
 30
0.0
  0
LWPOLYLINE
  5
18f
100
AcDbEntity
  8
0
 62
1
100
AcDbPolyline
 90
2
 70
0
 10
52.839240
 20
-37.166187
 30
0.0
 10
51.917220
 20
-50.336087
 30
0.0
  0
LWPOLYLINE
  5
190
100
AcDbEntity
  8
0
 62
1
100
AcDbPolyline
 90
2
 70
0
 10
39.671880
 20
-36.246707
 30
0.0
 10
52.839240
 20
-37.166187
 30
0.0
  0
LWPOLYLINE
  5
191
100
AcDbEntity
  8
0
 62
1
100
AcDbPolyline
 90
2
 70
0
 10
248.805323
 20
-30.059267
 30
0.0
 10
248.805323
 20
-16.858888
 30
0.0
  0
LWPOLYLINE
  5
192
100
AcDbEntity
  8
0
 62
1
100
AcDbPolyline
 90
2
 70
0
 10
262.005703
 20
-30.059267
 30
0.0
 10
248.805323
 20
-30.059267
 30
0.0
  0
LWPOLYLINE
  5
193
100
AcDbEntity
  8
0
 62
1
100
AcDbPolyline
 90
2
 70
0
 10
262.005703
 20
-16.858888
 30
0.0
 10
262.005703
 20
-30.059267
 30
0.0
  0
LWPOLYLINE
  5
194
100
AcDbEntity
  8
0
 62
1
100
AcDbPolyline
 90
2
 70
0
 10
248.805323
 20
-16.858888
 30
0.0
 10
262.005703
 20
-16.858888
 30
0.0
  0
LWPOLYLINE
  5
195
100
AcDbEntity
  8
0
 62
1
100
AcDbPolyline
 90
2
 70
0
 10
226.831783
 20
-31.245447
 30
0.0
 10
225.909763
 20
-18.078088
 30
0.0
  0
LWPOLYLINE
  5
196
100
AcDbEntity
  8
0
 62
1
100
AcDbPolyline
 90
2
 70
0
 10
239.999143
 20
-30.325967
 30
0.0
 10
226.831783
 20
-31.245447
 30
0.0
  0
LWPOLYLINE
  5
197
100
AcDbEntity
  8
0
 62
1
100
AcDbPolyline
 90
2
 70
0
 10
239.079663
 20
-17.158608
 30
0.0
 10
239.999143
 20
-30.325967
 30
0.0
  0
LWPOLYLINE
  5
198
100
AcDbEntity
  8
0
 62
1
100
AcDbPolyline
 90
2
 70
0
 10
225.909763
 20
-18.078088
 30
0.0
 10
239.079663
 20
-17.158608
 30
0.0
  0
LWPOLYLINE
  5
199
100
AcDbEntity
  8
0
 62
1
100
AcDbPolyline
 90
2
 70
0
 10
204.962382
 20
-34.001347
 30
0.0
 10
203.123422
 20
-20.927968
 30
0.0
  0
LWPOLYLINE
  5
19a
100
AcDbEntity
  8
0
 62
1
100
AcDbPolyline
 90
2
 70
0
 10
218.033223
 20
-32.162387
 30
0.0
 10
204.962382
 20
-34.001347
 30
0.0
  0
LWPOLYLINE
  5
19b
100
AcDbEntity
  8
0
 62
1
100
AcDbPolyline
 90
2
 70
0
 10
216.196803
 20
-19.091548
 30
0.0
 10
218.033223
 20
-32.162387
 30
0.0
  0
LWPOLYLINE
  5
19c
100
AcDbEntity
  8
0
 62
1
100
AcDbPolyline
 90
2
 70
0
 10
203.123422
 20
-20.927968
 30
0.0
 10
216.196803
 20
-19.091548
 30
0.0
  0
LWPOLYLINE
  5
19d
100
AcDbEntity
  8
0
 62
1
100
AcDbPolyline
 90
2
 70
0
 10
186.110502
 20
-36.655647
 30
0.0
 10
184.274082
 20
-23.584808
 30
0.0
  0
LWPOLYLINE
  5
19e
100
AcDbEntity
  8
0
 62
1
100
AcDbPolyline
 90
2
 70
0
 10
199.181342
 20
-34.819227
 30
0.0
 10
186.110502
 20
-36.655647
 30
0.0
  0
LWPOLYLINE
  5
19f
100
AcDbEntity
  8
0
 62
1
100
AcDbPolyline
 90
2
 70
0
 10
197.344922
 20
-21.748388
 30
0.0
 10
199.181342
 20
-34.819227
 30
0.0
  0
LWPOLYLINE
  5
1a0
100
AcDbEntity
  8
0
 62
1
100
AcDbPolyline
 90
2
 70
0
 10
184.274082
 20
-23.584808
 30
0.0
 10
197.344922
 20
-21.748388
 30
0.0
  0
LWPOLYLINE
  5
1a1
100
AcDbEntity
  8
0
 62
1
100
AcDbPolyline
 90
2
 70
0
 10
167.245922
 20
-39.307407
 30
0.0
 10
165.409502
 20
-26.236567
 30
0.0
  0
LWPOLYLINE
  5
1a2
100
AcDbEntity
  8
0
 62
1
100
AcDbPolyline
 90
2
 70
0
 10
180.316762
 20
-37.470987
 30
0.0
 10
167.245922
 20
-39.307407
 30
0.0
  0
LWPOLYLINE
  5
1a3
100
AcDbEntity
  8
0
 62
1
100
AcDbPolyline
 90
2
 70
0
 10
178.480342
 20
-24.400147
 30
0.0
 10
180.316762
 20
-37.470987
 30
0.0
  0
LWPOLYLINE
  5
1a4
100
AcDbEntity
  8
0
 62
1
100
AcDbPolyline
 90
2
 70
0
 10
165.409502
 20
-26.236567
 30
0.0
 10
178.480342
 20
-24.400147
 30
0.0
  0
LWPOLYLINE
  5
1a5
100
AcDbEntity
  8
0
 62
1
100
AcDbPolyline
 90
2
 70
0
 10
118.579521
 20
-40.143067
 30
0.0
 10
120.415941
 20
-27.072227
 30
0.0
  0
LWPOLYLINE
  5
1a6
100
AcDbEntity
  8
0
 62
1
100
AcDbPolyline
 90
2
 70
0
 10
131.650361
 20
-41.979487
 30
0.0
 10
118.579521
 20
-40.143067
 30
0.0
  0
LWPOLYLINE
  5
1a7
100
AcDbEntity
  8
0
 62
1
100
AcDbPolyline
 90
2
 70
0
 10
133.486781
 20
-28.908647
 30
0.0
 10
131.650361
 20
-41.979487
 30
0.0
  0
LWPOLYLINE
  5
1a8
100
AcDbEntity
  8
0
 62
1
100
AcDbPolyline
 90
2
 70
0
 10
120.415941
 20
-27.072227
 30
0.0
 10
133.486781
 20
-28.908647
 30
0.0
  0
LWPOLYLINE
  5
1a9
100
AcDbEntity
  8
0
 62
1
100
AcDbPolyline
 90
2
 70
0
 10
99.714941
 20
-37.491307
 30
0.0
 10
101.551361
 20
-24.420467
 30
0.0
  0
LWPOLYLINE
  5
1aa
100
AcDbEntity
  8
0
 62
1
100
AcDbPolyline
 90
2
 70
0
 10
112.785781
 20
-39.330267
 30
0.0
 10
99.714941
 20
-37.491307
 30
0.0
  0
LWPOLYLINE
  5
1ab
100
AcDbEntity
  8
0
 62
1
100
AcDbPolyline
 90
2
 70
0
 10
114.622201
 20
-26.256887
 30
0.0
 10
112.785781
 20
-39.330267
 30
0.0
  0
LWPOLYLINE
  5
1ac
100
AcDbEntity
  8
0
 62
1
100
AcDbPolyline
 90
2
 70
0
 10
101.551361
 20
-24.420467
 30
0.0
 10
114.622201
 20
-26.256887
 30
0.0
  0
LWPOLYLINE
  5
1ad
100
AcDbEntity
  8
0
 62
1
100
AcDbPolyline
 90
2
 70
0
 10
80.850360
 20
-34.839547
 30
0.0
 10
82.686780
 20
-21.768708
 30
0.0
  0
LWPOLYLINE
  5
1ae
100
AcDbEntity
  8
0
 62
1
100
AcDbPolyline
 90
2
 70
0
 10
93.921201
 20
-36.678507
 30
0.0
 10
80.850360
 20
-34.839547
 30
0.0
  0
LWPOLYLINE
  5
1af
100
AcDbEntity
  8
0
 62
1
100
AcDbPolyline
 90
2
 70
0
 10
95.757621
 20
-23.605128
 30
0.0
 10
93.921201
 20
-36.678507
 30
0.0
  0
LWPOLYLINE
  5
1b0
100
AcDbEntity
  8
0
 62
1
100
AcDbPolyline
 90
2
 70
0
 10
82.686780
 20
-21.768708
 30
0.0
 10
95.757621
 20
-23.605128
 30
0.0
  0
LWPOLYLINE
  5
1b1
100
AcDbEntity
  8
0
 62
1
100
AcDbPolyline
 90
2
 70
0
 10
61.985780
 20
-32.190327
 30
0.0
 10
63.822200
 20
-19.116948
 30
0.0
  0
LWPOLYLINE
  5
1b2
100
AcDbEntity
  8
0
 62
1
100
AcDbPolyline
 90
2
 70
0
 10
75.056620
 20
-34.026747
 30
0.0
 10
61.985780
 20
-32.190327
 30
0.0
  0
LWPOLYLINE
  5
1b3
100
AcDbEntity
  8
0
 62
1
100
AcDbPolyline
 90
2
 70
0
 10
76.893040
 20
-20.955908
 30
0.0
 10
75.056620
 20
-34.026747
 30
0.0
  0
SPLINE
  5
1b4
100
AcDbEntity
  8
0
 62
2
100
AcDbSpline
 70
8
 71
3
 72
8
 73
4
 74
0
 40
0
 40
0
 40
0
 40
0
 40
1
 40
1
 40
1
 40
1
 10
126.153042
 20
-102.936090
 30
0.0
 10
125.667687
 20
-102.936090
 30
0.0
 10
125.230123
 20
-103.228460
 30
0.0
 10
125.044386
 20
-103.676870
 30
0.0
  0
SPLINE
  5
1b5
100
AcDbEntity
  8
0
 62
2
100
AcDbSpline
 70
8
 71
3
 72
8
 73
4
 74
0
 40
0
 40
0
 40
0
 40
0
 40
1
 40
1
 40
1
 40
1
 10
125.044386
 20
-103.676870
 30
0.0
 10
124.858649
 20
-104.125279
 30
0.0
 10
124.961316
 20
-104.641420
 30
0.0
 10
125.304513
 20
-104.984618
 30
0.0
  0
SPLINE
  5
1b6
100
AcDbEntity
  8
0
 62
2
100
AcDbSpline
 70
8
 71
3
 72
8
 73
4
 74
0
 40
0
 40
0
 40
0
 40
0
 40
1
 40
1
 40
1
 40
1
 10
125.304513
 20
-104.984618
 30
0.0
 10
125.647711
 20
-105.327816
 30
0.0
 10
126.163853
 20
-105.430483
 30
0.0
 10
126.612262
 20
-105.244745
 30
0.0
  0
SPLINE
  5
1b7
100
AcDbEntity
  8
0
 62
2
100
AcDbSpline
 70
8
 71
3
 72
8
 73
4
 74
0
 40
0
 40
0
 40
0
 40
0
 40
1
 40
1
 40
1
 40
1
 10
126.612262
 20
-105.244745
 30
0.0
 10
127.060671
 20
-105.059008
 30
0.0
 10
127.353042
 20
-104.621445
 30
0.0
 10
127.353042
 20
-104.136090
 30
0.0
  0
SPLINE
  5
1b8
100
AcDbEntity
  8
0
 62
2
100
AcDbSpline
 70
8
 71
3
 72
8
 73
4
 74
0
 40
0
 40
0
 40
0
 40
0
 40
1
 40
1
 40
1
 40
1
 10
127.353042
 20
-104.136090
 30
0.0
 10
127.353042
 20
-103.817830
 30
0.0
 10
127.226614
 20
-103.512605
 30
0.0
 10
127.001570
 20
-103.287562
 30
0.0
  0
SPLINE
  5
1b9
100
AcDbEntity
  8
0
 62
2
100
AcDbSpline
 70
8
 71
3
 72
8
 73
4
 74
0
 40
0
 40
0
 40
0
 40
0
 40
1
 40
1
 40
1
 40
1
 10
127.001570
 20
-103.287562
 30
0.0
 10
126.776526
 20
-103.062518
 30
0.0
 10
126.471302
 20
-102.936090
 30
0.0
 10
126.153042
 20
-102.936090
 30
0.0
  0
LWPOLYLINE
  5
1ba
100
AcDbEntity
  8
0
 62
1
100
AcDbPolyline
 90
2
 70
0
 10
63.822200
 20
-19.116948
 30
0.0
 10
76.893040
 20
-20.955908
 30
0.0
  0
SPLINE
  5
1bb
100
AcDbEntity
  8
0
 62
2
100
AcDbSpline
 70
8
 71
3
 72
8
 73
4
 74
0
 40
0
 40
0
 40
0
 40
0
 40
1
 40
1
 40
1
 40
1
 10
153.839042
 20
-10.226056
 30
0.0
 10
153.353687
 20
-10.226056
 30
0.0
 10
152.916124
 20
-10.518427
 30
0.0
 10
152.730387
 20
-10.966836
 30
0.0
  0
SPLINE
  5
1bc
100
AcDbEntity
  8
0
 62
2
100
AcDbSpline
 70
8
 71
3
 72
8
 73
4
 74
0
 40
0
 40
0
 40
0
 40
0
 40
1
 40
1
 40
1
 40
1
 10
152.730387
 20
-10.966836
 30
0.0
 10
152.544649
 20
-11.415245
 30
0.0
 10
152.647316
 20
-11.931387
 30
0.0
 10
152.990514
 20
-12.274585
 30
0.0
  0
SPLINE
  5
1bd
100
AcDbEntity
  8
0
 62
2
100
AcDbSpline
 70
8
 71
3
 72
8
 73
4
 74
0
 40
0
 40
0
 40
0
 40
0
 40
1
 40
1
 40
1
 40
1
 10
152.990514
 20
-12.274585
 30
0.0
 10
153.333712
 20
-12.617782
 30
0.0
 10
153.849853
 20
-12.720449
 30
0.0
 10
154.298262
 20
-12.534712
 30
0.0
  0
SPLINE
  5
1be
100
AcDbEntity
  8
0
 62
2
100
AcDbSpline
 70
8
 71
3
 72
8
 73
4
 74
0
 40
0
 40
0
 40
0
 40
0
 40
1
 40
1
 40
1
 40
1
 10
154.298262
 20
-12.534712
 30
0.0
 10
154.746672
 20
-12.348975
 30
0.0
 10
155.039042
 20
-11.911411
 30
0.0
 10
155.039042
 20
-11.426056
 30
0.0
  0
SPLINE
  5
1bf
100
AcDbEntity
  8
0
 62
2
100
AcDbSpline
 70
8
 71
3
 72
8
 73
4
 74
0
 40
0
 40
0
 40
0
 40
0
 40
1
 40
1
 40
1
 40
1
 10
155.039042
 20
-11.426056
 30
0.0
 10
155.039042
 20
-11.107796
 30
0.0
 10
154.912614
 20
-10.802572
 30
0.0
 10
154.687570
 20
-10.577528
 30
0.0
  0
SPLINE
  5
1c0
100
AcDbEntity
  8
0
 62
2
100
AcDbSpline
 70
8
 71
3
 72
8
 73
4
 74
0
 40
0
 40
0
 40
0
 40
0
 40
1
 40
1
 40
1
 40
1
 10
154.687570
 20
-10.577528
 30
0.0
 10
154.462527
 20
-10.352484
 30
0.0
 10
154.157302
 20
-10.226056
 30
0.0
 10
153.839042
 20
-10.226056
 30
0.0
  0
LWPOLYLINE
  5
1c1
100
AcDbEntity
  8
0
 62
2
100
AcDbPolyline
 90
1
 70
1
 10
126.153042
 20
-102.936090
 30
0.0
  0
SPLINE
  5
1c2
100
AcDbEntity
  8
0
 62
2
100
AcDbSpline
 70
8
 71
3
 72
8
 73
4
 74
0
 40
0
 40
0
 40
0
 40
0
 40
1
 40
1
 40
1
 40
1
 10
126.153042
 20
-10.226056
 30
0.0
 10
125.667687
 20
-10.226056
 30
0.0
 10
125.230123
 20
-10.518427
 30
0.0
 10
125.044386
 20
-10.966836
 30
0.0
  0
SPLINE
  5
1c3
100
AcDbEntity
  8
0
 62
2
100
AcDbSpline
 70
8
 71
3
 72
8
 73
4
 74
0
 40
0
 40
0
 40
0
 40
0
 40
1
 40
1
 40
1
 40
1
 10
125.044386
 20
-10.966836
 30
0.0
 10
124.858649
 20
-11.415245
 30
0.0
 10
124.961316
 20
-11.931387
 30
0.0
 10
125.304513
 20
-12.274585
 30
0.0
  0
SPLINE
  5
1c4
100
AcDbEntity
  8
0
 62
2
100
AcDbSpline
 70
8
 71
3
 72
8
 73
4
 74
0
 40
0
 40
0
 40
0
 40
0
 40
1
 40
1
 40
1
 40
1
 10
125.304513
 20
-12.274585
 30
0.0
 10
125.647711
 20
-12.617782
 30
0.0
 10
126.163853
 20
-12.720449
 30
0.0
 10
126.612262
 20
-12.534712
 30
0.0
  0
SPLINE
  5
1c5
100
AcDbEntity
  8
0
 62
2
100
AcDbSpline
 70
8
 71
3
 72
8
 73
4
 74
0
 40
0
 40
0
 40
0
 40
0
 40
1
 40
1
 40
1
 40
1
 10
126.612262
 20
-12.534712
 30
0.0
 10
127.060671
 20
-12.348975
 30
0.0
 10
127.353042
 20
-11.911411
 30
0.0
 10
127.353042
 20
-11.426056
 30
0.0
  0
SPLINE
  5
1c6
100
AcDbEntity
  8
0
 62
2
100
AcDbSpline
 70
8
 71
3
 72
8
 73
4
 74
0
 40
0
 40
0
 40
0
 40
0
 40
1
 40
1
 40
1
 40
1
 10
127.353042
 20
-11.426056
 30
0.0
 10
127.353042
 20
-11.107796
 30
0.0
 10
127.226614
 20
-10.802572
 30
0.0
 10
127.001570
 20
-10.577528
 30
0.0
  0
SPLINE
  5
1c7
100
AcDbEntity
  8
0
 62
2
100
AcDbSpline
 70
8
 71
3
 72
8
 73
4
 74
0
 40
0
 40
0
 40
0
 40
0
 40
1
 40
1
 40
1
 40
1
 10
127.001570
 20
-10.577528
 30
0.0
 10
126.776526
 20
-10.352484
 30
0.0
 10
126.471302
 20
-10.226056
 30
0.0
 10
126.153042
 20
-10.226056
 30
0.0
  0
LWPOLYLINE
  5
1c8
100
AcDbEntity
  8
0
 62
2
100
AcDbPolyline
 90
1
 70
1
 10
153.839042
 20
-10.226056
 30
0.0
  0
SPLINE
  5
1c9
100
AcDbEntity
  8
0
 62
2
100
AcDbSpline
 70
8
 71
3
 72
8
 73
4
 74
0
 40
0
 40
0
 40
0
 40
0
 40
1
 40
1
 40
1
 40
1
 10
153.839042
 20
-102.936090
 30
0.0
 10
153.353687
 20
-102.936090
 30
0.0
 10
152.916124
 20
-103.228460
 30
0.0
 10
152.730387
 20
-103.676870
 30
0.0
  0
SPLINE
  5
1ca
100
AcDbEntity
  8
0
 62
2
100
AcDbSpline
 70
8
 71
3
 72
8
 73
4
 74
0
 40
0
 40
0
 40
0
 40
0
 40
1
 40
1
 40
1
 40
1
 10
152.730387
 20
-103.676870
 30
0.0
 10
152.544649
 20
-104.125279
 30
0.0
 10
152.647316
 20
-104.641420
 30
0.0
 10
152.990514
 20
-104.984618
 30
0.0
  0
SPLINE
  5
1cb
100
AcDbEntity
  8
0
 62
2
100
AcDbSpline
 70
8
 71
3
 72
8
 73
4
 74
0
 40
0
 40
0
 40
0
 40
0
 40
1
 40
1
 40
1
 40
1
 10
152.990514
 20
-104.984618
 30
0.0
 10
153.333712
 20
-105.327816
 30
0.0
 10
153.849853
 20
-105.430483
 30
0.0
 10
154.298262
 20
-105.244745
 30
0.0
  0
SPLINE
  5
1cc
100
AcDbEntity
  8
0
 62
2
100
AcDbSpline
 70
8
 71
3
 72
8
 73
4
 74
0
 40
0
 40
0
 40
0
 40
0
 40
1
 40
1
 40
1
 40
1
 10
154.298262
 20
-105.244745
 30
0.0
 10
154.746672
 20
-105.059008
 30
0.0
 10
155.039042
 20
-104.621445
 30
0.0
 10
155.039042
 20
-104.136090
 30
0.0
  0
SPLINE
  5
1cd
100
AcDbEntity
  8
0
 62
2
100
AcDbSpline
 70
8
 71
3
 72
8
 73
4
 74
0
 40
0
 40
0
 40
0
 40
0
 40
1
 40
1
 40
1
 40
1
 10
155.039042
 20
-104.136090
 30
0.0
 10
155.039042
 20
-103.817830
 30
0.0
 10
154.912614
 20
-103.512605
 30
0.0
 10
154.687570
 20
-103.287562
 30
0.0
  0
SPLINE
  5
1ce
100
AcDbEntity
  8
0
 62
2
100
AcDbSpline
 70
8
 71
3
 72
8
 73
4
 74
0
 40
0
 40
0
 40
0
 40
0
 40
1
 40
1
 40
1
 40
1
 10
154.687570
 20
-103.287562
 30
0.0
 10
154.462527
 20
-103.062518
 30
0.0
 10
154.157302
 20
-102.936090
 30
0.0
 10
153.839042
 20
-102.936090
 30
0.0
  0
LWPOLYLINE
  5
1cf
100
AcDbEntity
  8
0
 62
2
100
AcDbPolyline
 90
1
 70
1
 10
126.153042
 20
-10.226056
 30
0.0
  0
SPLINE
  5
1d0
100
AcDbEntity
  8
0
 62
2
100
AcDbSpline
 70
8
 71
3
 72
8
 73
4
 74
0
 40
0
 40
0
 40
0
 40
0
 40
1
 40
1
 40
1
 40
1
 10
13.631140
 20
-90.490079
 30
0.0
 10
13.145785
 20
-90.490079
 30
0.0
 10
12.708221
 20
-90.782450
 30
0.0
 10
12.522484
 20
-91.230859
 30
0.0
  0
SPLINE
  5
1d1
100
AcDbEntity
  8
0
 62
2
100
AcDbSpline
 70
8
 71
3
 72
8
 73
4
 74
0
 40
0
 40
0
 40
0
 40
0
 40
1
 40
1
 40
1
 40
1
 10
12.522484
 20
-91.230859
 30
0.0
 10
12.336747
 20
-91.679269
 30
0.0
 10
12.439414
 20
-92.195410
 30
0.0
 10
12.782611
 20
-92.538608
 30
0.0
  0
SPLINE
  5
1d2
100
AcDbEntity
  8
0
 62
2
100
AcDbSpline
 70
8
 71
3
 72
8
 73
4
 74
0
 40
0
 40
0
 40
0
 40
0
 40
1
 40
1
 40
1
 40
1
 10
12.782611
 20
-92.538608
 30
0.0
 10
13.125809
 20
-92.881805
 30
0.0
 10
13.641950
 20
-92.984472
 30
0.0
 10
14.090360
 20
-92.798735
 30
0.0
  0
SPLINE
  5
1d3
100
AcDbEntity
  8
0
 62
2
100
AcDbSpline
 70
8
 71
3
 72
8
 73
4
 74
0
 40
0
 40
0
 40
0
 40
0
 40
1
 40
1
 40
1
 40
1
 10
14.090360
 20
-92.798735
 30
0.0
 10
14.538769
 20
-92.612998
 30
0.0
 10
14.831140
 20
-92.175434
 30
0.0
 10
14.831140
 20
-91.690079
 30
0.0
  0
SPLINE
  5
1d4
100
AcDbEntity
  8
0
 62
2
100
AcDbSpline
 70
8
 71
3
 72
8
 73
4
 74
0
 40
0
 40
0
 40
0
 40
0
 40
1
 40
1
 40
1
 40
1
 10
14.831140
 20
-91.690079
 30
0.0
 10
14.831140
 20
-91.371820
 30
0.0
 10
14.704712
 20
-91.066595
 30
0.0
 10
14.479668
 20
-90.841551
 30
0.0
  0
SPLINE
  5
1d5
100
AcDbEntity
  8
0
 62
2
100
AcDbSpline
 70
8
 71
3
 72
8
 73
4
 74
0
 40
0
 40
0
 40
0
 40
0
 40
1
 40
1
 40
1
 40
1
 10
14.479668
 20
-90.841551
 30
0.0
 10
14.254624
 20
-90.616508
 30
0.0
 10
13.949399
 20
-90.490079
 30
0.0
 10
13.631140
 20
-90.490079
 30
0.0
  0
LWPOLYLINE
  5
1d6
100
AcDbEntity
  8
0
 62
2
100
AcDbPolyline
 90
1
 70
1
 10
153.839042
 20
-102.936090
 30
0.0
  0
SPLINE
  5
1d7
100
AcDbEntity
  8
0
 62
2
100
AcDbSpline
 70
8
 71
3
 72
8
 73
4
 74
0
 40
0
 40
0
 40
0
 40
0
 40
1
 40
1
 40
1
 40
1
 10
266.488804
 20
-90.490079
 30
0.0
 10
266.003449
 20
-90.490079
 30
0.0
 10
265.565885
 20
-90.782450
 30
0.0
 10
265.380148
 20
-91.230859
 30
0.0
  0
SPLINE
  5
1d8
100
AcDbEntity
  8
0
 62
2
100
AcDbSpline
 70
8
 71
3
 72
8
 73
4
 74
0
 40
0
 40
0
 40
0
 40
0
 40
1
 40
1
 40
1
 40
1
 10
265.380148
 20
-91.230859
 30
0.0
 10
265.194411
 20
-91.679269
 30
0.0
 10
265.297078
 20
-92.195410
 30
0.0
 10
265.640275
 20
-92.538608
 30
0.0
  0
SPLINE
  5
1d9
100
AcDbEntity
  8
0
 62
2
100
AcDbSpline
 70
8
 71
3
 72
8
 73
4
 74
0
 40
0
 40
0
 40
0
 40
0
 40
1
 40
1
 40
1
 40
1
 10
265.640275
 20
-92.538608
 30
0.0
 10
265.983473
 20
-92.881805
 30
0.0
 10
266.499614
 20
-92.984472
 30
0.0
 10
266.948024
 20
-92.798735
 30
0.0
  0
SPLINE
  5
1da
100
AcDbEntity
  8
0
 62
2
100
AcDbSpline
 70
8
 71
3
 72
8
 73
4
 74
0
 40
0
 40
0
 40
0
 40
0
 40
1
 40
1
 40
1
 40
1
 10
266.948024
 20
-92.798735
 30
0.0
 10
267.396433
 20
-92.612998
 30
0.0
 10
267.688804
 20
-92.175434
 30
0.0
 10
267.688804
 20
-91.690079
 30
0.0
  0
SPLINE
  5
1db
100
AcDbEntity
  8
0
 62
2
100
AcDbSpline
 70
8
 71
3
 72
8
 73
4
 74
0
 40
0
 40
0
 40
0
 40
0
 40
1
 40
1
 40
1
 40
1
 10
267.688804
 20
-91.690079
 30
0.0
 10
267.688804
 20
-91.371820
 30
0.0
 10
267.562375
 20
-91.066595
 30
0.0
 10
267.337332
 20
-90.841551
 30
0.0
  0
SPLINE
  5
1dc
100
AcDbEntity
  8
0
 62
2
100
AcDbSpline
 70
8
 71
3
 72
8
 73
4
 74
0
 40
0
 40
0
 40
0
 40
0
 40
1
 40
1
 40
1
 40
1
 10
267.337332
 20
-90.841551
 30
0.0
 10
267.112288
 20
-90.616508
 30
0.0
 10
266.807063
 20
-90.490079
 30
0.0
 10
266.488804
 20
-90.490079
 30
0.0
  0
LWPOLYLINE
  5
1dd
100
AcDbEntity
  8
0
 62
2
100
AcDbPolyline
 90
1
 70
1
 10
13.631140
 20
-90.490079
 30
0.0
  0
SPLINE
  5
1de
100
AcDbEntity
  8
0
 62
2
100
AcDbSpline
 70
8
 71
3
 72
8
 73
4
 74
0
 40
0
 40
0
 40
0
 40
0
 40
1
 40
1
 40
1
 40
1
 10
266.488804
 20
-11.242056
 30
0.0
 10
266.003449
 20
-11.242056
 30
0.0
 10
265.565885
 20
-11.534427
 30
0.0
 10
265.380148
 20
-11.982836
 30
0.0
  0
SPLINE
  5
1df
100
AcDbEntity
  8
0
 62
2
100
AcDbSpline
 70
8
 71
3
 72
8
 73
4
 74
0
 40
0
 40
0
 40
0
 40
0
 40
1
 40
1
 40
1
 40
1
 10
265.380148
 20
-11.982836
 30
0.0
 10
265.194411
 20
-12.431245
 30
0.0
 10
265.297078
 20
-12.947387
 30
0.0
 10
265.640275
 20
-13.290585
 30
0.0
  0
SPLINE
  5
1e0
100
AcDbEntity
  8
0
 62
2
100
AcDbSpline
 70
8
 71
3
 72
8
 73
4
 74
0
 40
0
 40
0
 40
0
 40
0
 40
1
 40
1
 40
1
 40
1
 10
265.640275
 20
-13.290585
 30
0.0
 10
265.983473
 20
-13.633782
 30
0.0
 10
266.499614
 20
-13.736449
 30
0.0
 10
266.948024
 20
-13.550712
 30
0.0
  0
SPLINE
  5
1e1
100
AcDbEntity
  8
0
 62
2
100
AcDbSpline
 70
8
 71
3
 72
8
 73
4
 74
0
 40
0
 40
0
 40
0
 40
0
 40
1
 40
1
 40
1
 40
1
 10
266.948024
 20
-13.550712
 30
0.0
 10
267.396433
 20
-13.364975
 30
0.0
 10
267.688804
 20
-12.927411
 30
0.0
 10
267.688804
 20
-12.442056
 30
0.0
  0
SPLINE
  5
1e2
100
AcDbEntity
  8
0
 62
2
100
AcDbSpline
 70
8
 71
3
 72
8
 73
4
 74
0
 40
0
 40
0
 40
0
 40
0
 40
1
 40
1
 40
1
 40
1
 10
267.688804
 20
-12.442056
 30
0.0
 10
267.688804
 20
-12.123796
 30
0.0
 10
267.562375
 20
-11.818572
 30
0.0
 10
267.337332
 20
-11.593528
 30
0.0
  0
SPLINE
  5
1e3
100
AcDbEntity
  8
0
 62
2
100
AcDbSpline
 70
8
 71
3
 72
8
 73
4
 74
0
 40
0
 40
0
 40
0
 40
0
 40
1
 40
1
 40
1
 40
1
 10
267.337332
 20
-11.593528
 30
0.0
 10
267.112288
 20
-11.368484
 30
0.0
 10
266.807063
 20
-11.242056
 30
0.0
 10
266.488804
 20
-11.242056
 30
0.0
  0
LWPOLYLINE
  5
1e4
100
AcDbEntity
  8
0
 62
2
100
AcDbPolyline
 90
1
 70
1
 10
266.488804
 20
-90.490079
 30
0.0
  0
SPLINE
  5
1e5
100
AcDbEntity
  8
0
 62
2
100
AcDbSpline
 70
8
 71
3
 72
8
 73
4
 74
0
 40
0
 40
0
 40
0
 40
0
 40
1
 40
1
 40
1
 40
1
 10
13.631140
 20
-11.242056
 30
0.0
 10
13.145785
 20
-11.242056
 30
0.0
 10
12.708221
 20
-11.534427
 30
0.0
 10
12.522484
 20
-11.982836
 30
0.0
  0
SPLINE
  5
1e6
100
AcDbEntity
  8
0
 62
2
100
AcDbSpline
 70
8
 71
3
 72
8
 73
4
 74
0
 40
0
 40
0
 40
0
 40
0
 40
1
 40
1
 40
1
 40
1
 10
12.522484
 20
-11.982836
 30
0.0
 10
12.336747
 20
-12.431245
 30
0.0
 10
12.439414
 20
-12.947387
 30
0.0
 10
12.782611
 20
-13.290585
 30
0.0
  0
SPLINE
  5
1e7
100
AcDbEntity
  8
0
 62
2
100
AcDbSpline
 70
8
 71
3
 72
8
 73
4
 74
0
 40
0
 40
0
 40
0
 40
0
 40
1
 40
1
 40
1
 40
1
 10
12.782611
 20
-13.290585
 30
0.0
 10
13.125809
 20
-13.633782
 30
0.0
 10
13.641950
 20
-13.736449
 30
0.0
 10
14.090360
 20
-13.550712
 30
0.0
  0
SPLINE
  5
1e8
100
AcDbEntity
  8
0
 62
2
100
AcDbSpline
 70
8
 71
3
 72
8
 73
4
 74
0
 40
0
 40
0
 40
0
 40
0
 40
1
 40
1
 40
1
 40
1
 10
14.090360
 20
-13.550712
 30
0.0
 10
14.538769
 20
-13.364975
 30
0.0
 10
14.831140
 20
-12.927411
 30
0.0
 10
14.831140
 20
-12.442056
 30
0.0
  0
SPLINE
  5
1e9
100
AcDbEntity
  8
0
 62
2
100
AcDbSpline
 70
8
 71
3
 72
8
 73
4
 74
0
 40
0
 40
0
 40
0
 40
0
 40
1
 40
1
 40
1
 40
1
 10
14.831140
 20
-12.442056
 30
0.0
 10
14.831140
 20
-12.123796
 30
0.0
 10
14.704712
 20
-11.818572
 30
0.0
 10
14.479668
 20
-11.593528
 30
0.0
  0
SPLINE
  5
1ea
100
AcDbEntity
  8
0
 62
2
100
AcDbSpline
 70
8
 71
3
 72
8
 73
4
 74
0
 40
0
 40
0
 40
0
 40
0
 40
1
 40
1
 40
1
 40
1
 10
14.479668
 20
-11.593528
 30
0.0
 10
14.254624
 20
-11.368484
 30
0.0
 10
13.949399
 20
-11.242056
 30
0.0
 10
13.631140
 20
-11.242056
 30
0.0
  0
LWPOLYLINE
  5
1eb
100
AcDbEntity
  8
0
 62
2
100
AcDbPolyline
 90
1
 70
1
 10
266.488804
 20
-11.242056
 30
0.0
  0
SPLINE
  5
1ec
100
AcDbEntity
  8
0
 62
2
100
AcDbSpline
 70
8
 71
3
 72
8
 73
4
 74
0
 40
0
 40
0
 40
0
 40
0
 40
1
 40
1
 40
1
 40
1
 10
10.027141
 20
-88.515082
 30
0.0
 10
10.027141
 20
-90.279037
 30
0.0
 10
10.727871
 20
-91.970745
 30
0.0
 10
11.975177
 20
-93.218049
 30
0.0
  0
SPLINE
  5
1ed
100
AcDbEntity
  8
0
 62
2
100
AcDbSpline
 70
8
 71
3
 72
8
 73
4
 74
0
 40
0
 40
0
 40
0
 40
0
 40
1
 40
1
 40
1
 40
1
 10
11.975177
 20
-93.218049
 30
0.0
 10
13.222484
 20
-94.465352
 30
0.0
 10
14.914194
 20
-95.166077
 30
0.0
 10
16.678149
 20
-95.166072
 30
0.0
  0
SPLINE
  5
1ee
100
AcDbEntity
  8
0
 62
2
100
AcDbSpline
 70
8
 71
3
 72
8
 73
4
 74
0
 40
0
 40
0
 40
0
 40
0
 40
1
 40
1
 40
1
 40
1
 10
16.678149
 20
-8.893048
 30
0.0
 10
14.914191
 20
-8.893044
 30
0.0
 10
13.222478
 20
-9.593771
 30
0.0
 10
11.975171
 20
-10.841078
 30
0.0
  0
SPLINE
  5
1ef
100
AcDbEntity
  8
0
 62
2
100
AcDbSpline
 70
8
 71
3
 72
8
 73
4
 74
0
 40
0
 40
0
 40
0
 40
0
 40
1
 40
1
 40
1
 40
1
 10
11.975171
 20
-10.841078
 30
0.0
 10
10.727864
 20
-12.088385
 30
0.0
 10
10.027136
 20
-13.780098
 30
0.0
 10
10.027141
 20
-15.544056
 30
0.0
  0
SPLINE
  5
1f0
100
AcDbEntity
  8
0
 62
2
100
AcDbSpline
 70
8
 71
3
 72
8
 73
4
 74
0
 40
0
 40
0
 40
0
 40
0
 40
1
 40
1
 40
1
 40
1
 10
269.963524
 20
-15.544056
 30
0.0
 10
269.963534
 20
-11.871007
 30
0.0
 10
266.986091
 20
-8.893329
 30
0.0
 10
263.313041
 20
-8.893048
 30
0.0
  0
SPLINE
  5
1f1
100
AcDbEntity
  8
0
 62
2
100
AcDbSpline
 70
8
 71
3
 72
8
 73
4
 74
0
 40
0
 40
0
 40
0
 40
0
 40
1
 40
1
 40
1
 40
1
 10
263.313041
 20
-95.166072
 30
0.0
 10
266.986083
 20
-95.165792
 30
0.0
 10
269.963524
 20
-92.188124
 30
0.0
 10
269.963524
 20
-88.515082
 30
0.0
  0
LWPOLYLINE
  5
1f2
100
AcDbEntity
  8
0
 62
2
100
AcDbPolyline
 90
1
 70
1
 10
13.631140
 20
-11.242056
 30
0.0
  0
LWPOLYLINE
  5
1f3
100
AcDbEntity
  8
0
 62
2
100
AcDbPolyline
 90
2
 70
0
 10
263.311263
 20
-8.890907
 30
0.0
 10
16.677260
 20
-8.890907
 30
0.0
  0
LWPOLYLINE
  5
1f4
100
AcDbEntity
  8
0
 62
2
100
AcDbPolyline
 90
2
 70
0
 10
269.963524
 20
-88.514828
 30
0.0
 10
269.963524
 20
-15.543167
 30
0.0
  0
LWPOLYLINE
  5
1f5
100
AcDbEntity
  8
0
 62
2
100
AcDbPolyline
 90
2
 70
0
 10
263.311263
 20
-95.164548
 30
0.0
 10
237.657263
 20
-95.164548
 30
0.0
  0
LWPOLYLINE
  5
1f6
100
AcDbEntity
  8
0
 62
2
100
AcDbPolyline
 90
2
 70
0
 10
153.837262
 20
-106.975548
 30
0.0
 10
237.657263
 20
-95.164548
 30
0.0
  0
LWPOLYLINE
  5
1f7
100
AcDbEntity
  8
0
 62
2
100
AcDbPolyline
 90
2
 70
0
 10
126.278261
 20
-106.975548
 30
0.0
 10
153.837262
 20
-106.975548
 30
0.0
  0
LWPOLYLINE
  5
1f8
100
AcDbEntity
  8
0
 62
2
100
AcDbPolyline
 90
2
 70
0
 10
126.278261
 20
-106.975548
 30
0.0
 10
42.458260
 20
-95.164548
 30
0.0
  0
LWPOLYLINE
  5
1f9
100
AcDbEntity
  8
0
 62
2
100
AcDbPolyline
 90
2
 70
0
 10
16.677260
 20
-95.164548
 30
0.0
 10
42.458260
 20
-95.164548
 30
0.0
  0
LWPOLYLINE
  5
1fa
100
AcDbEntity
  8
0
 62
2
100
AcDbPolyline
 90
2
 70
0
 10
10.025000
 20
-15.543167
 30
0.0
 10
10.025000
 20
-88.514828
 30
0.0
  0
ENDSEC
  0
SECTION
  2
OBJECTS
  0
DICTIONARY
  5
C
330
0
100
AcDbDictionary
  3
ACAD_GROUP
350
D
  3
ACAD_MLINESTYLE
350
17
  0
DICTIONARY
  5
D
330
C
100
AcDbDictionary
  0
DICTIONARY
  5
1A
330
C
100
AcDbDictionary
  0
DICTIONARY
  5
17
330
C
100
AcDbDictionary
  3
STANDARD
350
18
  0
DICTIONARY
  5
19
330
C
100
AcDbDictionary
  0
ENDSEC
  0
EOF
