  0
SECTION
  2
HEADER
  9
$ACADVER
  1
AC1014
  9
$HANDSEED
  5
FFFF
  9
$MEASUREMENT
 70
     1
  0
ENDSEC
  0
SECTION
  2
TABLES
  0
TABLE
  2
VPORT
  5
8
330
0
100
AcDbSymbolTable
 70
     4
  0
VPORT
  5
2E
330
8
100
AcDbSymbolTableRecord
100
AcDbViewportTableRecord
  2
*ACTIVE
 70
     0
 10
0.0
 20
0.0
 11
1.0
 21
1.0
 12
210.0
 22
148.5
 13
0.0
 23
0.0
 14
10.0
 24
10.0
 15
10.0
 25
10.0
 16
0.0
 26
0.0
 36
1.0
 17
0.0
 27
0.0
 37
0.0
 40
341.0
 41
1.24
 42
50.0
 43
0.0
 44
0.0
 50
0.0
 51
0.0
 71
     0
 72
   100
 73
     1
 74
     3
 75
     0
 76
     0
 77
     0
 78
     0
  0
ENDTAB
  0
TABLE
  2
LTYPE
  5
5
330
0
100
AcDbSymbolTable
 70
     1
  0
LTYPE
  5
14
330
5
100
AcDbSymbolTableRecord
100
AcDbLinetypeTableRecord
  2
BYBLOCK
 70
     0
  3

 72
    65
 73
     0
 40
0.0
  0
LTYPE
  5
15
330
5
100
AcDbSymbolTableRecord
100
AcDbLinetypeTableRecord
  2
BYLAYER
 70
     0
  3

 72
    65
 73
     0
 40
0.0
  0
LTYPE
  5
16
330
5
100
AcDbSymbolTableRecord
100
AcDbLinetypeTableRecord
  2
CONTINUOUS
 70
     0
  3
Solid line
 72
    65
 73
     0
 40
0.0
  0
ENDTAB
  0
TABLE
  2
LAYER
  5
2
100
AcDbSymbolTable
 70
1
  0
LAYER
  5
50
100
AcDbSymbolTableRecord
100
AcDbLayerTableRecord
  2
0
 70
0
  6
CONTINUOUS
  0
ENDTAB
  0
TABLE
  2
STYLE
  5
3
330
0
100
AcDbSymbolTable
 70
     1
  0
STYLE
  5
11
330
3
100
AcDbSymbolTableRecord
100
AcDbTextStyleTableRecord
  2
STANDARD
 70
     0
 40
0.0
 41
1.0
 50
0.0
 71
     0
 42
2.5
  3
txt
  4

  0
ENDTAB
  0
TABLE
  2
VIEW
  5
6
330
0
100
AcDbSymbolTable
 70
     0
  0
ENDTAB
  0
TABLE
  2
UCS
  5
7
330
0
100
AcDbSymbolTable
 70
     0
  0
ENDTAB
  0
TABLE
  2
APPID
  5
9
330
0
100
AcDbSymbolTable
 70
     2
  0
APPID
  5
12
330
9
100
AcDbSymbolTableRecord
100
AcDbRegAppTableRecord
  2
ACAD
 70
     0
  0
ENDTAB
  0
TABLE
  2
DIMSTYLE
  5
A
330
0
100
AcDbSymbolTable
 70
     1
  0
DIMSTYLE
105
27
330
A
100
AcDbSymbolTableRecord
100
AcDbDimStyleTableRecord
  2
ISO-25
 70
     0
  3

  4

  5

  6

  7

 40
1.0
 41
2.5
 42
0.625
 43
3.75
 44
1.25
 45
0.0
 46
0.0
 47
0.0
 48
0.0
140
2.5
141
2.5
142
0.0
143
0.03937007874016
144
1.0
145
0.0
146
1.0
147
0.625
 71
     0
 72
     0
 73
     0
 74
     0
 75
     0
 76
     0
 77
     1
 78
     8
170
     0
171
     3
172
     1
173
     0
174
     0
175
     0
176
     0
177
     0
178
     0
270
     2
271
     2
272
     2
273
     2
274
     3
340
11
275
     0
280
     0
281
     0
282
     0
283
     0
284
     8
285
     0
286
     0
287
     3
288
     0
  0
ENDTAB
  0
TABLE
  2
BLOCK_RECORD
  5
1
330
0
100
AcDbSymbolTable
 70
     1
  0
BLOCK_RECORD
  5
1F
330
1
100
AcDbSymbolTableRecord
100
AcDbBlockTableRecord
  2
*MODEL_SPACE
  0
BLOCK_RECORD
  5
1B
330
1
100
AcDbSymbolTableRecord
100
AcDbBlockTableRecord
  2
*PAPER_SPACE
  0
ENDTAB
  0
ENDSEC
  0
SECTION
  2
BLOCKS
  0
BLOCK
  5
20
330
1F
100
AcDbEntity
  8
0
100
AcDbBlockBegin
  2
*MODEL_SPACE
 70
     0
 10
0.0
 20
0.0
 30
0.0
  3
*MODEL_SPACE
  1

  0
ENDBLK
  5
21
330
1F
100
AcDbEntity
  8
0
100
AcDbBlockEnd
  0
BLOCK
  5
1C
330
1B
100
AcDbEntity
 67
     1
  8
0
100
AcDbBlockBegin
  2
*PAPER_SPACE
  1

  0
ENDBLK
  5
1D
330
1B
100
AcDbEntity
 67
     1
  8
0
100
AcDbBlockEnd
  0
ENDSEC
  0
SECTION
  2
ENTITIES
  0
LWPOLYLINE
  5
100
100
AcDbEntity
  8
0
 62
7
100
AcDbPolyline
 90
4
 70
1
 10
205.644335
 20
-72.292584
 30
0.0
 10
219.479712
 20
-70.346945
 30
0.0
 10
221.422812
 20
-84.182322
 30
0.0
 10
207.589974
 20
-86.125422
 30
0.0
  0
LWPOLYLINE
  5
101
100
AcDbEntity
  8
0
 62
7
100
AcDbPolyline
 90
4
 70
1
 10
50.539261
 20
-70.372345
 30
0.0
 10
64.372098
 20
-72.317984
 30
0.0
 10
62.428999
 20
-86.150822
 30
0.0
 10
48.593621
 20
-84.207722
 30
0.0
  0
LWPOLYLINE
  5
102
100
AcDbEntity
  8
0
 62
7
100
AcDbPolyline
 90
4
 70
1
 10
141.095326
 20
-23.651593
 30
0.0
 10
154.930703
 20
-21.705953
 30
0.0
 10
156.873803
 20
-35.541331
 30
0.0
 10
143.040965
 20
-37.484430
 30
0.0
  0
LWPOLYLINE
  5
103
100
AcDbEntity
  8
0
 62
7
100
AcDbPolyline
 90
4
 70
1
 10
12.662787
 20
-68.718805
 30
0.0
 10
26.632785
 20
-68.718805
 30
0.0
 10
26.632785
 20
-82.688803
 30
0.0
 10
12.662787
 20
-82.688803
 30
0.0
  0
LWPOLYLINE
  5
104
100
AcDbEntity
  8
0
 62
7
100
AcDbPolyline
 90
4
 70
1
 10
12.662787
 20
-11.568815
 30
0.0
 10
26.632785
 20
-11.568815
 30
0.0
 10
26.632785
 20
-25.538812
 30
0.0
 10
12.662787
 20
-25.538812
 30
0.0
  0
LWPOLYLINE
  5
105
100
AcDbEntity
  8
0
 62
7
100
AcDbPolyline
 90
2
 70
0
 10
34.666803
 20
-25.863932
 30
0.0
 10
35.642163
 20
-11.926954
 30
0.0
  0
LWPOLYLINE
  5
106
100
AcDbEntity
  8
0
 62
7
100
AcDbPolyline
 90
2
 70
0
 10
48.603781
 20
-26.839292
 30
0.0
 10
34.666803
 20
-25.863932
 30
0.0
  0
LWPOLYLINE
  5
107
100
AcDbEntity
  8
0
 62
7
100
AcDbPolyline
 90
2
 70
0
 10
49.579141
 20
-12.902314
 30
0.0
 10
48.603781
 20
-26.839292
 30
0.0
  0
LWPOLYLINE
  5
108
100
AcDbEntity
  8
0
 62
7
100
AcDbPolyline
 90
2
 70
0
 10
35.642163
 20
-11.926954
 30
0.0
 10
49.579141
 20
-12.902314
 30
0.0
  0
LWPOLYLINE
  5
109
100
AcDbEntity
  8
0
 62
7
100
AcDbPolyline
 90
4
 70
1
 10
12.662787
 20
-30.618811
 30
0.0
 10
26.632785
 20
-30.618811
 30
0.0
 10
26.632785
 20
-44.588809
 30
0.0
 10
12.662787
 20
-44.588809
 30
0.0
  0
LWPOLYLINE
  5
10a
100
AcDbEntity
  8
0
 62
7
100
AcDbPolyline
 90
4
 70
1
 10
243.452228
 20
-68.718805
 30
0.0
 10
257.422226
 20
-68.718805
 30
0.0
 10
257.422226
 20
-82.688803
 30
0.0
 10
243.452228
 20
-82.688803
 30
0.0
  0
LWPOLYLINE
  5
10b
100
AcDbEntity
  8
0
 62
7
100
AcDbPolyline
 90
4
 70
1
 10
186.779758
 20
-74.941804
 30
0.0
 10
200.612596
 20
-72.998704
 30
0.0
 10
202.555695
 20
-86.831542
 30
0.0
 10
188.722858
 20
-88.777182
 30
0.0
  0
LWPOLYLINE
  5
10c
100
AcDbEntity
  8
0
 62
7
100
AcDbPolyline
 90
4
 70
1
 10
167.915181
 20
-77.593564
 30
0.0
 10
181.748019
 20
-75.650464
 30
0.0
 10
183.691118
 20
-89.483302
 30
0.0
 10
169.858281
 20
-91.428941
 30
0.0
  0
LWPOLYLINE
  5
10d
100
AcDbEntity
  8
0
 62
7
100
AcDbPolyline
 90
4
 70
1
 10
149.050604
 20
-80.245323
 30
0.0
 10
162.883442
 20
-78.299683
 30
0.0
 10
164.826542
 20
-92.135061
 30
0.0
 10
150.993704
 20
-94.078161
 30
0.0
  0
LWPOLYLINE
  5
10e
100
AcDbEntity
  8
0
 62
7
100
AcDbPolyline
 90
4
 70
1
 10
107.158391
 20
-78.332703
 30
0.0
 10
120.993769
 20
-80.278343
 30
0.0
 10
119.048129
 20
-94.111181
 30
0.0
 10
105.215291
 20
-92.168081
 30
0.0
  0
LWPOLYLINE
  5
10f
100
AcDbEntity
  8
0
 62
7
100
AcDbPolyline
 90
4
 70
1
 10
88.268414
 20
-75.675864
 30
0.0
 10
102.103792
 20
-77.618964
 30
0.0
 10
100.158152
 20
-91.454341
 30
0.0
 10
86.325315
 20
-89.508702
 30
0.0
  0
LWPOLYLINE
  5
110
100
AcDbEntity
  8
0
 62
7
100
AcDbPolyline
 90
4
 70
1
 10
69.403837
 20
-73.024104
 30
0.0
 10
83.239215
 20
-74.967204
 30
0.0
 10
81.293575
 20
-88.802582
 30
0.0
 10
67.460738
 20
-86.859482
 30
0.0
  0
LWPOLYLINE
  5
111
100
AcDbEntity
  8
0
 62
7
100
AcDbPolyline
 90
4
 70
1
 10
243.421748
 20
-49.668808
 30
0.0
 10
257.391746
 20
-49.668808
 30
0.0
 10
257.391746
 20
-63.638806
 30
0.0
 10
243.421748
 20
-63.638806
 30
0.0
  0
LWPOLYLINE
  5
112
100
AcDbEntity
  8
0
 62
7
100
AcDbPolyline
 90
4
 70
1
 10
223.157632
 20
-50.824508
 30
0.0
 10
237.094610
 20
-49.849148
 30
0.0
 10
238.067429
 20
-63.786126
 30
0.0
 10
224.132992
 20
-64.761486
 30
0.0
  0
LWPOLYLINE
  5
113
100
AcDbEntity
  8
0
 62
7
100
AcDbPolyline
 90
4
 70
1
 10
202.992575
 20
-53.425468
 30
0.0
 10
216.825413
 20
-51.482368
 30
0.0
 10
218.771053
 20
-65.315206
 30
0.0
 10
204.935675
 20
-67.260845
 30
0.0
  0
LWPOLYLINE
  5
114
100
AcDbEntity
  8
0
 62
7
100
AcDbPolyline
 90
4
 70
1
 10
184.140698
 20
-56.082307
 30
0.0
 10
197.973536
 20
-54.139207
 30
0.0
 10
199.919176
 20
-67.972045
 30
0.0
 10
186.083798
 20
-69.915145
 30
0.0
  0
LWPOLYLINE
  5
115
100
AcDbEntity
  8
0
 62
7
100
AcDbPolyline
 90
4
 70
1
 10
165.263421
 20
-58.728987
 30
0.0
 10
179.096259
 20
-56.785887
 30
0.0
 10
181.041899
 20
-70.618725
 30
0.0
 10
167.206521
 20
-72.564364
 30
0.0
  0
LWPOLYLINE
  5
116
100
AcDbEntity
  8
0
 62
7
100
AcDbPolyline
 90
4
 70
1
 10
146.398845
 20
-61.380746
 30
0.0
 10
160.231682
 20
-59.435107
 30
0.0
 10
162.177322
 20
-73.270484
 30
0.0
 10
148.341944
 20
-75.213584
 30
0.0
  0
LWPOLYLINE
  5
117
100
AcDbEntity
  8
0
 62
7
100
AcDbPolyline
 90
4
 70
1
 10
109.784751
 20
-59.463047
 30
0.0
 10
123.620128
 20
-61.406146
 30
0.0
 10
121.674489
 20
-75.241524
 30
0.0
 10
107.841651
 20
-73.295884
 30
0.0
  0
LWPOLYLINE
  5
118
100
AcDbEntity
  8
0
 62
7
100
AcDbPolyline
 90
4
 70
1
 10
90.920174
 20
-56.811287
 30
0.0
 10
104.755552
 20
-58.754387
 30
0.0
 10
102.809912
 20
-72.589764
 30
0.0
 10
88.977074
 20
-70.644125
 30
0.0
  0
LWPOLYLINE
  5
119
100
AcDbEntity
  8
0
 62
7
100
AcDbPolyline
 90
4
 70
1
 10
72.055597
 20
-54.159527
 30
0.0
 10
85.890975
 20
-56.102627
 30
0.0
 10
83.945335
 20
-69.938005
 30
0.0
 10
70.112497
 20
-67.992365
 30
0.0
  0
LWPOLYLINE
  5
11a
100
AcDbEntity
  8
0
 62
7
100
AcDbPolyline
 90
4
 70
1
 10
53.191020
 20
-51.507768
 30
0.0
 10
67.026398
 20
-53.453408
 30
0.0
 10
65.080758
 20
-67.286245
 30
0.0
 10
51.247920
 20
-65.343146
 30
0.0
  0
LWPOLYLINE
  5
11b
100
AcDbEntity
  8
0
 62
7
100
AcDbPolyline
 90
4
 70
1
 10
32.985324
 20
-49.935508
 30
0.0
 10
46.919761
 20
-50.910868
 30
0.0
 10
45.946941
 20
-64.845306
 30
0.0
 10
32.009964
 20
-63.869946
 30
0.0
  0
LWPOLYLINE
  5
11c
100
AcDbEntity
  8
0
 62
7
100
AcDbPolyline
 90
4
 70
1
 10
12.662787
 20
-49.668808
 30
0.0
 10
26.632785
 20
-49.668808
 30
0.0
 10
26.632785
 20
-63.638806
 30
0.0
 10
12.662787
 20
-63.638806
 30
0.0
  0
LWPOLYLINE
  5
11d
100
AcDbEntity
  8
0
 62
7
100
AcDbPolyline
 90
4
 70
1
 10
243.421748
 20
-30.618811
 30
0.0
 10
257.391746
 20
-30.618811
 30
0.0
 10
257.391746
 20
-44.588809
 30
0.0
 10
243.421748
 20
-44.588809
 30
0.0
  0
LWPOLYLINE
  5
11e
100
AcDbEntity
  8
0
 62
7
100
AcDbPolyline
 90
4
 70
1
 10
221.829212
 20
-31.820231
 30
0.0
 10
235.763650
 20
-30.847411
 30
0.0
 10
236.739010
 20
-44.781849
 30
0.0
 10
222.802032
 20
-45.757209
 30
0.0
  0
LWPOLYLINE
  5
11f
100
AcDbEntity
  8
0
 62
7
100
AcDbPolyline
 90
4
 70
1
 10
200.340816
 20
-34.560891
 30
0.0
 10
214.173653
 20
-32.617791
 30
0.0
 10
216.119293
 20
-46.450629
 30
0.0
 10
202.283915
 20
-48.396268
 30
0.0
  0
LWPOLYLINE
  5
120
100
AcDbEntity
  8
0
 62
7
100
AcDbPolyline
 90
4
 70
1
 10
181.488939
 20
-37.212650
 30
0.0
 10
195.321776
 20
-35.267011
 30
0.0
 10
197.267416
 20
-49.102388
 30
0.0
 10
183.432038
 20
-51.045488
 30
0.0
  0
LWPOLYLINE
  5
121
100
AcDbEntity
  8
0
 62
7
100
AcDbPolyline
 90
4
 70
1
 10
162.611662
 20
-39.864410
 30
0.0
 10
176.444500
 20
-37.921310
 30
0.0
 10
178.390139
 20
-51.754148
 30
0.0
 10
164.554762
 20
-53.699788
 30
0.0
  0
LWPOLYLINE
  5
122
100
AcDbEntity
  8
0
 62
7
100
AcDbPolyline
 90
4
 70
1
 10
143.747085
 20
-42.516169
 30
0.0
 10
157.579923
 20
-40.570530
 30
0.0
 10
159.525562
 20
-54.405907
 30
0.0
 10
145.690185
 20
-56.349007
 30
0.0
  0
LWPOLYLINE
  5
123
100
AcDbEntity
  8
0
 62
7
100
AcDbPolyline
 90
4
 70
1
 10
112.436510
 20
-40.598470
 30
0.0
 10
126.271888
 20
-42.541569
 30
0.0
 10
124.326248
 20
-56.376947
 30
0.0
 10
110.493411
 20
-54.431307
 30
0.0
  0
LWPOLYLINE
  5
124
100
AcDbEntity
  8
0
 62
7
100
AcDbPolyline
 90
4
 70
1
 10
93.571933
 20
-37.946710
 30
0.0
 10
107.407311
 20
-39.889810
 30
0.0
 10
105.461671
 20
-53.725188
 30
0.0
 10
91.628834
 20
-51.779548
 30
0.0
  0
LWPOLYLINE
  5
125
100
AcDbEntity
  8
0
 62
7
100
AcDbPolyline
 90
4
 70
1
 10
74.707357
 20
-35.294951
 30
0.0
 10
88.542734
 20
-37.238050
 30
0.0
 10
86.597095
 20
-51.073428
 30
0.0
 10
72.764257
 20
-49.127788
 30
0.0
  0
LWPOLYLINE
  5
126
100
AcDbEntity
  8
0
 62
7
100
AcDbPolyline
 90
4
 70
1
 10
55.842780
 20
-32.643191
 30
0.0
 10
69.678157
 20
-34.588831
 30
0.0
 10
67.732518
 20
-48.421668
 30
0.0
 10
53.899680
 20
-46.478569
 30
0.0
  0
LWPOLYLINE
  5
127
100
AcDbEntity
  8
0
 62
7
100
AcDbPolyline
 90
4
 70
1
 10
34.313743
 20
-30.931231
 30
0.0
 10
48.250721
 20
-31.906591
 30
0.0
 10
47.275361
 20
-45.841029
 30
0.0
 10
33.338383
 20
-44.868209
 30
0.0
  0
LWPOLYLINE
  5
128
100
AcDbEntity
  8
0
 62
7
100
AcDbPolyline
 90
4
 70
1
 10
243.421748
 20
-11.568815
 30
0.0
 10
257.391746
 20
-11.568815
 30
0.0
 10
257.391746
 20
-25.538812
 30
0.0
 10
243.421748
 20
-25.538812
 30
0.0
  0
LWPOLYLINE
  5
129
100
AcDbEntity
  8
0
 62
7
100
AcDbPolyline
 90
4
 70
1
 10
220.500792
 20
-12.818494
 30
0.0
 10
234.435230
 20
-11.843134
 30
0.0
 10
235.410590
 20
-25.780112
 30
0.0
 10
221.473612
 20
-26.752932
 30
0.0
  0
LWPOLYLINE
  5
12a
100
AcDbEntity
  8
0
 62
7
100
AcDbPolyline
 90
4
 70
1
 10
197.689056
 20
-15.696314
 30
0.0
 10
211.524434
 20
-13.753214
 30
0.0
 10
213.467533
 20
-27.586052
 30
0.0
 10
199.634696
 20
-29.531692
 30
0.0
  0
LWPOLYLINE
  5
12b
100
AcDbEntity
  8
0
 62
7
100
AcDbPolyline
 90
4
 70
1
 10
178.837179
 20
-18.353153
 30
0.0
 10
192.672557
 20
-16.410054
 30
0.0
 10
194.615657
 20
-30.242891
 30
0.0
 10
180.782819
 20
-32.185991
 30
0.0
  0
LWPOLYLINE
  5
12c
100
AcDbEntity
  8
0
 62
7
100
AcDbPolyline
 90
4
 70
1
 10
159.972602
 20
-21.004913
 30
0.0
 10
173.807980
 20
-19.059273
 30
0.0
 10
175.751080
 20
-32.894651
 30
0.0
 10
161.918242
 20
-34.837751
 30
0.0
  0
LWPOLYLINE
  5
12d
100
AcDbEntity
  8
0
 62
7
100
AcDbPolyline
 90
4
 70
1
 10
115.088270
 20
-21.733893
 30
0.0
 10
128.921108
 20
-23.676993
 30
0.0
 10
126.978008
 20
-37.512370
 30
0.0
 10
113.142630
 20
-35.566731
 30
0.0
  0
LWPOLYLINE
  5
12e
100
AcDbEntity
  8
0
 62
7
100
AcDbPolyline
 90
4
 70
1
 10
96.223693
 20
-19.082133
 30
0.0
 10
110.056531
 20
-21.025233
 30
0.0
 10
108.113431
 20
-34.860611
 30
0.0
 10
94.278053
 20
-32.914971
 30
0.0
  0
LWPOLYLINE
  5
12f
100
AcDbEntity
  8
0
 62
7
100
AcDbPolyline
 90
4
 70
1
 10
77.359116
 20
-16.430374
 30
0.0
 10
91.191954
 20
-18.373473
 30
0.0
 10
89.248854
 20
-32.208851
 30
0.0
 10
75.413476
 20
-30.263211
 30
0.0
  0
SPLINE
  5
130
100
AcDbEntity
  8
0
 62
7
100
AcDbSpline
 70
8
 71
3
 72
8
 73
4
 74
0
 40
0
 40
0
 40
0
 40
0
 40
1
 40
1
 40
1
 40
1
 10
264.963485
 20
-10.640054
 30
0.0
 10
264.963495
 20
-6.967006
 30
0.0
 10
261.986052
 20
-3.989328
 30
0.0
 10
258.313004
 20
-3.989047
 30
0.0
  0
SPLINE
  5
131
100
AcDbEntity
  8
0
 62
7
100
AcDbSpline
 70
8
 71
3
 72
8
 73
4
 74
0
 40
0
 40
0
 40
0
 40
0
 40
1
 40
1
 40
1
 40
1
 10
260.980740
 20
-6.719054
 30
0.0
 10
260.495385
 20
-6.719054
 30
0.0
 10
260.057822
 20
-7.011425
 30
0.0
 10
259.872085
 20
-7.459834
 30
0.0
  0
SPLINE
  5
132
100
AcDbEntity
  8
0
 62
7
100
AcDbSpline
 70
8
 71
3
 72
8
 73
4
 74
0
 40
0
 40
0
 40
0
 40
0
 40
1
 40
1
 40
1
 40
1
 10
259.872085
 20
-7.459834
 30
0.0
 10
259.686348
 20
-7.908243
 30
0.0
 10
259.789014
 20
-8.424385
 30
0.0
 10
260.132212
 20
-8.767582
 30
0.0
  0
SPLINE
  5
133
100
AcDbEntity
  8
0
 62
7
100
AcDbSpline
 70
8
 71
3
 72
8
 73
4
 74
0
 40
0
 40
0
 40
0
 40
0
 40
1
 40
1
 40
1
 40
1
 10
260.132212
 20
-8.767582
 30
0.0
 10
260.475410
 20
-9.110780
 30
0.0
 10
260.991551
 20
-9.213447
 30
0.0
 10
261.439960
 20
-9.027710
 30
0.0
  0
SPLINE
  5
134
100
AcDbEntity
  8
0
 62
7
100
AcDbSpline
 70
8
 71
3
 72
8
 73
4
 74
0
 40
0
 40
0
 40
0
 40
0
 40
1
 40
1
 40
1
 40
1
 10
261.439960
 20
-9.027710
 30
0.0
 10
261.888370
 20
-8.841973
 30
0.0
 10
262.180740
 20
-8.404409
 30
0.0
 10
262.180740
 20
-7.919054
 30
0.0
  0
SPLINE
  5
135
100
AcDbEntity
  8
0
 62
7
100
AcDbSpline
 70
8
 71
3
 72
8
 73
4
 74
0
 40
0
 40
0
 40
0
 40
0
 40
1
 40
1
 40
1
 40
1
 10
262.180740
 20
-7.919054
 30
0.0
 10
262.180740
 20
-7.256313
 30
0.0
 10
261.643482
 20
-6.719054
 30
0.0
 10
260.980740
 20
-6.719054
 30
0.0
  0
LWPOLYLINE
  5
136
100
AcDbEntity
  8
0
 62
7
100
AcDbPolyline
 90
4
 70
1
 10
58.494539
 20
-13.778614
 30
0.0
 10
72.327377
 20
-15.724254
 30
0.0
 10
70.384277
 20
-29.557092
 30
0.0
 10
56.548900
 20
-27.613992
 30
0.0
  0
LWPOLYLINE
  5
137
100
AcDbEntity
  8
0
 62
7
100
AcDbPolyline
 90
1
 70
1
 10
260.980740
 20
-6.719054
 30
0.0
  0
LWPOLYLINE
  5
138
100
AcDbEntity
  8
0
 62
7
100
AcDbPolyline
 90
2
 70
0
 10
258.311226
 20
-3.986906
 30
0.0
 10
11.677258
 20
-3.986906
 30
0.0
  0
LWPOLYLINE
  5
139
100
AcDbEntity
  8
0
 62
7
100
AcDbPolyline
 90
2
 70
0
 10
264.963485
 20
-83.610812
 30
0.0
 10
264.963485
 20
-10.639165
 30
0.0
  0
SPLINE
  5
13a
100
AcDbEntity
  8
0
 62
7
100
AcDbSpline
 70
8
 71
3
 72
8
 73
4
 74
0
 40
0
 40
0
 40
0
 40
0
 40
1
 40
1
 40
1
 40
1
 10
258.313004
 20
-90.262055
 30
0.0
 10
261.986045
 20
-90.261775
 30
0.0
 10
264.963485
 20
-87.284108
 30
0.0
 10
264.963485
 20
-83.611066
 30
0.0
  0
SPLINE
  5
13b
100
AcDbEntity
  8
0
 62
7
100
AcDbSpline
 70
8
 71
3
 72
8
 73
4
 74
0
 40
0
 40
0
 40
0
 40
0
 40
1
 40
1
 40
1
 40
1
 10
260.980740
 20
-85.134967
 30
0.0
 10
260.495385
 20
-85.134967
 30
0.0
 10
260.057822
 20
-85.427338
 30
0.0
 10
259.872085
 20
-85.875747
 30
0.0
  0
SPLINE
  5
13c
100
AcDbEntity
  8
0
 62
7
100
AcDbSpline
 70
8
 71
3
 72
8
 73
4
 74
0
 40
0
 40
0
 40
0
 40
0
 40
1
 40
1
 40
1
 40
1
 10
259.872085
 20
-85.875747
 30
0.0
 10
259.686348
 20
-86.324156
 30
0.0
 10
259.789014
 20
-86.840298
 30
0.0
 10
260.132212
 20
-87.183495
 30
0.0
  0
SPLINE
  5
13d
100
AcDbEntity
  8
0
 62
7
100
AcDbSpline
 70
8
 71
3
 72
8
 73
4
 74
0
 40
0
 40
0
 40
0
 40
0
 40
1
 40
1
 40
1
 40
1
 10
260.132212
 20
-87.183495
 30
0.0
 10
260.475410
 20
-87.526693
 30
0.0
 10
260.991551
 20
-87.629360
 30
0.0
 10
261.439960
 20
-87.443622
 30
0.0
  0
SPLINE
  5
13e
100
AcDbEntity
  8
0
 62
7
100
AcDbSpline
 70
8
 71
3
 72
8
 73
4
 74
0
 40
0
 40
0
 40
0
 40
0
 40
1
 40
1
 40
1
 40
1
 10
261.439960
 20
-87.443622
 30
0.0
 10
261.888370
 20
-87.257885
 30
0.0
 10
262.180740
 20
-86.820322
 30
0.0
 10
262.180740
 20
-86.334967
 30
0.0
  0
SPLINE
  5
13f
100
AcDbEntity
  8
0
 62
7
100
AcDbSpline
 70
8
 71
3
 72
8
 73
4
 74
0
 40
0
 40
0
 40
0
 40
0
 40
1
 40
1
 40
1
 40
1
 10
262.180740
 20
-86.334967
 30
0.0
 10
262.180740
 20
-85.672225
 30
0.0
 10
261.643482
 20
-85.134967
 30
0.0
 10
260.980740
 20
-85.134967
 30
0.0
  0
LWPOLYLINE
  5
140
100
AcDbEntity
  8
0
 62
7
100
AcDbPolyline
 90
2
 70
0
 10
258.311226
 20
-90.260531
 30
0.0
 10
232.657220
 20
-90.260531
 30
0.0
  0
LWPOLYLINE
  5
141
100
AcDbEntity
  8
0
 62
7
100
AcDbPolyline
 90
1
 70
1
 10
260.980740
 20
-85.134967
 30
0.0
  0
SPLINE
  5
142
100
AcDbEntity
  8
0
 62
7
100
AcDbSpline
 70
8
 71
3
 72
8
 73
4
 74
0
 40
0
 40
0
 40
0
 40
0
 40
1
 40
1
 40
1
 40
1
 10
148.839015
 20
-98.032071
 30
0.0
 10
148.176273
 20
-98.032071
 30
0.0
 10
147.639015
 20
-98.569330
 30
0.0
 10
147.639015
 20
-99.232071
 30
0.0
  0
SPLINE
  5
143
100
AcDbEntity
  8
0
 62
7
100
AcDbSpline
 70
8
 71
3
 72
8
 73
4
 74
0
 40
0
 40
0
 40
0
 40
0
 40
1
 40
1
 40
1
 40
1
 10
147.639015
 20
-99.232071
 30
0.0
 10
147.639015
 20
-99.894813
 30
0.0
 10
148.176273
 20
-100.432071
 30
0.0
 10
148.839015
 20
-100.432071
 30
0.0
  0
SPLINE
  5
144
100
AcDbEntity
  8
0
 62
7
100
AcDbSpline
 70
8
 71
3
 72
8
 73
4
 74
0
 40
0
 40
0
 40
0
 40
0
 40
1
 40
1
 40
1
 40
1
 10
148.839015
 20
-100.432071
 30
0.0
 10
149.501756
 20
-100.432071
 30
0.0
 10
150.039015
 20
-99.894813
 30
0.0
 10
150.039015
 20
-99.232071
 30
0.0
  0
SPLINE
  5
145
100
AcDbEntity
  8
0
 62
7
100
AcDbSpline
 70
8
 71
3
 72
8
 73
4
 74
0
 40
0
 40
0
 40
0
 40
0
 40
1
 40
1
 40
1
 40
1
 10
150.039015
 20
-99.232071
 30
0.0
 10
150.039015
 20
-98.913812
 30
0.0
 10
149.912586
 20
-98.608587
 30
0.0
 10
149.687543
 20
-98.383543
 30
0.0
  0
SPLINE
  5
146
100
AcDbEntity
  8
0
 62
7
100
AcDbSpline
 70
8
 71
3
 72
8
 73
4
 74
0
 40
0
 40
0
 40
0
 40
0
 40
1
 40
1
 40
1
 40
1
 10
149.687543
 20
-98.383543
 30
0.0
 10
149.462499
 20
-98.158500
 30
0.0
 10
149.157274
 20
-98.032071
 30
0.0
 10
148.839015
 20
-98.032071
 30
0.0
  0
LWPOLYLINE
  5
147
100
AcDbEntity
  8
0
 62
7
100
AcDbPolyline
 90
2
 70
0
 10
148.837234
 20
-102.071529
 30
0.0
 10
232.657220
 20
-90.260531
 30
0.0
  0
SPLINE
  5
148
100
AcDbEntity
  8
0
 62
7
100
AcDbSpline
 70
8
 71
3
 72
8
 73
4
 74
0
 40
0
 40
0
 40
0
 40
0
 40
1
 40
1
 40
1
 40
1
 10
121.153019
 20
-98.032071
 30
0.0
 10
120.667665
 20
-98.032071
 30
0.0
 10
120.230101
 20
-98.324442
 30
0.0
 10
120.044364
 20
-98.772851
 30
0.0
  0
SPLINE
  5
149
100
AcDbEntity
  8
0
 62
7
100
AcDbSpline
 70
8
 71
3
 72
8
 73
4
 74
0
 40
0
 40
0
 40
0
 40
0
 40
1
 40
1
 40
1
 40
1
 10
120.044364
 20
-98.772851
 30
0.0
 10
119.858627
 20
-99.221261
 30
0.0
 10
119.961294
 20
-99.737402
 30
0.0
 10
120.304491
 20
-100.080600
 30
0.0
  0
SPLINE
  5
14a
100
AcDbEntity
  8
0
 62
7
100
AcDbSpline
 70
8
 71
3
 72
8
 73
4
 74
0
 40
0
 40
0
 40
0
 40
0
 40
1
 40
1
 40
1
 40
1
 10
120.304491
 20
-100.080600
 30
0.0
 10
120.647689
 20
-100.423797
 30
0.0
 10
121.163830
 20
-100.526464
 30
0.0
 10
121.612239
 20
-100.340727
 30
0.0
  0
SPLINE
  5
14b
100
AcDbEntity
  8
0
 62
7
100
AcDbSpline
 70
8
 71
3
 72
8
 73
4
 74
0
 40
0
 40
0
 40
0
 40
0
 40
1
 40
1
 40
1
 40
1
 10
121.612239
 20
-100.340727
 30
0.0
 10
122.060649
 20
-100.154990
 30
0.0
 10
122.353019
 20
-99.717426
 30
0.0
 10
122.353019
 20
-99.232071
 30
0.0
  0
SPLINE
  5
14c
100
AcDbEntity
  8
0
 62
7
100
AcDbSpline
 70
8
 71
3
 72
8
 73
4
 74
0
 40
0
 40
0
 40
0
 40
0
 40
1
 40
1
 40
1
 40
1
 10
122.353019
 20
-99.232071
 30
0.0
 10
122.353019
 20
-98.569330
 30
0.0
 10
121.815761
 20
-98.032071
 30
0.0
 10
121.153019
 20
-98.032071
 30
0.0
  0
LWPOLYLINE
  5
14d
100
AcDbEntity
  8
0
 62
7
100
AcDbPolyline
 90
1
 70
1
 10
148.839015
 20
-98.032071
 30
0.0
  0
LWPOLYLINE
  5
14e
100
AcDbEntity
  8
0
 62
7
100
AcDbPolyline
 90
1
 70
1
 10
121.153019
 20
-98.032071
 30
0.0
  0
LWPOLYLINE
  5
14f
100
AcDbEntity
  8
0
 62
7
100
AcDbPolyline
 90
2
 70
0
 10
121.278239
 20
-102.071529
 30
0.0
 10
148.837234
 20
-102.071529
 30
0.0
  0
LWPOLYLINE
  5
150
100
AcDbEntity
  8
0
 62
7
100
AcDbPolyline
 90
2
 70
0
 10
121.278239
 20
-102.071529
 30
0.0
 10
37.458253
 20
-90.260531
 30
0.0
  0
SPLINE
  5
151
100
AcDbEntity
  8
0
 62
7
100
AcDbSpline
 70
8
 71
3
 72
8
 73
4
 74
0
 40
0
 40
0
 40
0
 40
0
 40
1
 40
1
 40
1
 40
1
 10
5.027140
 20
-83.611066
 30
0.0
 10
5.027140
 20
-85.375021
 30
0.0
 10
5.727869
 20
-87.066729
 30
0.0
 10
6.975176
 20
-88.314032
 30
0.0
  0
SPLINE
  5
152
100
AcDbEntity
  8
0
 62
7
100
AcDbSpline
 70
8
 71
3
 72
8
 73
4
 74
0
 40
0
 40
0
 40
0
 40
0
 40
1
 40
1
 40
1
 40
1
 10
6.975176
 20
-88.314032
 30
0.0
 10
8.222482
 20
-89.561335
 30
0.0
 10
9.914192
 20
-90.262060
 30
0.0
 10
11.678147
 20
-90.262055
 30
0.0
  0
SPLINE
  5
153
100
AcDbEntity
  8
0
 62
7
100
AcDbSpline
 70
8
 71
3
 72
8
 73
4
 74
0
 40
0
 40
0
 40
0
 40
0
 40
1
 40
1
 40
1
 40
1
 10
9.082140
 20
-85.078063
 30
0.0
 10
8.596785
 20
-85.078063
 30
0.0
 10
8.159222
 20
-85.370434
 30
0.0
 10
7.973484
 20
-85.818843
 30
0.0
  0
SPLINE
  5
154
100
AcDbEntity
  8
0
 62
7
100
AcDbSpline
 70
8
 71
3
 72
8
 73
4
 74
0
 40
0
 40
0
 40
0
 40
0
 40
1
 40
1
 40
1
 40
1
 10
7.973484
 20
-85.818843
 30
0.0
 10
7.787747
 20
-86.267253
 30
0.0
 10
7.890414
 20
-86.783394
 30
0.0
 10
8.233612
 20
-87.126592
 30
0.0
  0
SPLINE
  5
155
100
AcDbEntity
  8
0
 62
7
100
AcDbSpline
 70
8
 71
3
 72
8
 73
4
 74
0
 40
0
 40
0
 40
0
 40
0
 40
1
 40
1
 40
1
 40
1
 10
8.233612
 20
-87.126592
 30
0.0
 10
8.576809
 20
-87.469789
 30
0.0
 10
9.092951
 20
-87.572456
 30
0.0
 10
9.541360
 20
-87.386719
 30
0.0
  0
SPLINE
  5
156
100
AcDbEntity
  8
0
 62
7
100
AcDbSpline
 70
8
 71
3
 72
8
 73
4
 74
0
 40
0
 40
0
 40
0
 40
0
 40
1
 40
1
 40
1
 40
1
 10
9.541360
 20
-87.386719
 30
0.0
 10
9.989769
 20
-87.200982
 30
0.0
 10
10.282140
 20
-86.763418
 30
0.0
 10
10.282140
 20
-86.278063
 30
0.0
  0
SPLINE
  5
157
100
AcDbEntity
  8
0
 62
7
100
AcDbSpline
 70
8
 71
3
 72
8
 73
4
 74
0
 40
0
 40
0
 40
0
 40
0
 40
1
 40
1
 40
1
 40
1
 10
10.282140
 20
-86.278063
 30
0.0
 10
10.282140
 20
-85.615322
 30
0.0
 10
9.744882
 20
-85.078063
 30
0.0
 10
9.082140
 20
-85.078063
 30
0.0
  0
LWPOLYLINE
  5
158
100
AcDbEntity
  8
0
 62
7
100
AcDbPolyline
 90
2
 70
0
 10
11.677258
 20
-90.260531
 30
0.0
 10
37.458253
 20
-90.260531
 30
0.0
  0
LWPOLYLINE
  5
159
100
AcDbEntity
  8
0
 62
7
100
AcDbPolyline
 90
1
 70
1
 10
9.082140
 20
-85.078063
 30
0.0
  0
SPLINE
  5
15a
100
AcDbEntity
  8
0
 62
7
100
AcDbSpline
 70
8
 71
3
 72
8
 73
4
 74
0
 40
0
 40
0
 40
0
 40
0
 40
1
 40
1
 40
1
 40
1
 10
9.082140
 20
-6.719054
 30
0.0
 10
8.596785
 20
-6.719054
 30
0.0
 10
8.159222
 20
-7.011425
 30
0.0
 10
7.973484
 20
-7.459834
 30
0.0
  0
SPLINE
  5
15b
100
AcDbEntity
  8
0
 62
7
100
AcDbSpline
 70
8
 71
3
 72
8
 73
4
 74
0
 40
0
 40
0
 40
0
 40
0
 40
1
 40
1
 40
1
 40
1
 10
7.973484
 20
-7.459834
 30
0.0
 10
7.787747
 20
-7.908243
 30
0.0
 10
7.890414
 20
-8.424385
 30
0.0
 10
8.233612
 20
-8.767582
 30
0.0
  0
SPLINE
  5
15c
100
AcDbEntity
  8
0
 62
7
100
AcDbSpline
 70
8
 71
3
 72
8
 73
4
 74
0
 40
0
 40
0
 40
0
 40
0
 40
1
 40
1
 40
1
 40
1
 10
8.233612
 20
-8.767582
 30
0.0
 10
8.576809
 20
-9.110780
 30
0.0
 10
9.092951
 20
-9.213447
 30
0.0
 10
9.541360
 20
-9.027710
 30
0.0
  0
SPLINE
  5
15d
100
AcDbEntity
  8
0
 62
7
100
AcDbSpline
 70
8
 71
3
 72
8
 73
4
 74
0
 40
0
 40
0
 40
0
 40
0
 40
1
 40
1
 40
1
 40
1
 10
9.541360
 20
-9.027710
 30
0.0
 10
9.989769
 20
-8.841973
 30
0.0
 10
10.282140
 20
-8.404409
 30
0.0
 10
10.282140
 20
-7.919054
 30
0.0
  0
SPLINE
  5
15e
100
AcDbEntity
  8
0
 62
7
100
AcDbSpline
 70
8
 71
3
 72
8
 73
4
 74
0
 40
0
 40
0
 40
0
 40
0
 40
1
 40
1
 40
1
 40
1
 10
10.282140
 20
-7.919054
 30
0.0
 10
10.282140
 20
-7.256313
 30
0.0
 10
9.744882
 20
-6.719054
 30
0.0
 10
9.082140
 20
-6.719054
 30
0.0
  0
LWPOLYLINE
  5
15f
100
AcDbEntity
  8
0
 62
7
100
AcDbPolyline
 90
2
 70
0
 10
5.024999
 20
-10.639165
 30
0.0
 10
5.024999
 20
-83.610812
 30
0.0
  0
SPLINE
  5
160
100
AcDbEntity
  8
0
 62
7
100
AcDbSpline
 70
8
 71
3
 72
8
 73
4
 74
0
 40
0
 40
0
 40
0
 40
0
 40
1
 40
1
 40
1
 40
1
 10
11.678147
 20
-3.989047
 30
0.0
 10
9.914188
 20
-3.989043
 30
0.0
 10
8.222476
 20
-4.689770
 30
0.0
 10
6.975169
 20
-5.937077
 30
0.0
  0
SPLINE
  5
161
100
AcDbEntity
  8
0
 62
7
100
AcDbSpline
 70
8
 71
3
 72
8
 73
4
 74
0
 40
0
 40
0
 40
0
 40
0
 40
1
 40
1
 40
1
 40
1
 10
6.975169
 20
-5.937077
 30
0.0
 10
5.727862
 20
-7.184384
 30
0.0
 10
5.027135
 20
-8.876096
 30
0.0
 10
5.027140
 20
-10.640054
 30
0.0
  0
SPLINE
  5
162
100
AcDbEntity
  8
0
 62
7
100
AcDbSpline
 70
8
 71
3
 72
8
 73
4
 74
0
 40
0
 40
0
 40
0
 40
0
 40
1
 40
1
 40
1
 40
1
 10
148.839015
 20
-5.322055
 30
0.0
 10
148.176273
 20
-5.322055
 30
0.0
 10
147.639015
 20
-5.859313
 30
0.0
 10
147.639015
 20
-6.522055
 30
0.0
  0
SPLINE
  5
163
100
AcDbEntity
  8
0
 62
7
100
AcDbSpline
 70
8
 71
3
 72
8
 73
4
 74
0
 40
0
 40
0
 40
0
 40
0
 40
1
 40
1
 40
1
 40
1
 10
147.639015
 20
-6.522055
 30
0.0
 10
147.639015
 20
-7.184796
 30
0.0
 10
148.176273
 20
-7.722055
 30
0.0
 10
148.839015
 20
-7.722055
 30
0.0
  0
SPLINE
  5
164
100
AcDbEntity
  8
0
 62
7
100
AcDbSpline
 70
8
 71
3
 72
8
 73
4
 74
0
 40
0
 40
0
 40
0
 40
0
 40
1
 40
1
 40
1
 40
1
 10
148.839015
 20
-7.722055
 30
0.0
 10
149.501756
 20
-7.722055
 30
0.0
 10
150.039015
 20
-7.184796
 30
0.0
 10
150.039015
 20
-6.522055
 30
0.0
  0
SPLINE
  5
165
100
AcDbEntity
  8
0
 62
7
100
AcDbSpline
 70
8
 71
3
 72
8
 73
4
 74
0
 40
0
 40
0
 40
0
 40
0
 40
1
 40
1
 40
1
 40
1
 10
150.039015
 20
-6.522055
 30
0.0
 10
150.039015
 20
-6.203795
 30
0.0
 10
149.912586
 20
-5.898570
 30
0.0
 10
149.687543
 20
-5.673526
 30
0.0
  0
SPLINE
  5
166
100
AcDbEntity
  8
0
 62
7
100
AcDbSpline
 70
8
 71
3
 72
8
 73
4
 74
0
 40
0
 40
0
 40
0
 40
0
 40
1
 40
1
 40
1
 40
1
 10
149.687543
 20
-5.673526
 30
0.0
 10
149.462499
 20
-5.448483
 30
0.0
 10
149.157274
 20
-5.322055
 30
0.0
 10
148.839015
 20
-5.322055
 30
0.0
  0
LWPOLYLINE
  5
167
100
AcDbEntity
  8
0
 62
7
100
AcDbPolyline
 90
1
 70
1
 10
9.082140
 20
-6.719054
 30
0.0
  0
SPLINE
  5
168
100
AcDbEntity
  8
0
 62
7
100
AcDbSpline
 70
8
 71
3
 72
8
 73
4
 74
0
 40
0
 40
0
 40
0
 40
0
 40
1
 40
1
 40
1
 40
1
 10
121.153019
 20
-5.322055
 30
0.0
 10
120.667665
 20
-5.322055
 30
0.0
 10
120.230101
 20
-5.614425
 30
0.0
 10
120.044364
 20
-6.062834
 30
0.0
  0
SPLINE
  5
169
100
AcDbEntity
  8
0
 62
7
100
AcDbSpline
 70
8
 71
3
 72
8
 73
4
 74
0
 40
0
 40
0
 40
0
 40
0
 40
1
 40
1
 40
1
 40
1
 10
120.044364
 20
-6.062834
 30
0.0
 10
119.858627
 20
-6.511244
 30
0.0
 10
119.961294
 20
-7.027385
 30
0.0
 10
120.304491
 20
-7.370583
 30
0.0
  0
SPLINE
  5
16a
100
AcDbEntity
  8
0
 62
7
100
AcDbSpline
 70
8
 71
3
 72
8
 73
4
 74
0
 40
0
 40
0
 40
0
 40
0
 40
1
 40
1
 40
1
 40
1
 10
120.304491
 20
-7.370583
 30
0.0
 10
120.647689
 20
-7.713780
 30
0.0
 10
121.163830
 20
-7.816447
 30
0.0
 10
121.612239
 20
-7.630710
 30
0.0
  0
SPLINE
  5
16b
100
AcDbEntity
  8
0
 62
7
100
AcDbSpline
 70
8
 71
3
 72
8
 73
4
 74
0
 40
0
 40
0
 40
0
 40
0
 40
1
 40
1
 40
1
 40
1
 10
121.612239
 20
-7.630710
 30
0.0
 10
122.060649
 20
-7.444973
 30
0.0
 10
122.353019
 20
-7.007409
 30
0.0
 10
122.353019
 20
-6.522055
 30
0.0
  0
SPLINE
  5
16c
100
AcDbEntity
  8
0
 62
7
100
AcDbSpline
 70
8
 71
3
 72
8
 73
4
 74
0
 40
0
 40
0
 40
0
 40
0
 40
1
 40
1
 40
1
 40
1
 10
122.353019
 20
-6.522055
 30
0.0
 10
122.353019
 20
-5.859313
 30
0.0
 10
121.815761
 20
-5.322055
 30
0.0
 10
121.153019
 20
-5.322055
 30
0.0
  0
LWPOLYLINE
  5
16d
100
AcDbEntity
  8
0
 62
7
100
AcDbPolyline
 90
1
 70
1
 10
148.839015
 20
-5.322055
 30
0.0
  0
LWPOLYLINE
  5
16e
100
AcDbEntity
  8
0
 62
7
100
AcDbPolyline
 90
1
 70
1
 10
121.153019
 20
-5.322055
 30
0.0
  0
ENDSEC
  0
SECTION
  2
OBJECTS
  0
DICTIONARY
  5
C
330
0
100
AcDbDictionary
  3
ACAD_GROUP
350
D
  3
ACAD_MLINESTYLE
350
17
  0
DICTIONARY
  5
D
330
C
100
AcDbDictionary
  0
DICTIONARY
  5
1A
330
C
100
AcDbDictionary
  0
DICTIONARY
  5
17
330
C
100
AcDbDictionary
  3
STANDARD
350
18
  0
DICTIONARY
  5
19
330
C
100
AcDbDictionary
  0
ENDSEC
  0
EOF
